<?xml version="1.0" encoding="UTF-8" standalone="no"?>
<svg
  version="1.1"
  id="svg1"
  xml:space="preserve"
  width="255.13171"
  height="255.131"
  xmlns:inkscape="http://www.inkscape.org/namespaces/inkscape"
  xmlns:sodipodi="http://sodipodi.sourceforge.net/DTD/sodipodi-0.dtd"
  xmlns="http://www.w3.org/2000/svg"
  xmlns:svg="http://www.w3.org/2000/svg"
>
  <defs id="defs1" />
  <sodipodi:namedview
    id="namedview1"
    pagecolor="#505050"
    bordercolor="#eeeeee"
    borderopacity="1"
    inkscape:showpageshadow="0"
    inkscape:pageopacity="0"
    inkscape:pagecheckerboard="0"
    inkscape:deskcolor="#505050"
  /><inkscape:clipboard
    min="8425.7472,2640.302"
    max="8680.8789,2895.433"
    geom-min="8425.7472,2640.302"
    geom-max="8680.8789,2895.433"
    page-min="0,0"
    page-max="9498.9718,4625.335"
  />
  <g id="layer1" transform="matrix(3.7795276,0,0,3.7795276,-10151.272,-1984.6027)">
    <path
      d="m 2753.3609,558.84463 c 0,18.64125 -15.1103,33.75157 -33.7518,33.75157 -18.6399,0 -33.7518,-15.11024 -33.7518,-33.75157 0,-18.63992 15.1119,-33.75184 33.7518,-33.75184 18.6415,0 33.7518,15.11197 33.7518,33.75184"
      fill="#1a1918"
      id="path8"
      style="stroke-width: 0.264583"
    />
    <path
      d="m 2720.1772,545.71095 8.7343,21.55727 -13.1931,-10.39225 4.4588,-11.16499 z m 15.5163,26.52316 -13.4352,-32.33261 c -0.3835,-0.93249 -1.1504,-1.42591 -2.0811,-1.42591 -0.9325,0 -1.7553,0.49342 -2.1388,1.42591 l -14.746,35.46475 h 5.0444 l 5.8373,-14.62228 17.4199,14.07316 c 0.7006,0.56651 1.2061,0.82272 1.8632,0.82272 1.316,0 2.4663,-0.98657 2.4663,-2.41062 0,-0.23176 -0.082,-0.5996 -0.23,-0.99521 z"
      fill="#ffffff"
      id="path9"
      style="stroke-width: 0.264583"
    />
  </g>
</svg>
