<svg
  version="1.1"
  xmlns="http://www.w3.org/2000/svg"
  xmlns:xlink="http://www.w3.org/1999/xlink"
  x="0px"
  y="0px"
  width="32px"
  height="19.2px"
  viewBox="0 0 32 19.2"
  style="enable-background: new 0 0 32 19.2"
  xml:space="preserve"
>
  <path
    fill="#fe9900"
    d="M9,7c0,1.1,0.5,1.6,0.5,2c0,0.1-0.1,0.2-0.2,0.3L8.7,9.7C8.6,9.7,8.5,9.8,8.4,9.8c0,0-0.4,0.1-1-1.3
C6.7,9.4,5.5,10,4.3,10c-0.8,0-3-0.5-2.9-2.8C1.3,5.2,3.1,4,4.9,4.2c0.4,0,1.1,0,2.3,0.3V3.7C7.4,2.4,6.5,1.3,5,1.5
c-0.1,0-1,0-2.3,0.5C2.4,2.2,2.3,2.1,2.2,2.1C1.8,2.1,2,1.1,2.1,0.9C2.3,0.6,3.8,0,5.4,0c1-0.1,2,0.2,2.8,0.9c0.6,0.7,1,1.7,0.9,2.6
L9,7L9,7z M4.7,8.6c1.6,0,2.3-1,2.5-1.5c0.1-0.5,0.1-0.8,0.1-1.4c-0.5-0.1-1.2-0.2-2-0.2C4.5,5.4,3.1,5.7,3.2,7.1
C3.1,7.9,3.8,8.6,4.7,8.6z M13.2,9.7c-0.4,0-0.6-0.2-0.6-0.5L10.1,1c0-0.1-0.1-0.3-0.1-0.4c0-0.1,0.1-0.2,0.2-0.3c0,0-0.1,0,1.1,0
c0.4,0,0.6,0.3,0.6,0.5l1.8,7l1.7-7c0-0.2,0.1-0.6,0.6-0.5h0.9c0.1,0,0.6,0,0.6,0.5l1.7,7.1L21,0.8c0-0.1,0.1-0.6,0.6-0.5h1
c0,0,0.3,0,0.3,0.4c0,0.1,0.2-0.5-2.6,8.5c-0.1,0.3-0.2,0.6-0.6,0.5h-0.9c-0.5,0.1-0.6-0.5-0.6-0.5l-1.7-6.9l-1.6,6.8
c0,0.1-0.1,0.6-0.6,0.5L13.2,9.7L13.2,9.7z M26.9,10c-0.3,0-1.7,0-2.9-0.6c-0.2-0.1-0.4-0.3-0.4-0.6V8.3c0-0.4,0.3-0.3,0.4-0.3
c0.5,0.2,0.8,0.4,1.4,0.5c1.8,0.4,2.6-0.1,2.8-0.2c0.7-0.4,0.7-1.3,0.3-1.7C28.1,6,27.9,6,26,5.4c-0.2-0.1-2.2-0.7-2.2-2.6
C23.8,1.4,25,0,27.3,0c0.6,0,2.3,0.2,2.8,0.8c0.1,0.1,0.1,0.2,0.1,0.4v0.5c0,0.2-0.1,0.3-0.2,0.3c-0.4,0-1.1-0.6-2.5-0.5
c-0.3,0-2,0-1.9,1.2C25.5,3.6,26.9,4,27,4c1.8,0.5,2.4,0.6,3.2,1.5c0.9,1.1,0.4,2.4,0.2,2.8C29.4,10.2,27,10,26.9,10L26.9,10z
M28.9,15.3c-3.5,2.6-8.6,4-12.9,4c-5.9,0-11.5-2.1-15.9-6c-0.3-0.3,0-0.7,0.4-0.5c4.8,2.8,10.3,4.2,15.8,4.2
c4.2,0,8.3-0.9,12.1-2.5C29,14.2,29.5,14.8,28.9,15.3L28.9,15.3z M30.4,13.6c-0.4-0.6-3-0.3-4.1-0.1c-0.3,0-0.4-0.3-0.1-0.5
c2-1.4,5.3-1,5.7-0.5c0.4,0.5-0.1,3.8-2,5.3c-0.3,0.2-0.6,0.1-0.4-0.2C29.9,16.5,30.8,14.2,30.4,13.6z"
  />
</svg>
