<svg width="32" height="31.964" version="1.1" viewBox="0 0 8.4667 8.4572" xml:space="preserve" xmlns="http://www.w3.org/2000/svg">
  <g transform="translate(-45.601 -89.168)">
    <g transform="matrix(.071269 0 0 .071269 43.407 82.454)" stroke-width="14.031">
      <path d="m45.667 109.15 14.883-14.948 29.634 29.63 29.634-29.63 29.765 29.896-29.766-29.631-29.633 29.63-29.633-29.63-29.766 29.631z" fill="#bae7b9"/>
      <path d="m75.233 197.99-14.816-14.883 29.766 29.632 29.766-29.632-14.816 14.883c-8.1487 8.1856-14.876 14.883-14.95 14.883-0.0737 0-6.8012-6.6973-14.95-14.883zm-29.633-59.267-14.816-14.883 29.766 29.632 29.633-29.63 29.633 29.63 29.766-29.631-29.765 29.896-29.634-29.63-14.751 14.75c-8.1133 8.1123-14.811 14.75-14.884 14.75-0.0728 0-6.7994-6.6973-14.948-14.883z" fill="#7fb78c"/>
      <path d="m45.733 138.65-14.683-14.685 29.5-29.5 29.5 29.5-14.683 14.685c-8.0756 8.0766-14.743 14.685-14.817 14.685-0.0737 0-6.7414-6.6081-14.817-14.685zm59.267 0-14.683-14.685 29.5-29.5 29.5 29.5-14.683 14.685c-8.0756 8.0766-14.743 14.685-14.817 14.685-0.0737 0-6.7414-6.6081-14.817-14.685z" fill="#75d074"/>
      <path d="m75.3 168.49-14.75-14.75v29.366l-29.633-29.63v-29.369l29.633 29.63 29.633-29.63 29.633 29.63 29.633-29.63v29.369l-29.633 29.63v-29.365l-14.751 14.75c-8.1133 8.1123-14.811 14.75-14.883 14.75-0.0724 0-6.7693-6.6376-14.882-14.75z" fill="#429e46"/>
      <path d="m75.301 197.85-14.751-14.752v-29.366l29.638 29.638-0.1368 29.233z" fill="#006f19"/>
      <path d="m90.183 198.05v-14.684l29.633-29.63v29.369l-29.633 29.63z" fill="#004200"/>
    </g>
  </g>
</svg>
