<svg
  version="1.1"
  xmlns="http://www.w3.org/2000/svg"
  xmlns:xlink="http://www.w3.org/1999/xlink"
  x="0px"
  y="0px"
  width="32px"
  height="22.4px"
  viewBox="0 0 32 22.4"
  style="enable-background: new 0 0 32 22.4"
  xml:space="preserve"
>
  <rect x="14.2" y="3.6" fill="#099cec" width="3.3" height="3" />
  <rect x="14.2" y="7.2" fill="#099cec" width="3.3" height="3" />
  <rect x="10.3" y="3.6" fill="#099cec" width="3.3" height="3" />
  <rect x="18.1" y="7.2" fill="#099cec" width="3.3" height="3" />
  <rect x="14.2" fill="#099cec" width="3.3" height="3" />
  <rect x="6.4" y="3.6" fill="#099cec" width="3.3" height="3" />
  <rect x="10.3" y="7.2" fill="#099cec" width="3.3" height="3" />
  <path
    fill="#099cec"
    d="M31.3,8.6C30.6,8.1,29,8,27.7,8.2C27.5,7,26.8,6,25.6,5l-0.7-0.5l-0.5,0.7c-0.9,1.4-1.2,3.7-0.2,5.2
    C23.8,10.7,23,11,21.9,11H0.1c-0.4,2.5,0.3,5.8,2.2,8.1c1.9,2.2,4.6,3.3,8.3,3.3c7.9,0,13.7-3.6,16.4-10.2c1.1,0,3.4,0,4.6-2.3
    c0.1-0.1,0.3-0.7,0.4-0.9L31.3,8.6z"
  />
  <polygon fill="#099cec" points="5.8,7.2 5.8,7.2 2.5,7.2 2.5,10.2 5.8,10.2" />
  <rect x="6.4" y="7.2" fill="#099cec" width="3.3" height="3" />
</svg>
