<?xml version="1.0" encoding="UTF-8"?>
<!-- Uploaded to: SVG Repo, www.svgrepo.com, Generator: SVG Repo Mixer Tools -->
<svg width="23.509" height="32" version="1.1" viewBox="0 0 .94034 1.28" xmlns="http://www.w3.org/2000/svg" xmlns:cc="http://creativecommons.org/ns#" xmlns:dc="http://purl.org/dc/elements/1.1/" xmlns:rdf="http://www.w3.org/1999/02/22-rdf-syntax-ns#">
 <title>file_type_go</title>
 <g>
  <path d="m0.012663 0.69257c0.0018286 0.03776 0.039543 0.020297 0.05664 0.008503 0.016229-0.0112 0.020983-0.001874 0.0224-0.024a0.36283 0.36283 0 0 0 0.0017829-0.043657 0.10706 0.10706 0 0 0-0.071314 0.018286c-0.010377 0.007543-0.02976 0.031543-0.0095086 0.041143" fill="#f6d2a2" fill-rule="evenodd"/>
  <path d="m0.032274 0.71918a0.024091 0.024091 0 0 1-0.010789-0.0023314 0.024731 0.024731 0 0 1-0.012343-0.022034 0.016366 0.016366 0 0 1-0.0091428-0.012937 0.045989 0.045989 0 0 1 0.019749-0.033234 0.10971 0.10971 0 0 1 0.073737-0.01888l0.0031086 2.7429e-4v0.003109a0.25906 0.25906 0 0 1-0.0010514 0.034149c-2.7428e-4 0.003337-5.0285e-4 0.006629-7.3142e-4 0.009966-0.0010057 0.01568-0.0039314 0.018057-0.012023 0.020846a0.044571 0.044571 0 0 0-0.011931 0.0058964 0.081737 0.081737 0 0 1-0.038583 0.015177zm0.050743-0.082651a0.10057 0.10057 0 0 0-0.058789 0.018011c-0.0074057 0.005394-0.017691 0.018011-0.016823 0.026697a0.010011 0.010011 0 0 0 0.00672 0.008091l0.0019657 9.1428e-4v0.002149c4.5715e-4 0.009417 0.0032914 0.015451 0.0084571 0.018011 0.0099657 0.004937 0.028526-0.002651 0.04256-0.012297a0.05152 0.05152 0 0 1 0.013714-0.006766c0.0053028-0.001829 0.0064-0.00224 0.0071771-0.014537 0-0.003337 4.5714e-4 -0.006674 7.3143e-4 -0.010057a0.28105 0.28105 0 0 0 0.0011886-0.03008q-0.00352-1.3714e-4 -0.0068571-1.3714e-4z"/>
  <path d="m0.012663 0.69257a0.029714 0.029714 0 0 0 0.01504-0.008457" fill="#c6b198" fill-rule="evenodd"/>
  <path d="m0.012663 0.69618a0.0036114 0.0036114 0 0 1-0.0012343-0.006949l0.0024228-8.6857e-4a0.021623 0.021623 0 0 0 0.011017-0.006354 0.0036114 0.0036114 0 1 1 0.00576 0.004297 0.028114 0.028114 0 0 1-0.014354 0.008823l-0.0023314 8.2286e-4a0.0035657 0.0035657 0 0 1-0.00128 2.2871e-4z"/>
  <path d="m0.09984 0.2427c-0.14459-0.04064-0.037074-0.22441 0.078994-0.14889z" fill="#6ad7e5" fill-rule="evenodd"/>
  <path d="m0.10167 0.24686-0.0027886-7.7714e-4a0.088091 0.088091 0 0 1-0.071406-0.068571 0.095726 0.095726 0 0 1 0.044663-0.090469 0.096731 0.096731 0 0 1 0.10871 0.0037029l0.002743 0.0017829zm0.020526-0.16759a0.084663 0.084663 0 0 0-0.046171 0.013714 0.088366 0.088366 0 0 0-0.041463 0.083337 0.080229 0.080229 0 0 0 0.063451 0.062126l0.076114-0.14341a0.0992 0.0992 0 0 0-0.051931-0.01568z"/>
  <path d="m0.74213 0.08c0.11429-0.080366 0.21783 0.10098 0.084846 0.14661z" fill="#6ad7e5" fill-rule="evenodd"/>
  <path d="m0.82537 0.23095-0.088-0.152 0.002697-0.0018743a0.094446 0.094446 0 0 1 0.10491-0.0088228 0.097006 0.097006 0 0 1 0.047726 0.089829 0.085989 0.085989 0 0 1-0.064594 0.071909zm-0.078446-0.1499 0.081691 0.14112a0.078263 0.078263 0 0 0 0.05696-0.064823 0.089646 0.089646 0 0 0-0.044206-0.082926 0.084891 0.084891 0 0 0-0.094446 0.0066285z"/>
  <path d="m0.76677 1.1573c0.029074 0.017966 0.082286 0.072366 0.038583 0.098743-0.041874 0.038354-0.065326-0.042103-0.10213-0.053257a0.10171 0.10171 0 0 1 0.063543-0.045486z" fill="#f6d2a2" fill-rule="evenodd"/>
  <path d="m0.78327 1.27h-0.001737c-0.016503-0.00101-0.030217-0.017097-0.043474-0.032686a0.093303 0.093303 0 0 0-0.035886-0.030948l-0.004846-0.00146 0.003017-0.00411a0.10619 0.10619 0 0 1 0.065874-0.046903h0.001326l0.001143 6.857e-4c0.018606 0.01152 0.057006 0.045166 0.056823 0.075611a0.033371 0.033371 0 0 1-0.017966 0.029074 0.03616 0.03616 0 0 1-0.024274 0.010743zm-0.074286-0.068571a0.11451 0.11451 0 0 1 0.03456 0.031406c0.012846 0.015086 0.025006 0.029349 0.038446 0.030171a0.028617 0.028617 0 0 0 0.020891-0.00914l5.4858e-4 -4.114e-4a0.026423 0.026423 0 0 0 0.014811-0.023132c0-0.02432-0.03072-0.054857-0.052297-0.068571a0.093943 0.093943 0 0 0-0.05696 0.039451z"/>
  <path d="m0.80535 1.2597a0.0036114 0.0036114 0 0 1-0.0032-0.00197 0.13339 0.13339 0 0 1-0.005623-0.013714 0.05984 0.05984 0 0 0-0.013074-0.02368 0.0036114 0.0036114 0 0 1 0.004983-0.00517 0.066149 0.066149 0 0 1 0.014857 0.026377 0.12827 0.12827 0 0 0 0.005303 0.0128 0.0036114 0.0036114 0 0 1-0.0016 0.00485 0.0035657 0.0035657 0 0 1-0.001646 5.028e-4z"/>
  <path d="m0.2475 1.2188c-0.034103 0.00526-0.053303 0.036069-0.081737 0.051703-0.026789 0.016-0.037074-0.00512-0.039451-0.00942-0.004206-0.00192-0.00384 0.00178-0.010331-0.00457-0.025006-0.039406 0.025829-0.067977 0.052251-0.087543 0.0368-0.00745 0.059886 0.024457 0.079268 0.04983z" fill="#f6d2a2" fill-rule="evenodd"/>
  <path d="m0.14761 1.28a0.024457 0.024457 0 0 1-0.006446-8.229e-4 0.029577 0.029577 0 0 1-0.017371-0.015086h-8.2285e-4c-0.003017 0-0.005257-6.4e-4 -0.009737-0.00517l-5.0274e-4 -5.897e-4c-0.023909-0.03776 0.016777-0.066423 0.043749-0.085394 0.003383-0.00238 0.006583-0.00457 0.009463-0.00677l6.4e-4 -4.571e-4h7.7714e-4c0.037897-0.00768 0.061851 0.02368 0.081051 0.048868l0.00544 0.00709-0.005989 9.142e-4a0.10345 0.10345 0 0 0-0.050514 0.028983 0.18391 0.18391 0 0 1-0.030034 0.022309 0.039269 0.039269 0 0 1-0.019703 0.00613zm-0.024091-0.023132a0.0097371 0.0097371 0 0 1 0.004206 9.6e-4l0.001051 5.029e-4 9.1428e-4 0.0016a0.023269 0.023269 0 0 0 0.013349 0.012297 0.027429 0.027429 0 0 0 0.020846-0.00457 0.1787 0.1787 0 0 0 0.028937-0.021531 0.12018 0.12018 0 0 1 0.048274-0.02944c-0.018286-0.024046-0.039406-0.050011-0.071406-0.044023-0.002789 0.00201-0.005806 0.00416-0.009143 0.00635-0.027429 0.019383-0.061806 0.04352-0.042011 0.075337 0.002834 0.00283 0.00352 0.00279 0.004114 0.00279z"/>
  <path d="m0.12626 1.2647h-3.2e-4a0.0036114 0.0036114 0 0 1-0.003291-0.00389 0.054857 0.054857 0 0 1 0.011566-0.026149 0.084663 0.084663 0 0 0 0.007543-0.012617 0.0036114 0.0036114 0 0 1 0.006583 0.00293 0.091063 0.091063 0 0 1-0.008137 0.013714 0.048686 0.048686 0 0 0-0.010331 0.022857 0.0036114 0.0036114 0 0 1-0.003611 0.00315z"/>
 </g>
 <g fill-rule="evenodd">
  <path d="m0.10587 0.192c-0.019063-0.010103-0.033051-0.023771-0.021394-0.045714 0.010789-0.020434 0.030857-0.018286 0.04992-0.0081371z"/>
  <path d="m0.79685 0.17271c0.019063-0.010103 0.033051-0.023771 0.021394-0.045714-0.010789-0.020434-0.030857-0.018286-0.04992-0.008137z"/>
  <path d="m0.92814 0.68782c-0.001829 0.03776-0.039543 0.020297-0.05664 0.008503-0.016229-0.0112-0.020983-0.001874-0.0224-0.024a0.36279 0.36279 0 0 1-0.001783-0.043657 0.10706 0.10706 0 0 1 0.071314 0.018286c0.010377 0.007543 0.02976 0.031543 0.009509 0.041143" fill="#f6d2a2"/>
 </g>
 <g>
  <path d="m0.90853 0.71438a0.081737 0.081737 0 0 1-0.03904-0.015131 0.044571 0.044571 0 0 0-0.011931-0.005897c-0.008091-0.002834-0.011017-0.005211-0.012023-0.020846 0-0.003337-4.5714e-4 -0.006629-7.3143e-4 -0.009966a0.25947 0.25947 0 0 1-0.001051-0.034149v-0.003109l0.003109-2.7429e-4a0.10971 0.10971 0 0 1 0.073737 0.01888 0.045989 0.045989 0 0 1 0.019749 0.033234 0.016366 0.016366 0 0 1-0.009143 0.012937 0.024731 0.024731 0 0 1-0.012343 0.022034 0.024091 0.024091 0 0 1-0.010332 0.002286zm-0.057737-0.082286a0.28105 0.28105 0 0 0 0.001189 0.03008c2.7429e-4 0.003337 5.0286e-4 0.006674 7.3143e-4 0.010057 7.7714e-4 0.012297 0.001874 0.012663 0.007177 0.014537a0.05152 0.05152 0 0 1 0.013714 0.006766c0.013989 0.009691 0.032594 0.017234 0.04256 0.012297 0.005166-0.00256 8e-3 -0.008594 0.008457-0.018011v-0.002149l0.001966-9.1429e-4a0.010011 0.010011 0 0 0 0.00672-0.008091c8.2285e-4 -0.008686-0.009417-0.021303-0.016823-0.026697a0.10203 0.10203 0 0 0-0.065691-0.018011z"/>
  <path d="m0.92814 0.68782a0.029714 0.029714 0 0 1-0.01504-0.008457" fill="#c6b198" fill-rule="evenodd"/>
  <path d="m0.92814 0.69138a0.0035657 0.0035657 0 0 1-0.001234 0l-0.002331-8.2286e-4a0.028069 0.028069 0 0 1-0.014354-0.008823 0.0036114 0.0036114 0 1 1 0.00576-0.004297 0.021623 0.021623 0 0 0 0.011017 0.006354l0.002423 8.6857e-4a0.0036114 0.0036114 0 0 1-0.001234 0.006949z"/>
  <path d="m0.45591 0.0036114c0.14473 0 0.28041 0.020709 0.35113 0.15977 0.063497 0.15584 0.040914 0.32393 0.050606 0.48864 0.00832 0.14144 0.026743 0.30482-0.038857 0.43593-0.069029 0.13787-0.24151 0.17257-0.38363 0.1675-0.11163-0.0039771-0.24645-0.040411-0.30944-0.1424-0.07392-0.11963-0.038903-0.29755-0.033554-0.43067 0.0063543-0.15767-0.042697-0.31589 0.0091428-0.47017 0.05376-0.16 0.19867-0.19625 0.35465-0.20859" fill="#6ad7e5" fill-rule="evenodd"/>
  <path d="m0.45989 1.2594c-0.009143 0-0.017371 0-0.024823-4.571e-4 -0.068571-0.0024686-0.23662-0.02144-0.31237-0.14409-0.059749-0.096731-0.049097-0.23045-0.039726-0.34843 0.0023771-0.029669 0.0045714-0.057737 0.0056686-0.084251a1.3565 1.3565 0 0 0-0.0071772-0.16759 0.7413 0.7413 0 0 1 0.016457-0.30359 0.26569 0.26569 0 0 1 0.1408-0.16178 0.59191 0.59191 0 0 1 0.21691-0.049234h2.7428e-4c0.1413 0 0.28206 0.019611 0.35433 0.16174v2.7428e-4a0.93797 0.93797 0 0 1 0.047726 0.35483c2.2857e-4 0.044297 5.0286e-4 0.090148 0.003109 0.13495 7.7714e-4 0.013714 0.001691 0.027429 0.002606 0.041143 0.008411 0.12987 0.01792 0.27712-0.041829 0.39648-0.074469 0.14907-0.26245 0.17001-0.36197 0.17001zm-0.00384-1.2523c-0.15058 0.011931-0.29714 0.045166-0.35141 0.20613a0.736 0.736 0 0 0-0.016137 0.30071 1.3617 1.3617 0 0 1 0.00704 0.1685c-0.0010971 0.026697-0.0032914 0.054857-0.0056686 0.084571-0.0091429 0.11689-0.01984 0.24937 0.038674 0.34409 0.073966 0.11973 0.23899 0.13829 0.30651 0.14066 0.087863 0.00315 0.30075-0.00672 0.38025-0.16553 0.05888-0.11762 0.049417-0.26382 0.041143-0.39278-9.1429e-4 -0.013714-0.001783-0.027703-0.002606-0.041143-0.002651-0.044983-0.00288-0.090926-0.003109-0.13531a0.93294 0.93294 0 0 0-0.047131-0.352c-0.070354-0.13874-0.20864-0.15785-0.34757-0.1579z"/>
  <path d="m0.48146 0.1979c0.025966 0.15086 0.27291 0.11113 0.23744-0.041143-0.032-0.13659-0.24608-0.098789-0.23744 0.041143" fill="#fff" fill-rule="evenodd"/>
  <path d="m0.59877 0.29646a0.13829 0.13829 0 0 1-0.045166-0.007406 0.11173 0.11173 0 0 1-0.075566-0.090606v-3.6541e-4a0.12215 0.12215 0 0 1 0.11045-0.12864 0.11346 0.11346 0 0 1 0.13381 0.086446 0.10569 0.10569 0 0 1-0.030766 0.10711 0.14043 0.14043 0 0 1-0.092754 0.033463zm-0.11383-0.098971a0.10514 0.10514 0 0 0 0.070949 0.085029 0.13655 0.13655 0 0 0 0.13097-0.024686 0.098971 0.098971 0 0 0 0.028663-0.10057 0.10674 0.10674 0 0 0-0.12626-0.080914 0.11538 0.11538 0 0 0-0.10432 0.12114z"/>
  <path d="m0.18642 0.22231c0.033646 0.13152 0.24421 0.097691 0.23625-0.034057-0.0095086-0.15799-0.26848-0.1275-0.2363 0.034057" fill="#fff" fill-rule="evenodd"/>
  <path d="m0.29874 0.30907a0.12919 0.12919 0 0 1-0.061486-0.014903 0.10898 0.10898 0 0 1-0.054126-0.070994 0.11022 0.11022 0 0 1 0.03776-0.11301 0.14203 0.14203 0 0 1 0.14112-0.018011 0.10674 0.10674 0 0 1 0.064 0.096 0.11561 0.11561 0 0 1-0.10469 0.11927 0.14629 0.14629 0 0 1-0.022583 0.001646zm-0.10903-0.087497a0.10971 0.10971 0 0 0 0.13065 0.07904 0.10903 0.10903 0 0 0 0.098971-0.11218 0.10025 0.10025 0 0 0-0.060069-0.090331 0.13499 0.13499 0 0 0-0.13417 0.017097 0.10373 0.10373 0 0 0-0.035383 0.10638z"/>
  <path d="m0.51127 0.37915a0.34057 0.34057 0 0 1 7.3142e-4 0.062583c-0.005029 0.009463-0.014857 0.010469-0.023314 0.014309a0.034331 0.034331 0 0 1-0.026286-0.020526 0.44434 0.44434 0 0 1 0.001874-0.070811z" fill="#fff" fill-rule="evenodd"/>
  <path d="m0.48919 0.45975h-0.001051a0.037851 0.037851 0 0 1-0.029029-0.022857v-9.6e-4a0.23771 0.23771 0 0 1 4.1143e-4 -0.048594c5.9429e-4 -0.007451 0.001189-0.015131 0.001417-0.022857v-0.004571l0.053989 0.016549v0.002651c0 0.006491 5.4857e-4 0.013211 0.001097 0.020297a0.17125 0.17125 0 0 1-3.6571e-4 0.042926v5.4857e-4l-2.7429e-4 5.0285e-4a0.03008 0.03008 0 0 1-0.018926 0.013714c-0.002149 7.7714e-4 -0.00416 0.001463-0.006126 0.002377zm-0.023269-0.025189a0.030674 0.030674 0 0 0 0.022309 0.017737c0.001874-7.7715e-4 0.003794-0.001463 0.005623-0.002149a0.024 0.024 0 0 0 0.01472-0.009646 0.16837 0.16837 0 0 0 0-0.040549c-4.5714e-4 -0.006263-9.1428e-4 -0.012251-0.001051-0.018286l-0.04-0.012251c-3.2e-4 0.006217-7.7714e-4 0.012389-0.001234 0.018286a0.23086 0.23086 0 0 0-4.5714e-4 0.046857z"/>
  <ellipse cx=".24448" cy=".20087" rx=".035566" ry=".038491"/>
  <ellipse cx=".26066" cy=".20955" rx=".0083657" ry=".0097829" fill="#fff"/>
  <ellipse cx=".54235" cy=".19127" rx=".034971" ry=".038491"/>
  <ellipse cx=".55826" cy=".19995" rx=".0082286" ry=".0097829" fill="#fff"/>
  <path d="m0.40965 0.37701c-0.015497 0.037577 0.00864 0.11278 0.050743 0.057326a0.44434 0.44434 0 0 1 0.001874-0.070811z" fill="#fff" fill-rule="evenodd"/>
  <path d="m0.43227 0.45774a0.020617 0.020617 0 0 1-0.010331-0.002834 0.073143 0.073143 0 0 1-0.015589-0.079223l6.8571e-4 -0.001646 0.058789-0.015177v0.004571c-2.2857e-4 0.007771-8.6857e-4 0.015543-0.001463 0.022857a0.22857 0.22857 0 0 0-4.5714e-4 0.047131v0.001463l-8.6857e-4 0.001189c-0.012114 0.016503-0.022583 0.021669-0.030766 0.021668zm-0.019931-0.077714a0.066651 0.066651 0 0 0 0.013166 0.068571c0.01088 0.006217 0.022857-0.004571 0.031131-0.015314a0.24453 0.24453 0 0 1 5.9429e-4 -0.047131c4.5714e-4 -0.005897 9.1428e-4 -0.011931 0.001234-0.01792z"/>
  <path d="m0.41495 0.30459a0.045714 0.045714 0 0 0-0.037531 0.064c0.019886 0.036023 0.06432-0.0032 0.092023 5.0286e-4 0.032 6.4e-4 0.057966 0.033691 0.08352 0.005989 0.028434-0.030811-0.012251-0.060846-0.044069-0.07424z" fill="#f6d2a2" fill-rule="evenodd"/>
  <path d="m0.53019 0.38976a0.078949 0.078949 0 0 1-0.029303-0.008183 0.088137 0.088137 0 0 0-0.031497-0.008869h-4.115e-4a0.079954 0.079954 0 0 0-0.032549 0.006949c-0.022446 0.007771-0.047909 0.016549-0.062171-0.009143a0.043246 0.043246 0 0 1 6.4e-4 -0.04192 0.051109 0.051109 0 0 1 0.039726-0.027429l0.094948-0.004023 7.3143e-4 3.1999e-4c0.023634 0.009966 0.05056 0.028206 0.055177 0.049509a0.038217 0.038217 0 0 1-0.035291 0.042697zm-0.06048-0.024046a0.093989 0.093989 0 0 1 0.033966 0.009417c0.017966 0.007543 0.032 0.013486 0.046674-0.002286a0.026514 0.026514 0 0 0 0.008137-0.024137c-0.003977-0.018285-0.029348-0.035154-0.050286-0.044068l-0.093074 0.003703a0.04448 0.04448 0 0 0-0.03392 0.023634 0.036206 0.036206 0 0 0-6.8572e-4 0.035063c0.011337 0.020526 0.032 0.01344 0.053486 0.005943a0.084846 0.084846 0 0 1 0.035703-0.007269z" fill="#231f20"/>
  <path d="m0.41134 0.30309c-0.002149-0.050057 0.093348-0.056229 0.10478-0.0144 0.011429 0.041829-0.099931 0.051566-0.10464 0.014446z" fill-rule="evenodd"/>
 </g>
 <metadata>
  <rdf:RDF>
   <cc:Work rdf:about="">
    <dc:title>file_type_go</dc:title>
   </cc:Work>
  </rdf:RDF>
 </metadata>
</svg>
