<svg
  version="1.1"
  xmlns="http://www.w3.org/2000/svg"
  xmlns:xlink="http://www.w3.org/1999/xlink"
  x="0px"
  y="0px"
  width="28.5px"
  height="32px"
  viewBox="0 0 28.5 32"
  style="enable-background: new 0 0 28.5 32"
  xml:space="preserve"
>
  <path
    fill-rule="evenodd"
    clip-rule="evenodd"
    fill="#C84894"
    d="M17,3.7l6.6,3.8C23.7,7.3,24,7.1,24.2,7c1.4-0.8,3.1-0.3,3.9,1c0.8,1.4,0.3,3.1-1,3.9c-0.2,0.1-0.5,0.2-0.8,0.3
v7.6c0.3,0.1,0.5,0.2,0.8,0.3c1.4,0.8,1.8,2.5,1,3.9c-0.8,1.4-2.5,1.8-3.9,1c-0.3-0.2-0.5-0.3-0.7-0.6l-6.5,3.8
c0.1,0.3,0.1,0.6,0.1,0.9c0,1.6-1.3,2.9-2.9,2.9c-1.6,0-2.9-1.3-2.9-2.9c0-0.3,0-0.6,0.1-0.8l-6.6-3.8c-0.2,0.2-0.4,0.4-0.6,0.5
c-1.4,0.8-3.1,0.3-3.9-1c-0.8-1.4-0.3-3.1,1-3.9c0.2-0.1,0.5-0.2,0.8-0.3v-7.6c-0.3-0.1-0.5-0.2-0.8-0.3c-1.4-0.8-1.8-2.5-1-3.9
s2.5-1.8,3.9-1c0.2,0.1,0.5,0.3,0.6,0.5l6.6-3.8c-0.1-0.3-0.1-0.5-0.1-0.8c0-1.6,1.3-2.9,2.9-2.9s2.9,1.3,2.9,2.9
C17.1,3.1,17.1,3.4,17,3.7z M16.3,4.8l6.6,3.8c-0.2,0.7-0.1,1.5,0.3,2.2c0.4,0.7,1.1,1.2,1.8,1.3v7.6c0,0-0.1,0-0.1,0L16.3,4.8
C16.2,4.9,16.3,4.9,16.3,4.8L16.3,4.8z M12.3,4.9L3.7,19.8c0,0-0.1,0-0.1,0v-7.6c0.7-0.2,1.4-0.6,1.8-1.3c0.4-0.7,0.5-1.5,0.3-2.2
L12.3,4.9C12.2,4.9,12.2,4.9,12.3,4.9L12.3,4.9z M15,5.6l8.6,14.9c-0.2,0.2-0.4,0.4-0.5,0.6c-0.1,0.2-0.2,0.5-0.3,0.8H5.6
c-0.1-0.3-0.2-0.5-0.3-0.8c-0.1-0.2-0.3-0.4-0.5-0.6l8.6-14.9c0.3,0.1,0.5,0.1,0.8,0.1C14.5,5.7,14.8,5.7,15,5.6z M16.3,27.2
l6.6-3.8c0-0.1,0-0.1-0.1-0.2H5.6c0,0,0,0.1,0,0.1l6.6,3.8c0.5-0.6,1.3-0.9,2.1-0.9C15,26.3,15.8,26.6,16.3,27.2z"
  />
</svg>
