<svg
  version="1.1"
  xmlns="http://www.w3.org/2000/svg"
  xmlns:xlink="http://www.w3.org/1999/xlink"
  x="0px"
  y="0px"
  width="28.8px"
  height="32px"
  viewBox="0 0 28.8 32"
  style="enable-background: new 0 0 28.8 32"
  xml:space="preserve"
>
  <path
    fill="#412884"
    d="M25.9,0c1.6,0,2.9,1.3,2.9,2.8l0,0v26.2c0,1.6-1.3,2.9-2.8,2.9l0,0h-23C1.3,32,0,30.7,0,29.2l0,0V2.9 C0,1.3,1.3,0,2.8,0l0,0C2.9,0,25.9,0,25.9,0z M25.9,1.6h-23c-0.7,0-1.3,0.6-1.3,1.2l0,0v26.2c0,0.7,0.6,1.3,1.2,1.3l0,0h23 c0.7,0,1.3-0.6,1.3-1.2l0,0V2.9C27.2,2.2,26.6,1.6,25.9,1.6z M7.2,20.8l3.6,3.2l-3.6,3.2V20.8L7.2,20.8z M10.4,4.8v9.1 c1.6-0.5,3.8-1.1,6-1.1c2,0,3.2,0.8,3.8,1.4c1.4,1.4,1.4,3.1,1.4,3.4v0l0,9.6h-3.2v-9.6c0-0.7-0.4-1.6-2-1.6c-3.2,0-6.8,1.6-6.9,1.7 l0,0l-2.3,1V4.8L10.4,4.8L10.4,4.8z M21.6,4.8c-0.2,1.8-1,3.6-2.4,5.2H16c1.3-1.7,2-3.4,2.4-5.2H21.6z"
  />
</svg>
