<svg
  width="83"
  height="100"
  viewBox="0 0 83 100"
  fill="none"
  xmlns="http://www.w3.org/2000/svg"
>
  <path d="M40.8965 20.3153C40.9009 19.235 41.1471 18.1692 41.6171 17.1954C41.9692 16.2496 42.5896 15.4258 43.4027 14.8243C44.1167 14.2625 44.999 13.9549 45.9089 13.9507C46.7833 13.9335 47.6363 14.2203 48.3212 14.7619C49.1618 15.3444 49.8147 16.1572 50.2008 17.1018C50.6704 18.0745 50.9064 19.1426 50.89 20.2217C50.8873 21.2989 50.6523 22.3629 50.2008 23.3416C49.9821 23.8802 49.6867 24.3845 49.3237 24.8392H48.9477L47.7573 24.34L46.9741 24.0592C47.2866 23.7851 47.5605 23.4702 47.7886 23.1233C48.0063 22.5667 48.1127 21.9732 48.1019 21.3761C48.1592 20.8127 48.073 20.244 47.8513 19.7226C47.6988 19.2074 47.393 18.7505 46.9741 18.4122C46.8323 18.2543 46.6584 18.1281 46.464 18.0421C46.2696 17.956 46.059 17.912 45.8463 17.913C45.65 17.901 45.4534 17.931 45.2696 18.001C45.0859 18.0709 44.9194 18.1792 44.7812 18.3186C44.3835 18.6504 44.0809 19.0809 43.904 19.5666C43.6574 20.1164 43.5293 20.7116 43.528 21.3137C43.4653 21.6436 43.4653 21.9822 43.528 22.3121C42.7061 21.9291 41.8447 21.6362 40.9592 21.4385V20.3153H40.8965Z" fill="white"/>
  <path d="M72.5501 90.95H72.5461C73.0213 90.5983 73.5061 90.2599 74 89.9351V89.9468C73.5077 90.268 73.0243 90.6025 72.5501 90.95Z" fill="white"/>
  <path d="M30.4645 17.8194C30.179 18.716 30.0622 19.6573 30.1199 20.5961L30.0259 20.5025C30.1102 21.4379 30.3429 22.354 30.7151 23.2168C30.9621 23.8724 31.3466 24.468 31.8429 24.964L32.4068 24.5584L33.1273 23.9656C32.8153 23.6782 32.5695 23.327 32.4068 22.9361C32.2397 22.4949 32.1343 22.033 32.0935 21.5633C32.0309 21.0765 32.0309 20.5837 32.0935 20.0969C32.1841 19.6932 32.3545 19.3114 32.5947 18.9738C32.6822 18.8454 32.7985 18.739 32.9345 18.6632C33.0704 18.5874 33.2223 18.5442 33.3779 18.537C33.6644 18.5337 33.9425 18.6334 34.1611 18.8178C34.4464 19.0609 34.6806 19.3578 34.8503 19.6914C35.0463 20.1233 35.1529 20.5902 35.1636 21.0641C35.228 21.4253 35.228 21.7949 35.1636 22.1561C35.67 21.8182 36.2173 21.5456 36.7926 21.3449H37.1686C37.2313 20.9522 37.2313 20.5521 37.1686 20.1593C37.1472 19.2115 36.9341 18.2777 36.542 17.4138C36.2526 16.6647 35.7655 16.0072 35.1323 15.5107C34.6607 15.0811 34.0482 14.8371 33.4092 14.8243C32.7375 14.8943 32.1141 15.2047 31.6549 15.6979C31.0886 16.2966 30.6797 17.0254 30.4645 17.8194Z" fill="white"/>
  <path d="M30.1278 85.0475C30.5395 85.602 30.9493 86.1539 31.3103 86.7381C34.7192 88.8132 38.6885 89.7889 42.6754 89.5321C46.6623 89.2752 50.4722 87.7982 53.5842 85.303C54.2025 83.4647 54.6534 81.5747 54.9313 79.6559C54.9615 77.035 55.2447 74.423 55.7771 71.8561C55.97 70.8472 56.3809 69.8921 56.9813 69.057C57.5818 68.222 58.3575 67.527 59.2545 67.0203L60.1317 66.5835V66.0531C60.6956 62.6524 63.9223 62.5276 67.5876 64.1812C71.253 65.8347 72.6627 67.3011 72.0361 69.2666H72.6627C73.4772 66.7707 71.7229 64.93 67.5563 62.8396L66.6791 62.4652C67.2431 60.1907 67.2431 57.8136 66.6791 55.539C65.6266 51.0579 63.2989 46.9741 59.975 43.777C59.5051 43.777 59.5051 44.1514 60.5703 45.2434C62.7657 47.3485 64.3518 50.0032 65.1621 52.9291C65.9724 55.855 65.977 58.9442 65.1754 61.8725C64.4686 61.6972 63.7421 61.6134 63.0138 61.6229C62.1156 57.2566 60.5631 53.0497 58.4087 49.1432C55.2375 43.2393 52.6764 37.0301 50.7647 30.611C49.7064 31.9866 48.2534 33.0093 46.5982 33.5437C45.5066 34.0377 44.4587 34.6221 43.4654 35.2909C42.212 36.063 40.7724 36.4834 39.2988 36.5076H38.7976C37.4643 36.4497 36.1873 35.9563 35.1636 35.1037C34.389 34.3785 33.5618 33.7111 32.6887 33.1069C32.2673 32.8584 31.8594 32.5876 31.4669 32.2958C31.124 38.3899 27.5829 45.9446 25.0512 51.3457C24.5761 52.3593 24.1366 53.2971 23.7604 54.1351C22.1251 57.9294 21.2014 61.9898 21.0349 66.1155C16.7743 60.4685 19.9071 53.6359 21.5988 50.0792C23.2904 46.5225 23.729 45.5866 23.2904 45.8985C20.9127 49.4147 19.1246 53.2923 17.9961 57.3798C17.4013 59.6294 17.4013 61.994 17.9961 64.2436C18.8485 66.7116 20.5748 68.7857 22.8519 70.0778C25.7058 71.677 28.2345 73.7933 30.3078 76.3176C30.9203 76.9564 31.3728 77.7301 31.6286 78.5757C31.8844 79.4214 31.9364 80.3153 31.7802 81.1847C31.6609 81.4925 31.4799 81.7729 31.2483 82.0089C31.0167 82.2449 30.7394 82.4315 30.4331 82.5574C29.8367 82.8367 29.1804 82.9653 28.5221 82.9318L29.6499 84.3982C29.807 84.6155 29.9665 84.8304 30.1258 85.0448L30.1272 85.0466L30.1278 85.0475Z" fill="white"/>
  <path d="M81.8086 84.375V84.5625C81.8086 85.5625 80.9003 86.2813 79.5535 87.0625C75.7394 88.6122 72.2616 90.883 69.3116 93.75C67.2497 96.4025 64.2656 98.1867 60.9489 98.75C59.5543 98.9413 58.1352 98.6723 56.9081 97.984C55.681 97.2956 54.7132 96.2258 54.1523 94.9375C53.8373 93.9249 53.6686 92.8726 53.6512 91.8125C53.6495 90.4947 53.9048 89.1892 54.4029 87.9688C55.3069 85.3366 55.9674 82.6274 56.3761 79.875C56.4374 77.3241 56.7203 74.7833 57.2218 72.2812C57.343 71.4392 57.6433 70.6327 58.1025 69.9159C58.5616 69.1991 59.169 68.5885 59.884 68.125H60.1033C60.044 69.3437 60.3645 70.5508 61.0207 71.5804C61.6768 72.61 62.6365 73.4116 63.7678 73.875C65.1755 73.9501 66.582 73.7082 67.8832 73.1672C69.1845 72.6263 70.347 71.8001 71.2848 70.75H72.0365C72.6681 70.6697 73.3096 70.7227 73.9193 70.9058C74.5291 71.0888 75.0934 71.3977 75.5757 71.8125C76.5055 72.8203 77.0777 74.1049 77.2044 75.4688C77.4851 77.0574 78.1399 78.5569 79.115 79.8438C80.5056 81.0025 81.4563 82.6018 81.8086 84.375Z" fill="#F1A801"/>
  <path d="M79.9921 78.8438C79.2332 77.6844 78.7411 76.3717 78.5513 75C78.359 73.4078 77.643 71.9241 76.5154 70.7812L75.7324 70.1875C75.4765 70.0313 75.2032 69.9054 74.9181 69.8125C76.5542 64.6828 76.2874 59.1372 74.1664 54.1875C72.0096 48.8531 68.9358 43.9355 65.0834 39.6562C61.2652 35.9186 58.9482 30.9172 58.5686 25.5937C58.6626 16.6562 59.5083 0 43.8479 0H41.7807C23.9279 1.40625 28.626 20.0625 28.3754 26.3125C28.1927 30.8267 26.6541 35.1818 23.9592 38.8125C19.1038 44.3541 15.2561 50.6995 12.5898 57.5625C11.3699 60.8876 10.9619 64.4549 11.3996 67.9688C11.2277 68.1089 11.0703 68.266 10.9298 68.4375C9.83355 69.5625 9.05053 70.9688 8.14223 71.9375C7.17153 72.7139 6.03603 73.259 4.82223 73.5312C3.29759 73.9753 1.99894 74.9806 1.18902 76.3438C0.810527 77.0992 0.627486 77.9372 0.656568 78.7812C0.656568 79.5312 0.656568 80.3125 0.656568 81.0625C0.968241 82.4305 0.968241 83.8508 0.656568 85.2188C0.223562 86.2039 0 87.268 0 88.3438C0 89.4195 0.223562 90.4836 0.656568 91.4688C1.09069 92.1401 1.67098 92.7051 2.35425 93.1217C3.03752 93.5383 3.80617 93.7958 4.60298 93.875C8.56538 94.1332 12.4691 94.9648 16.1917 96.3438L16.5362 95.625L16.2543 96.2188C19.5656 98.1019 23.4197 98.8071 27.1852 98.2188C28.2797 98.0015 29.3082 97.5324 30.1891 96.8489C31.0699 96.1653 31.7788 95.2861 32.2592 94.2812C34.7022 94.2812 37.3958 93.2188 41.6554 93C44.5683 92.75 48.2328 94.0312 52.4298 93.7812C52.5555 94.2334 52.7233 94.6728 52.9309 95.0938C53.5806 96.5941 54.6856 97.8533 56.0903 98.6942C57.4949 99.5351 59.1285 99.9153 60.7611 99.7812C62.6119 99.5469 64.3968 98.945 66.0106 98.0111C67.6244 97.0772 69.0344 95.8302 70.1573 94.3438C73.0921 91.6886 76.4747 89.5727 80.1487 88.0938C80.8592 87.7577 81.4779 87.2555 81.9523 86.6299C82.4266 86.0042 82.7427 85.2736 82.8736 84.5C82.6416 82.3256 81.6159 80.3123 79.9921 78.8438ZM40.9037 20.25C40.9081 19.1679 41.1542 18.1003 41.6241 17.125C41.9762 16.1776 42.5964 15.3525 43.4094 14.75C44.1232 14.1872 45.0053 13.8792 45.9151 13.875C46.7892 13.8577 47.642 14.145 48.3268 14.6875C49.1672 15.271 49.82 16.0851 50.206 17.0312C50.6755 18.0055 50.9114 19.0754 50.8951 20.1562C50.8924 21.2351 50.6574 22.3009 50.206 23.2812C49.9873 23.8206 49.692 24.3258 49.329 24.7812H48.9532L47.763 24.2812L46.98 24C47.2924 23.7254 47.5663 23.4101 47.7943 23.0625C48.0119 22.5051 48.1183 21.9106 48.1075 21.3125C48.1648 20.7482 48.0786 20.1786 47.8569 19.6562C47.7046 19.1402 47.3988 18.6826 46.98 18.3438C46.8382 18.1856 46.6643 18.0592 46.47 17.973C46.2756 17.8868 46.0651 17.8428 45.8524 17.8438C45.6561 17.8317 45.4596 17.8618 45.2759 17.9319C45.0922 18.0019 44.9257 18.1104 44.7875 18.25C44.3899 18.5823 44.0874 19.0135 43.9105 19.5C43.664 20.0507 43.5359 20.6469 43.5347 21.25C43.472 21.5804 43.472 21.9196 43.5347 22.25C42.7129 21.8664 41.8517 21.573 40.9664 21.375V20.25H40.9037ZM30.1294 20.5312C30.0718 19.5909 30.1886 18.648 30.4739 17.75C30.6891 16.9547 31.098 16.2247 31.6641 15.625C32.1233 15.131 32.7465 14.8201 33.4181 14.75C34.0569 14.7628 34.6692 15.0072 35.1407 15.4375C35.7738 15.9348 36.2608 16.5934 36.5502 17.3438C36.9421 18.2091 37.1552 19.1444 37.1766 20.0938C37.2393 20.4871 37.2393 20.8879 37.1766 21.2812H36.8007C36.2256 21.4823 35.6783 21.7553 35.172 22.0938C35.2365 21.732 35.2365 21.3617 35.172 21C35.1613 20.5253 35.0548 20.0577 34.8588 19.625C34.6891 19.2909 34.455 18.9935 34.1698 18.75C33.9512 18.5653 33.6732 18.4654 33.3868 18.4688C33.2311 18.4759 33.0793 18.5192 32.9434 18.5952C32.8075 18.6711 32.6912 18.7776 32.6037 18.9062C32.3636 19.2444 32.1932 19.6268 32.1026 20.0312C32.04 20.5188 32.04 21.0124 32.1026 21.5C32.1434 21.9705 32.2488 22.4331 32.4158 22.875C32.5785 23.2666 32.8243 23.6184 33.1362 23.9062L32.4158 24.5L31.852 24.9062C31.3559 24.4094 30.9715 23.8129 30.7245 23.1562C30.3524 22.292 30.1198 21.3744 30.0354 20.4375L30.1294 20.5312ZM30.9124 26.7812L32.9169 25.2812L33.6686 24.75C34.6555 23.6953 35.8497 22.855 37.1766 22.2812C37.808 22.0405 38.4744 21.9033 39.1498 21.875C40.9812 21.9751 42.7487 22.581 44.2551 23.625C45.6703 24.3671 47.1481 24.984 48.6713 25.4687C49.501 25.7584 50.2077 26.3202 50.6758 27.0625C50.8143 27.3668 50.8859 27.6971 50.8859 28.0312C50.8859 28.3654 50.8143 28.6957 50.6758 29C50.2459 29.8736 49.6266 30.6409 48.8628 31.2462C48.099 31.8516 47.2098 32.2798 46.2596 32.5C45.1628 33.0207 44.1147 33.6377 43.1275 34.3438C41.8825 35.1219 40.4295 35.5033 38.9618 35.4375C38.3124 35.4186 37.6734 35.2698 37.0826 35C36.5897 34.8094 36.1339 34.5345 35.7358 34.1875C34.9558 33.414 34.1066 32.7132 33.1988 32.0938C32.5359 31.7879 31.9401 31.3544 31.4455 30.8181C30.951 30.2818 30.5676 29.6533 30.3173 28.9688C30.1541 28.5707 30.1239 28.1307 30.2311 27.7142C30.3383 27.2976 30.5772 26.9266 30.9124 26.6562V26.7812ZM31.6015 91.9688C31.5747 93.2838 31.0869 94.5479 30.2229 95.5413C29.3588 96.5347 28.1732 97.1946 26.872 97.4062C23.4076 97.9154 19.8726 97.2321 16.8494 95.4688C13.0192 94.0033 8.98153 93.1491 4.88487 92.9375C4.26819 92.8987 3.66769 92.7246 3.12627 92.4274C2.58485 92.1303 2.11586 91.7176 1.75279 91.2188C1.50047 90.3411 1.42591 89.422 1.53347 88.5152C1.64102 87.6085 1.92853 86.7322 2.37921 85.9375C2.71873 84.3934 2.71873 82.7941 2.37921 81.25C1.97163 79.9797 1.97163 78.6141 2.37921 77.3438C2.66983 76.7747 3.07618 76.2723 3.57233 75.8688C4.06847 75.4652 4.64351 75.1693 5.26072 75C6.68127 74.7138 8.00001 74.0559 9.08185 73.0938C10.1781 71.9688 10.9611 70.5625 11.9007 69.5625C12.2296 69.1442 12.6474 68.8038 13.124 68.5661C13.6006 68.3283 14.1242 68.199 14.6569 68.1875H15.346C17.0997 68.6436 18.6056 69.7649 19.543 71.3125L23.3328 78.25C24.7927 80.6776 26.47 82.9682 28.3441 85.0938C30.084 86.9024 31.1838 89.2288 31.4762 91.7188L31.6015 91.9688ZM31.3196 86.7812C30.8185 85.9688 30.2234 85.2188 29.6596 84.4375L28.532 82.9688C29.1901 83.0023 29.8463 82.8735 30.4426 82.5938C30.7488 82.4676 31.0261 82.2807 31.2576 82.0443C31.4891 81.808 31.6701 81.5271 31.7894 81.2188C31.9455 80.3479 31.8936 79.4526 31.6378 78.6056C31.382 77.7585 30.9296 76.9836 30.3173 76.3438C28.2445 73.8153 25.7163 71.6956 22.863 70.0938C20.5864 68.7996 18.8605 66.7221 18.0083 64.25C17.4136 61.9967 17.4136 59.6283 18.0083 57.375C19.1366 53.2809 20.9243 49.3969 23.3015 45.875C23.74 45.5625 23.3015 46.5 21.6102 50.0625C19.9188 53.625 16.7868 60.4688 21.0464 66.125C21.2129 61.9926 22.1364 57.9255 23.7713 54.125C26.1517 48.8125 31.069 39.5 31.4762 32.25C31.8686 32.5423 32.2764 32.8135 32.6977 33.0625C33.5706 33.6676 34.3976 34.3361 35.172 35.0625C36.1955 35.9165 37.4723 36.4107 38.8052 36.4688H39.3064C40.7796 36.4445 42.219 36.0234 43.472 35.25C44.4651 34.5801 45.5128 33.9947 46.6041 33.5C48.259 32.9647 49.7117 31.9403 50.7698 30.5625C52.6811 36.9921 55.2416 43.2115 58.412 49.125C60.5661 53.0379 62.1181 57.2516 63.0162 61.625C63.7443 61.6155 64.4707 61.6995 65.1773 61.875C65.9787 58.9419 65.9741 55.8477 65.164 52.9171C64.3539 49.9864 62.7682 47.3273 60.5732 45.2188C59.5083 44.125 59.5083 43.75 59.9781 43.75C63.3012 46.9523 65.6284 51.0428 66.6807 55.5312C67.2446 57.8095 67.2446 60.1905 66.6807 62.4688L67.5577 62.8438C71.7234 64.9375 73.4773 66.7812 72.663 69.2812H72.0366C72.663 67.3125 71.2536 65.8437 67.589 64.1875C63.9245 62.5313 60.6985 62.6562 60.1347 66.0625V66.5938L59.2577 67.0312C58.3609 67.5388 57.5854 68.2349 56.9851 69.0713C56.3847 69.9077 55.9739 70.8644 55.7811 71.875C55.2488 74.4461 54.9656 77.0623 54.9354 79.6875C54.6576 81.6094 54.2068 83.5025 53.5886 85.3438C50.4773 87.843 46.6682 89.3224 42.6822 89.5797C38.6962 89.837 34.7278 88.8597 31.3196 86.7812ZM79.6162 87.0625C75.7745 88.6127 72.266 90.8828 69.2803 93.75C67.2365 96.4075 64.2596 98.194 60.9489 98.75C59.5509 98.9745 58.118 98.7198 56.8837 98.0274C55.6494 97.3351 54.6866 96.2459 54.1523 94.9375C53.4023 92.627 53.491 90.1268 54.403 87.875C55.298 85.2616 55.9583 82.5739 56.3762 79.8438C56.4393 77.3033 56.7221 74.7731 57.2218 72.2812C57.3557 71.439 57.6611 70.6329 58.1189 69.9128C58.5768 69.1926 59.1775 68.5736 59.8841 68.0938H60.1034C60.0394 69.3133 60.358 70.5224 61.0148 71.553C61.6715 72.5835 62.6339 73.3842 63.7679 73.8438C65.1779 73.94 66.591 73.7078 67.8956 73.1654C69.2002 72.6231 70.3605 71.7855 71.2849 70.7188H72.0366C72.666 70.6322 73.3067 70.6793 73.9166 70.857C74.5266 71.0348 75.092 71.3391 75.5758 71.75C76.4841 72.784 77.0525 74.071 77.2045 75.4375C77.4974 77.0225 78.1511 78.5192 79.1151 79.8125C81.1822 82.0625 81.84 83.5938 81.746 84.5938C81.652 85.5938 80.9003 86.2813 79.5535 87.0625L79.6162 87.0625ZM31.6641 29.1562C31.0064 28.625 31.1003 27.875 31.3509 27.875C31.6015 27.875 31.9147 28.5625 32.2279 28.8125C32.6907 29.3108 33.1935 29.7707 33.7313 30.1875C35.0836 31.374 36.8166 32.039 38.6173 32.0625C40.6921 31.8725 42.6903 31.1864 44.443 30.0625C45.3897 29.495 46.2998 28.8688 47.1679 28.1875C47.8256 27.6875 47.7943 27.125 48.3268 27.1875C48.8592 27.25 48.3268 27.8125 47.7003 28.5C46.812 29.2646 45.8463 29.9349 44.8188 30.5C42.9294 31.6942 40.7821 32.4226 38.5547 32.625C36.5637 32.5357 34.6677 31.7503 33.1988 30.4062C32.729 30.0312 32.1966 29.5938 31.6641 29.1562Z" fill="black"/>
  <path d="M31.6013 91.875C31.5674 93.1846 31.0763 94.4413 30.2129 95.4283C29.3495 96.4153 28.1679 97.0706 26.8719 97.2812C23.4071 97.8058 19.867 97.1215 16.8493 95.3438C13.0146 93.8935 8.97933 93.0398 4.88474 92.8125C4.26869 92.7862 3.66666 92.6206 3.12409 92.3283C2.58153 92.036 2.11259 91.6245 1.75267 91.125C1.27591 89.3805 1.5008 87.5191 2.37921 85.9375C2.55712 85.1692 2.64112 84.3822 2.62965 83.5938C2.64112 82.8053 2.55712 82.0183 2.37921 81.25C1.97119 79.9691 1.97106 78.5934 2.37908 77.3125C2.6877 76.7736 3.10187 76.3023 3.59692 75.9264C4.09196 75.5506 4.65776 75.2781 5.26059 75.125C6.67851 74.8133 7.99354 74.1465 9.08172 73.1875C10.1779 72.0625 10.961 70.6562 11.9006 69.6562C12.2295 69.2379 12.6473 68.8976 13.1239 68.6598C13.6005 68.422 14.1241 68.2927 14.6568 68.2812H15.3459C17.0938 68.7493 18.5957 69.8676 19.5429 71.4062L23.3327 78.375C24.8003 80.7876 26.4772 83.0672 28.344 85.1875C30.0839 86.9962 31.1837 89.3226 31.4761 91.8125L31.6013 91.875Z" fill="#F1A801"/>
  <path d="M50.6757 27C50.2153 26.2508 49.5058 25.6867 48.6711 25.4062C47.1508 24.9265 45.6735 24.3202 44.2549 23.5937C42.7521 22.5471 40.9809 21.9508 39.1498 21.875C38.4895 21.8692 37.8328 21.9749 37.2077 22.1875C35.872 22.7453 34.6747 23.5879 33.6998 24.6562L32.9481 25.1875L30.9436 26.6875C30.5686 26.9408 30.2924 27.3151 30.1612 27.7475C30.03 28.18 30.0519 28.6443 30.2232 29.0625C30.4673 29.7505 30.8484 30.382 31.3436 30.9191C31.8388 31.4562 32.4379 31.8876 33.1047 32.1875C34.0125 32.8069 34.8617 33.5078 35.6417 34.2812C36.5123 35.0421 37.6174 35.4832 38.7738 35.5312C40.2814 35.6132 41.7752 35.2077 43.0334 34.375C44.0213 33.6791 45.0695 33.0725 46.1655 32.5625C47.1114 32.3323 47.9961 31.9003 48.7585 31.296C49.521 30.6918 50.143 29.9298 50.5817 29.0625C50.7498 28.7472 50.8454 28.3986 50.8617 28.0418C50.8779 27.6851 50.8144 27.3292 50.6757 27ZM47.7003 28.5C46.82 29.2749 45.8531 29.946 44.8188 30.5C42.9315 31.6986 40.7832 32.4274 38.5547 32.625C36.5607 32.5492 34.6602 31.7619 33.1988 30.4062C32.6484 30.0263 32.125 29.6086 31.6327 29.1562C30.9436 28.625 31.0376 27.875 31.2881 27.875C31.5387 27.875 31.8832 28.5937 32.1651 28.8437C32.447 29.0937 33.136 29.7812 33.6685 30.2187C35.0385 31.3758 36.7605 32.0366 38.5545 32.0938C40.6262 31.8897 42.6213 31.2047 44.3802 30.0937C45.3248 29.523 46.2347 28.8969 47.1051 28.2187C47.7628 27.7187 47.7315 27.125 48.264 27.2187C48.7964 27.3125 48.3268 27.8438 47.7003 28.5Z" fill="#F1A801"/>
</svg>
