<svg
  width="32mm"
  height="31.964878mm"
  viewBox="0 0 32 31.964878"
  version="1.1"
  id="svg1"
  xml:space="preserve"
  xmlns="http://www.w3.org/2000/svg"
  xmlns:svg="http://www.w3.org/2000/svg"
>
  <defs id="defs1" />
  <g id="layer1" transform="translate(-85.918665,-118.64562)">
    <g id="g11" transform="matrix(0.75985557,0,0,0.75985557,18.449801,34.827221)" style="stroke-width: 1.31604">
      <path
        style="fill: #a9d9d3; stroke-width: 1.31604"
        d="m 109.60909,152.32854 c -0.25866,-0.10622 -2.96185,-1.98752 -3.231,-2.24863 -0.20144,-0.19543 -0.21273,-0.25845 -0.23892,-1.33369 l -0.0275,-1.12856 -0.69141,-0.18683 c -1.31107,-0.35428 -3.45454,-1.29112 -4.29894,-1.87892 -0.12347,-0.0859 -0.28403,-0.15628 -0.35681,-0.15628 -0.0728,0 -0.69487,0.39328 -1.38244,0.87395 -1.523021,1.06472 -1.588942,1.10079 -1.898652,1.03885 -0.265801,-0.0532 -3.042341,-1.946 -3.377794,-2.30272 -0.19765,-0.21019 -0.203122,-0.25597 -0.229665,-1.92137 -0.017,-1.06693 0.0074,-1.82266 0.06506,-2.01732 0.07452,-0.25144 0.221964,-0.40215 0.767229,-0.78423 0.371238,-0.26013 0.674978,-0.50886 0.674978,-0.55273 0,-0.0439 -0.130719,-0.31894 -0.290488,-0.61127 -0.388773,-0.71134 -1.003443,-2.23457 -1.238348,-3.06878 -0.104789,-0.37213 -0.212927,-0.70337 -0.240307,-0.73608 -0.02738,-0.0327 -0.217137,0.0529 -0.421683,0.19029 -0.392628,0.2637 -0.744277,0.31439 -1.049102,0.15126 -0.101244,-0.0542 -0.858476,-0.56922 -1.682738,-1.14452 -1.342781,-0.93721 -1.50774,-1.07871 -1.585979,-1.36042 -0.12209,-0.4396 -0.10479,-3.28305 0.02223,-3.65372 0.08522,-0.2487 0.3513,-0.46936 1.707886,-1.41637 1.820627,-1.27095 1.922172,-1.30524 2.577547,-0.87046 0.208218,0.13813 0.401763,0.2236 0.4301,0.18993 0.02834,-0.0337 0.137258,-0.36569 0.242047,-0.73782 0.234905,-0.83421 0.849575,-2.35744 1.238348,-3.06878 0.159769,-0.29233 0.289583,-0.57778 0.288476,-0.63432 -0.0011,-0.0566 -0.24628,-0.26927 -0.544829,-0.47272 -0.985957,-0.67189 -0.929372,-0.52167 -0.959054,-2.5461 -0.02013,-1.37321 4.98e-4,-1.82339 0.09369,-2.04434 0.09348,-0.22164 0.449094,-0.51187 1.632759,-1.33259 0.832285,-0.57708 1.617908,-1.08971 1.745829,-1.13917 0.333809,-0.12907 0.5156,-0.0383 1.9848,0.99084 0.70788,0.49586 1.33953,0.90156 1.40366,0.90156 0.0641,0 0.43644,-0.19048 0.82734,-0.4233 0.90225,-0.53734 2.4806,-1.20655 3.64349,-1.54479 l 0.90293,-0.26263 0.0274,-1.12452 c 0.0274,-1.1229 0.0278,-1.12486 0.28113,-1.37251 0.30342,-0.29658 2.75939,-2.0055 3.15045,-2.19217 0.25035,-0.1195 0.3011,-0.11869 0.56886,0.009 0.46386,0.2212 2.84831,1.90137 3.15247,2.22134 l 0.27487,0.28916 v 1.05345 c 0,0.5794 0.0357,1.07548 0.0792,1.1024 0.0436,0.0269 0.45687,0.16115 0.91847,0.29828 1.12171,0.33323 2.68891,1.00346 3.56126,1.523 0.39091,0.23282 0.76088,0.4233 0.82217,0.4233 0.0613,0 0.74569,-0.43768 1.5209,-0.97262 0.85031,-0.58676 1.491,-0.97263 1.61495,-0.97263 0.28087,0 0.36845,0.0524 2.059,1.23216 0.92554,0.64589 1.52234,1.11968 1.58579,1.25893 0.14006,0.30739 0.14096,3.5889 10e-4,3.89592 -0.0554,0.12151 -0.3979,0.43039 -0.76118,0.68641 -0.36329,0.25601 -0.66052,0.50425 -0.66052,0.55163 0,0.0474 0.13057,0.32069 0.29016,0.60735 0.3828,0.68761 1.00063,2.21312 1.23867,3.05847 0.10479,0.37213 0.21371,0.70415 0.24205,0.73782 0.0283,0.0337 0.22188,-0.0518 0.4301,-0.18993 0.65599,-0.43519 0.762,-0.39987 2.55852,0.85228 1.01055,0.70435 1.63002,1.19283 1.71079,1.34902 0.1003,0.19396 0.12662,0.60348 0.12662,1.97034 0,1.65211 -0.008,1.73712 -0.1903,1.99858 -0.10466,0.15019 -0.87472,0.74574 -1.71125,1.32343 -1.73884,1.20082 -1.86567,1.2409 -2.48526,0.78524 -0.19828,-0.14581 -0.38916,-0.23144 -0.42419,-0.19029 -0.035,0.0412 -0.16607,0.42589 -0.29118,0.85498 -0.25172,0.86328 -0.85816,2.33435 -1.24462,3.01912 -0.13756,0.24375 -0.25011,0.48682 -0.25011,0.54016 0,0.0533 0.29762,0.30552 0.66137,0.56041 0.36376,0.25489 0.70629,0.56201 0.76118,0.68249 0.15351,0.33692 0.1367,3.61576 -0.0201,3.91896 -0.12391,0.23962 -2.91508,2.24418 -3.35717,2.41105 -0.31633,0.1194 -0.51384,0.0197 -1.95197,-0.98518 -0.63688,-0.44501 -1.2268,-0.84521 -1.31092,-0.88932 -0.1187,-0.0622 -0.33295,0.0245 -0.95643,0.38712 -1.0404,0.60513 -2.50099,1.23133 -3.65205,1.56575 l -0.91505,0.26586 v 1.0476 c 0,0.8009 -0.0313,1.10062 -0.13301,1.27277 -0.15325,0.25944 -3.11536,2.34717 -3.42454,2.41366 -0.11334,0.0244 -0.29351,0.008 -0.40039,-0.0355 z m -3.27873,-6.50231 c 0.33643,-0.31106 3.13126,-2.2132 3.32234,-2.26116 0.10615,-0.0266 0.28018,-0.0266 0.38674,1.8e-4 0.19807,0.0497 2.99994,1.95634 3.32881,2.26521 l 0.18181,0.17074 1.04454,-0.3491 c 1.1178,-0.3736 2.40719,-0.97464 3.26465,-1.5218 l 0.5286,-0.33731 v -1.27915 c 0,-0.96262 0.0314,-1.34509 0.12695,-1.54565 0.16561,-0.3477 3.255,-2.50793 3.58595,-2.50746 0.12093,1.8e-4 0.35079,0.0801 0.5108,0.17767 0.28194,0.17188 0.29465,0.17252 0.41185,0.0208 0.36385,-0.47096 1.1372,-2.42601 1.46046,-3.69206 l 0.17627,-0.69041 -0.25202,-0.21286 c -0.13861,-0.11707 -0.39859,-0.33135 -0.57772,-0.47618 l -0.3257,-0.26332 v -1.96329 -1.9633 l 0.30451,-0.26837 c 0.16748,-0.1476 0.42797,-0.36352 0.57885,-0.47981 l 0.27434,-0.21144 -0.17741,-0.69183 c -0.32479,-1.26659 -1.09857,-3.22414 -1.45806,-3.68866 -0.11219,-0.14498 -0.1325,-0.14344 -0.45773,0.0347 -0.22937,0.12564 -0.41102,0.16868 -0.5571,0.13202 -0.25015,-0.0628 -2.94965,-1.90225 -3.32822,-2.26789 l -0.25373,-0.24505 -0.0285,-1.40086 -0.0285,-1.40086 -0.52121,-0.33263 c -0.85026,-0.54264 -2.14269,-1.14462 -3.25726,-1.51713 l -1.04454,-0.3491 -0.19374,0.18201 c -0.10656,0.10011 -0.87344,0.65391 -1.70417,1.23068 -1.1353,0.78822 -1.57619,1.04927 -1.77518,1.05111 -0.20203,0.002 -0.6028,-0.23114 -1.69152,-0.98338 -0.78472,-0.54221 -1.56822,-1.09626 -1.74111,-1.23123 l -0.31434,-0.2454 -1.03887,0.34721 c -1.11269,0.37188 -2.40282,0.97356 -3.25898,1.5199 l -0.5286,0.33731 v 1.30909 c 0,0.82793 -0.0368,1.38985 -0.1001,1.52879 -0.10181,0.22344 -2.935433,2.26563 -3.386695,2.44078 -0.188186,0.073 -0.302039,0.0548 -0.618692,-0.099 -0.213435,-0.10369 -0.42877,-0.16338 -0.47852,-0.13263 -0.250608,0.15488 -1.176895,2.46902 -1.513122,3.78023 l -0.177404,0.69183 0.278698,0.21144 c 0.153284,0.11629 0.423281,0.34968 0.599993,0.51865 l 0.321295,0.30721 v 1.88056 1.88057 l -0.321295,0.30721 c -0.176712,0.16897 -0.446709,0.40236 -0.599993,0.51865 l -0.278698,0.21144 0.177404,0.69183 c 0.336525,1.31237 1.262557,3.62537 1.513555,3.7805 0.04999,0.0309 0.216868,-0.0206 0.370844,-0.11451 0.482411,-0.29412 0.625776,-0.23983 2.151646,0.8149 1.749854,1.20954 1.824504,1.26669 1.952364,1.49472 0.0681,0.12144 0.10374,0.63296 0.10572,1.51741 l 0.003,1.33422 0.5286,0.33731 c 0.84633,0.54006 2.14089,1.14578 3.23502,1.51364 0.5582,0.18768 1.03149,0.34179 1.05175,0.34248 0.0203,6.8e-4 0.1154,-0.0714 0.21144,-0.16019 z m -0.25178,-7.36017 c -1.95178,-1.30728 -3.70092,-2.50381 -3.88699,-2.65896 l -0.3383,-0.28208 v -4.15496 -4.15497 l 0.25373,-0.24659 c 0.13955,-0.13562 1.87861,-1.33522 3.86457,-2.66576 2.79863,-1.87501 3.66994,-2.41917 3.87356,-2.41917 0.20344,0 1.07752,0.54481 3.87411,2.41472 1.98627,1.3281 3.73509,2.54543 3.88627,2.70518 l 0.27487,0.29046 v 4.01461 c 0,2.89968 -0.0277,4.07532 -0.0996,4.23318 -0.14975,0.32868 -7.45242,5.22909 -7.85403,5.27041 -0.27198,0.028 -0.62577,-0.18771 -3.8482,-2.34607 z"
        id="path17"
      />
      <path
        style="fill: #8bb0b8; stroke-width: 1.31604"
        d="m 109.56073,152.20532 c -0.13347,-0.0708 -0.90166,-0.58873 -1.70707,-1.15105 -1.13549,-0.79277 -1.48465,-1.08049 -1.55456,-1.28104 -0.0496,-0.14224 -0.0902,-0.70859 -0.0902,-1.25855 v -0.99993 l -0.48631,-0.13382 c -1.46801,-0.40396 -3.32182,-1.18148 -4.37241,-1.83385 -0.235,-0.14592 -0.49145,-0.26127 -0.5699,-0.25633 -0.0785,0.005 -0.72545,0.41624 -1.437785,0.91401 -1.474084,1.03005 -1.587276,1.09208 -1.865464,1.02226 -0.322286,-0.0809 -3.304756,-2.19192 -3.425093,-2.42432 -0.08115,-0.15673 -0.103291,-0.66766 -0.08662,-1.99909 0.0256,-2.04515 -0.02146,-1.90942 0.868148,-2.50389 0.785479,-0.52488 0.774552,-0.46227 0.26005,-1.49002 -0.510267,-1.01928 -0.984536,-2.24134 -1.194979,-3.07912 -0.07856,-0.31274 -0.185779,-0.56845 -0.23827,-0.56825 -0.05249,1.9e-4 -0.266703,0.11421 -0.476028,0.25336 -0.620333,0.41238 -0.720949,0.37992 -2.375654,-0.76636 -0.809899,-0.56104 -1.558177,-1.1005 -1.662839,-1.1988 -0.186566,-0.17522 -0.190296,-0.21656 -0.190296,-2.10922 0,-1.74621 0.01453,-1.94503 0.152232,-2.08273 0.08373,-0.0837 0.822503,-0.61656 1.641723,-1.18406 1.685941,-1.16792 1.795681,-1.20299 2.434834,-0.7781 0.209325,0.13915 0.423537,0.25316 0.476028,0.25336 0.05249,2e-4 0.159712,-0.25551 0.23827,-0.56825 0.211334,-0.84133 0.685343,-2.0611 1.201995,-3.09311 0.251394,-0.50216 0.436361,-0.94655 0.411037,-0.98752 -0.02532,-0.041 -0.351736,-0.2887 -0.72536,-0.55051 -0.404041,-0.28312 -0.713897,-0.56696 -0.764652,-0.70046 -0.05068,-0.13331 -0.07488,-0.93495 -0.05959,-1.97426 0.0237,-1.61057 0.0392,-1.76474 0.194895,-1.93731 0.09303,-0.10312 0.850837,-0.65888 1.684007,-1.23502 1.026076,-0.70954 1.588759,-1.04753 1.743899,-1.04753 0.151702,0 0.611181,0.26625 1.360721,0.78847 0.622422,0.43366 1.291611,0.89423 1.487091,1.02348 l 0.35541,0.23501 0.50262,-0.30532 c 1.16472,-0.70753 2.94318,-1.45685 4.42387,-1.86391 l 0.4782,-0.13147 0.0293,-1.17121 c 0.0213,-0.85164 0.062,-1.21059 0.14918,-1.31556 0.12353,-0.14868 2.85386,-2.05934 3.20755,-2.24461 0.10899,-0.0571 0.28427,-0.0822 0.38951,-0.0558 0.25405,0.0638 2.98497,1.94372 3.28166,2.25908 0.22885,0.24327 0.23258,0.26465 0.23258,1.33502 0,0.76726 0.0311,1.11354 0.10572,1.17517 0.0581,0.0481 0.3531,0.15109 0.65546,0.22898 1.20376,0.31008 2.96124,1.06643 4.16996,1.79458 l 0.49091,0.29574 0.43942,-0.29289 c 0.24168,-0.16108 0.91252,-0.6218 1.49075,-1.02382 0.68372,-0.47537 1.13067,-0.73095 1.27825,-0.73095 0.25912,0 2.90599,1.77002 3.35815,2.24565 l 0.27487,0.28914 v 1.77335 c 0,1.06104 -0.0357,1.85139 -0.089,1.96763 -0.0489,0.10685 -0.35955,0.38457 -0.69027,0.61716 -0.91992,0.64694 -0.88844,0.5158 -0.3717,1.548 0.51285,1.02444 0.98701,2.24556 1.19782,3.08479 0.0786,0.31274 0.18578,0.56845 0.23827,0.56825 0.0525,-2e-4 0.2667,-0.11421 0.47603,-0.25336 0.65188,-0.43335 0.76108,-0.39711 2.52968,0.8394 0.85639,0.59873 1.60671,1.17812 1.66738,1.28752 0.0804,0.14494 0.111,0.66935 0.11286,1.93271 0.002,1.50637 -0.0168,1.76448 -0.14501,1.96766 -0.0812,0.12862 -0.83187,0.70902 -1.66824,1.28978 -1.70716,1.18542 -1.79234,1.21342 -2.44076,0.8022 -0.22005,-0.13955 -0.45123,-0.25373 -0.51373,-0.25373 -0.0697,0 -0.16886,0.21983 -0.25647,0.56862 -0.21596,0.85972 -0.69053,2.07902 -1.19066,3.05912 -0.2467,0.48347 -0.43208,0.92194 -0.41196,0.97439 0.0201,0.0524 0.28774,0.26567 0.59469,0.47382 0.99987,0.67804 0.96152,0.57205 0.95805,2.64808 -0.002,1.27642 -0.0336,1.84581 -0.10946,1.98247 -0.12238,0.22038 -3.04427,2.28429 -3.34024,2.35942 -0.27677,0.0702 -0.44387,-0.0217 -1.97586,-1.08721 l -1.36061,-0.94631 -0.26332,0.15448 c -1.468,0.86123 -3.07964,1.57304 -4.33541,1.91481 -0.36528,0.0994 -0.71173,0.21921 -0.76987,0.26621 -0.0747,0.0603 -0.10572,0.40497 -0.10572,1.17325 0,1.06979 -0.004,1.09192 -0.23258,1.3374 -0.30798,0.33053 -2.98409,2.18265 -3.24352,2.24482 -0.11194,0.0268 -0.31176,-0.009 -0.44563,-0.08 z m -3.20463,-6.25993 c 0.0962,-0.17193 3.06026,-2.23406 3.29931,-2.29538 0.10466,-0.0268 0.27592,-0.0271 0.38059,-4.9e-4 0.24018,0.061 3.20104,2.12029 3.29822,2.29394 0.10618,0.18972 0.32556,0.16127 1.32159,-0.17142 1.07745,-0.35988 2.40122,-0.97974 3.21089,-1.50351 l 0.59127,-0.38249 0.0284,-1.44242 c 0.0277,-1.40997 0.0331,-1.44704 0.23982,-1.64806 0.44853,-0.43625 3.16262,-2.25057 3.36668,-2.25057 0.1143,0 0.33697,0.0798 0.49482,0.17738 0.15785,0.0976 0.34185,0.15633 0.4089,0.1306 0.37232,-0.14287 1.73448,-3.69658 1.73448,-4.52506 0,-0.11207 -0.16852,-0.29222 -0.48607,-0.51961 -0.26734,-0.19144 -0.53241,-0.4314 -0.58904,-0.53326 -0.12595,-0.22654 -0.15058,-3.49 -0.0288,-3.81044 0.0441,-0.11602 0.31052,-0.37337 0.59203,-0.57189 0.31763,-0.224 0.51183,-0.42149 0.51183,-0.52051 0,-0.80329 -1.36438,-4.37104 -1.72441,-4.5092 -0.0615,-0.0236 -0.25345,0.0407 -0.42656,0.1428 -0.26122,0.15412 -0.36132,0.17141 -0.58861,0.10165 -0.15063,-0.0462 -0.9619,-0.56452 -1.80283,-1.15176 -1.2175,-0.85021 -1.54804,-1.12242 -1.62258,-1.33627 -0.0521,-0.14953 -0.0936,-0.82338 -0.0936,-1.5205 v -1.25195 l -0.37058,-0.25497 c -0.95767,-0.6589 -3.00936,-1.58811 -4.12899,-1.87003 -0.39018,-0.0982 -0.40448,-0.0946 -0.76119,0.19227 -0.19994,0.16081 -0.98359,0.72145 -1.74143,1.24585 -1.24367,0.86058 -1.40575,0.94894 -1.6638,0.90707 -0.27251,-0.0442 -3.16349,-1.9813 -3.42218,-2.293 -0.16011,-0.19292 -0.34161,-0.17052 -1.34867,0.16641 -1.50217,0.50259 -3.63403,1.60544 -3.76547,1.94796 -0.0281,0.0733 -0.0512,0.72066 -0.0512,1.43855 v 1.30525 l -0.27487,0.28704 c -0.39751,0.41512 -3.09551,2.2478 -3.308574,2.24743 -0.0991,-1.8e-4 -0.304786,-0.0763 -0.45709,-0.16915 -0.485955,-0.29629 -0.544655,-0.25311 -1.021754,0.75161 -0.489101,1.02999 -1.074117,2.73034 -1.158657,3.36763 l -0.05558,0.41903 0.433451,0.27814 c 0.787722,0.50548 0.768536,0.44153 0.768536,2.56186 v 1.85772 l -0.27937,0.26641 c -0.153654,0.14653 -0.42371,0.3756 -0.600124,0.50906 -0.31169,0.23579 -0.319102,0.25372 -0.262304,0.63432 0.155146,1.03964 1.375975,4.08819 1.684588,4.20661 0.07124,0.0273 0.265717,-0.0345 0.432176,-0.13734 0.21504,-0.13291 0.375923,-0.1724 0.555759,-0.13643 0.292554,0.0585 3.137063,2.0117 3.380583,2.32128 0.1451,0.18446 0.16324,0.3512 0.16324,1.50013 0,0.71093 0.023,1.35258 0.0512,1.4259 0.13043,0.33989 2.25247,1.43989 3.75476,1.94636 0.9828,0.33133 1.22604,0.36339 1.33122,0.17545 z m 3.23587,-5.25933 c -0.0698,-0.0283 -1.78656,-1.16685 -3.81509,-2.53 -2.79085,-1.87542 -3.71232,-2.53659 -3.78722,-2.71741 -0.072,-0.17384 -0.0926,-1.32691 -0.0754,-4.23102 l 0.0236,-3.99206 0.21144,-0.20189 c 0.11629,-0.11103 1.83869,-1.2917 3.82756,-2.62371 2.75042,-1.84204 3.67737,-2.42183 3.87196,-2.42183 0.19456,0 1.12127,0.57942 3.86883,2.41897 1.98715,1.33043 3.71766,2.5299 3.84558,2.66547 l 0.23258,0.24651 v 4.05696 4.05697 l -0.23258,0.25225 c -0.12792,0.13873 -1.83107,1.32655 -3.78477,2.63959 -3.46206,2.32678 -3.81974,2.53023 -4.1865,2.3812 z"
        id="path16"
      />
      <path
        style="fill: #4bdab4; stroke-width: 1.31604"
        d="m 109.56825,152.11395 c -0.40738,-0.22437 -2.98199,-2.0446 -3.11009,-2.19881 -0.0894,-0.10765 -0.13023,-0.4493 -0.15162,-1.26914 l -0.0293,-1.12183 -0.68962,-0.18447 c -1.38591,-0.37073 -3.06039,-1.08275 -4.29515,-1.82641 -0.26193,-0.15774 -0.52006,-0.28681 -0.57362,-0.28681 -0.0536,0 -0.67656,0.4057 -1.384438,0.90156 -1.452618,1.01754 -1.649376,1.11769 -1.93771,0.98632 -0.10858,-0.0495 -0.862929,-0.55276 -1.676333,-1.11841 -0.965602,-0.67149 -1.514286,-1.10827 -1.580821,-1.25841 -0.110004,-0.24823 -0.153415,-3.07642 -0.05479,-3.56955 0.0426,-0.21301 0.176735,-0.36073 0.604756,-0.66603 1.025575,-0.73153 0.982839,-0.49865 0.338037,-1.84197 -0.569411,-1.18625 -0.972285,-2.24387 -1.163456,-3.05426 -0.05764,-0.24436 -0.140406,-0.46629 -0.183919,-0.49318 -0.04351,-0.0269 -0.26186,0.0684 -0.485216,0.2117 -0.223357,0.14332 -0.511677,0.26059 -0.640711,0.26059 -0.262842,0 -3.370327,-2.09159 -3.461857,-2.33011 -0.02879,-0.075 -0.05235,-0.96806 -0.05235,-1.98451 v -1.84808 l 0.359447,-0.28678 c 0.197696,-0.15773 0.918139,-0.67408 1.600984,-1.14744 1.42419,-0.98727 1.58434,-1.03144 2.178779,-0.60083 0.197274,0.14291 0.406856,0.24134 0.465739,0.21875 0.05888,-0.0226 0.17216,-0.30025 0.251727,-0.61701 0.221814,-0.88305 0.693421,-2.08765 1.231498,-3.14555 0.561598,-1.10414 0.593525,-0.96892 -0.385052,-1.63077 -0.419772,-0.28391 -0.569824,-0.44086 -0.637904,-0.66724 -0.05387,-0.17912 -0.07795,-0.95481 -0.06099,-1.96421 0.02581,-1.53631 0.0414,-1.68122 0.197182,-1.83292 0.09303,-0.0906 0.832016,-0.62441 1.642183,-1.18624 0.957298,-0.66386 1.549527,-1.02137 1.691515,-1.0211 0.140541,2.6e-4 0.7409,0.3607 1.682889,1.01035 l 1.464401,1.00995 0.43855,-0.28029 c 1.11927,-0.71537 3.00692,-1.52861 4.43476,-1.91059 l 0.69775,-0.18667 0.01,-0.9845 c 0.006,-0.54147 0.034,-1.0956 0.0634,-1.23139 0.0434,-0.20081 0.29815,-0.41871 1.36435,-1.16724 1.71259,-1.20233 1.98752,-1.36353 2.22417,-1.30414 0.18166,0.0456 3.00413,1.9602 3.27325,2.22039 0.096,0.0928 0.13717,0.40448 0.16915,1.27962 l 0.0423,1.15697 0.29602,0.0997 c 0.1628,0.0548 0.73773,0.23943 1.27761,0.41024 1.02767,0.32514 2.68112,1.08294 3.48534,1.5974 l 0.47216,0.30203 0.53289,-0.36496 c 0.29309,-0.20072 0.95021,-0.65573 1.46027,-1.01111 0.5818,-0.40537 1.01008,-0.64615 1.14931,-0.64615 0.23833,0 3.01051,1.85556 3.3573,2.24721 0.18498,0.20891 0.1903,0.26656 0.1903,2.06211 v 1.84718 l -0.27717,0.24135 c -0.15244,0.13274 -0.49497,0.39039 -0.76118,0.57256 -0.26621,0.18217 -0.48401,0.36358 -0.48401,0.40314 0,0.0396 0.2045,0.48043 0.45445,0.97971 0.51577,1.03026 0.98847,2.24828 1.2012,3.09518 0.0796,0.31676 0.19561,0.59547 0.25787,0.61936 0.0623,0.0239 0.27363,-0.0745 0.46971,-0.21874 0.60174,-0.44252 0.72356,-0.40365 2.407,0.76805 0.81411,0.56662 1.55366,1.12361 1.64344,1.23775 0.14952,0.19009 0.16298,0.35402 0.16024,1.95107 -0.002,1.21609 -0.0344,1.80011 -0.10695,1.93056 -0.0572,0.10287 -0.78846,0.66392 -1.62508,1.24679 -1.13189,0.78857 -1.58607,1.05939 -1.77487,1.0583 -0.14273,-8.2e-4 -0.45569,-0.13012 -0.71539,-0.29557 -0.53194,-0.33888 -0.50013,-0.36332 -0.75737,0.58201 -0.25942,0.9534 -0.71,2.0806 -1.22872,3.07386 -0.51363,0.98352 -0.55471,0.8284 0.39568,1.49412 0.31337,0.21951 0.60833,0.47116 0.65546,0.55922 0.0502,0.0938 0.0857,0.90888 0.0857,1.96823 v 1.80811 l -0.23258,0.21805 c -0.24591,0.23052 -2.63081,1.9101 -2.96803,2.09024 -0.11317,0.0605 -0.29457,0.0817 -0.42288,0.0496 -0.12359,-0.031 -0.81462,-0.46509 -1.53563,-0.96473 -0.72101,-0.49963 -1.35474,-0.93417 -1.40829,-0.96563 -0.0536,-0.0315 -0.34091,0.0908 -0.63858,0.2716 -1.28629,0.78145 -3.03017,1.53295 -4.2563,1.8342 -0.32436,0.0797 -0.63733,0.18206 -0.69548,0.22748 -0.0748,0.0584 -0.10572,0.39989 -0.10572,1.167 0,1.00565 -0.0138,1.09974 -0.19029,1.29548 -0.26319,0.29192 -2.96896,2.15076 -3.20897,2.20453 -0.10737,0.0241 -0.30103,-0.0145 -0.43037,-0.0858 z m -1.3828,-7.4262 c 0.97013,-0.66882 1.50095,-0.98363 1.65857,-0.98363 0.12749,0 0.37984,0.10018 0.56077,0.22263 1.28059,0.86666 2.72213,1.89982 2.85167,2.04381 l 0.15459,0.17183 0.59945,-0.16612 c 1.28077,-0.35492 2.58652,-0.93195 3.84875,-1.70083 l 0.69775,-0.42503 0.005,-1.15149 c 0.008,-1.88163 -0.12255,-1.65174 1.64561,-2.89852 0.83661,-0.58991 1.64339,-1.09865 1.79286,-1.13052 0.20223,-0.0431 0.34541,-0.0124 0.55972,0.12001 0.15839,0.0979 0.32682,0.17798 0.37429,0.17798 0.1187,0 0.71892,-1.1735 1.08486,-2.12103 0.34217,-0.886 0.80588,-2.57665 0.74805,-2.72735 -0.0211,-0.0549 -0.20905,-0.20777 -0.41778,-0.33982 -0.72219,-0.45689 -0.71809,-0.44334 -0.71678,-2.37159 6.3e-4,-0.93569 0.024,-1.78667 0.052,-1.89108 0.028,-0.1044 0.29547,-0.36436 0.59442,-0.57768 0.38468,-0.2745 0.53136,-0.42914 0.50187,-0.52907 -0.0229,-0.0777 -0.12276,-0.46471 -0.22186,-0.86011 -0.32775,-1.30765 -1.38323,-3.8059 -1.60794,-3.8059 -0.0392,0 -0.207,0.0801 -0.373,0.17807 -0.20947,0.12359 -0.37079,0.16077 -0.52723,0.12151 -0.25135,-0.0631 -3.02728,-1.96279 -3.28644,-2.24907 -0.14683,-0.1622 -0.16858,-0.33688 -0.19503,-1.56615 l -0.0298,-1.3836 -0.7737,-0.45879 c -1.34323,-0.79651 -2.48457,-1.29817 -3.75361,-1.64984 l -0.59753,-0.16558 -0.16489,0.18965 c -0.31529,0.36261 -3.12656,2.24755 -3.35209,2.24755 -0.2101,0 -0.86498,-0.41497 -2.68766,-1.70304 -0.44937,-0.31757 -0.83043,-0.61755 -0.84678,-0.66662 -0.0609,-0.18259 -2.14285,0.52612 -3.38874,1.15354 -0.69469,0.34984 -1.68334,0.95422 -1.77563,1.08546 -0.0342,0.0486 -0.0627,0.67934 -0.0634,1.40162 -0.001,1.04369 -0.028,1.3514 -0.13146,1.49909 -0.16763,0.23933 -3.152339,2.3045 -3.330604,2.3045 -0.07427,0 -0.311756,-0.0941 -0.527737,-0.20905 -0.46073,-0.24526 -0.42445,-0.27255 -0.896565,0.67422 -0.43349,0.8693 -0.892184,2.09957 -1.120961,3.00655 -0.09916,0.39313 -0.198153,0.77832 -0.219976,0.85599 -0.02783,0.099 0.122986,0.25728 0.505068,0.52993 0.29961,0.21379 0.567617,0.44832 0.595571,0.52117 0.08805,0.22945 0.05668,3.67097 -0.03502,3.84232 -0.04721,0.0882 -0.253686,0.27588 -0.458827,0.41702 -0.641617,0.44144 -0.635529,0.42876 -0.497074,1.03525 0.315693,1.38286 1.47819,4.21193 1.730727,4.21193 0.05199,0 0.224727,-0.0805 0.383867,-0.17882 0.199324,-0.12319 0.365792,-0.16354 0.535057,-0.12969 0.292992,0.0586 3.259334,2.109 3.381584,2.33742 0.0468,0.0874 0.0856,0.74185 0.0863,1.45428 7.1e-4,0.71244 0.0293,1.33511 0.0634,1.38371 0.0342,0.0486 0.3107,0.24374 0.61449,0.43363 1.11322,0.69583 2.46296,1.29783 3.75364,1.67415 l 0.68398,0.19943 0.25373,-0.2353 c 0.13955,-0.12942 0.89577,-0.67794 1.68049,-1.21893 z m -2.18126,-6.48335 c -2.0295,-1.35929 -3.76516,-2.56698 -3.85702,-2.68377 -0.16084,-0.20448 -0.16701,-0.35706 -0.16701,-4.12819 0,-2.18282 0.0345,-4.00656 0.0779,-4.1208 0.0528,-0.13896 0.94461,-0.78562 2.76986,-2.00854 1.48057,-0.99198 3.15851,-2.12013 3.72877,-2.50699 0.71583,-0.48562 1.11357,-0.70339 1.28471,-0.70339 0.18404,0 1.15855,0.60999 3.78398,2.36858 1.94486,1.30271 3.65981,2.47722 3.81099,2.61001 l 0.27487,0.24143 v 4.09902 4.09902 l -0.1903,0.17739 c -0.10466,0.0976 -1.78878,1.25308 -3.74248,2.56783 -2.29741,1.54604 -3.64616,2.4027 -3.81823,2.42514 -0.23266,0.0303 -0.72919,-0.2755 -3.95605,-2.43674 z"
        id="path15"
      />
      <path
        style="fill: #3dd8af; stroke-width: 1.31604"
        d="m 109.56825,152.11395 c -0.4076,-0.22449 -2.98203,-2.04465 -3.11009,-2.19887 -0.0887,-0.10689 -0.13397,-0.47344 -0.16464,-1.33451 l -0.0423,-1.18714 -0.84576,-0.24161 c -1.18259,-0.33783 -2.52784,-0.89761 -3.59997,-1.498 -0.61941,-0.34687 -0.96236,-0.49281 -1.06685,-0.45398 -0.0847,0.0315 -0.72488,0.45604 -1.422632,0.94349 -1.434905,1.00243 -1.631778,1.10203 -1.919296,0.97103 -0.10858,-0.0495 -0.862929,-0.55276 -1.676333,-1.11841 -0.965602,-0.67149 -1.514286,-1.10827 -1.580821,-1.25841 -0.110873,-0.25019 -0.139445,-3.27601 -0.03449,-3.6526 0.03607,-0.12941 0.314158,-0.39234 0.731607,-0.69172 0.370384,-0.26563 0.707333,-0.53649 0.748776,-0.60191 0.05178,-0.0817 -0.08556,-0.44746 -0.438965,-1.16895 -0.47377,-0.96721 -0.97871,-2.30631 -1.201181,-3.18553 -0.110602,-0.4371 -0.236276,-0.45456 -0.761038,-0.10571 -0.209325,0.13915 -0.489497,0.25316 -0.622603,0.25336 -0.172599,2.6e-4 -0.697324,-0.31423 -1.829463,-1.09649 -0.873098,-0.60326 -1.611007,-1.15823 -1.639799,-1.23326 -0.02879,-0.075 -0.05235,-0.96806 -0.05235,-1.98451 v -1.84808 l 0.359447,-0.28678 c 0.197696,-0.15773 0.918139,-0.67408 1.600984,-1.14744 1.420087,-0.98443 1.585412,-1.03066 2.17036,-0.60693 0.496315,0.35953 0.662476,0.33685 0.77446,-0.10572 0.221589,-0.87572 0.726509,-2.21647 1.194708,-3.17239 0.298628,-0.6097 0.488128,-1.09749 0.459988,-1.18406 -0.02632,-0.081 -0.352863,-0.35653 -0.725651,-0.61237 -0.535505,-0.36752 -0.696723,-0.52731 -0.767947,-0.76118 -0.05529,-0.18156 -0.07931,-0.94104 -0.06212,-1.96421 0.02581,-1.53631 0.0414,-1.68122 0.197182,-1.83292 0.09303,-0.0906 0.832016,-0.62441 1.642183,-1.18624 0.957298,-0.66386 1.549527,-1.02137 1.691515,-1.0211 0.140596,2.6e-4 0.742888,0.36207 1.689493,1.01491 0.809056,0.55797 1.506036,1.01449 1.548856,1.01449 0.0428,0 0.48892,-0.2302 0.99135,-0.51155 1.07269,-0.60071 2.41777,-1.16046 3.6006,-1.49838 l 0.84576,-0.24161 0.0454,-1.25236 c 0.0432,-1.19139 0.0553,-1.26032 0.24738,-1.41589 0.30584,-0.24766 2.80834,-1.97464 3.03468,-2.09423 0.10899,-0.0576 0.28148,-0.0838 0.3833,-0.0583 0.22762,0.0571 3.08282,2.02442 3.28787,2.26541 0.1243,0.14609 0.148,0.34851 0.148,1.26406 0,0.97735 0.0175,1.10762 0.16915,1.25927 0.093,0.093 0.22579,0.16915 0.29501,0.16915 0.2372,0 1.77699,0.52764 2.61825,0.89719 0.46263,0.20323 1.17957,0.56483 1.59321,0.80355 0.61998,0.35781 0.78419,0.41933 0.93495,0.35028 0.10058,-0.0461 0.79022,-0.50737 1.53253,-1.02511 0.88642,-0.61824 1.42603,-0.94133 1.57218,-0.94133 0.23893,0 3.01042,1.85476 3.35791,2.24721 0.18498,0.20891 0.1903,0.26656 0.1903,2.06211 v 1.84718 l -0.27717,0.24135 c -0.15244,0.13274 -0.49274,0.38885 -0.75621,0.56914 -0.26348,0.18029 -0.50064,0.38406 -0.52703,0.45282 -0.0264,0.0688 0.17843,0.58728 0.45515,1.15228 0.46413,0.94766 0.96904,2.28964 1.18998,3.16279 0.11245,0.44443 0.31225,0.47033 0.79725,0.10337 0.57197,-0.43278 0.70965,-0.38784 2.3859,0.77886 0.81411,0.56662 1.55366,1.12361 1.64344,1.23775 0.14952,0.19009 0.16298,0.35402 0.16024,1.95107 -0.002,1.21609 -0.0344,1.80011 -0.10695,1.93056 -0.17087,0.30744 -3.10552,2.30643 -3.3872,2.30726 -0.13254,3.8e-4 -0.46692,-0.13875 -0.74307,-0.3092 -0.31132,-0.19216 -0.53211,-0.27987 -0.58113,-0.23086 -0.0435,0.0435 -0.19747,0.4779 -0.34221,0.96537 -0.31369,1.05652 -0.72915,2.08655 -1.19862,2.97167 -0.18891,0.35616 -0.3223,0.70272 -0.29643,0.77015 0.0259,0.0674 0.3534,0.33726 0.72784,0.59964 0.37444,0.26238 0.72027,0.5508 0.76851,0.64093 0.0527,0.0985 0.0877,0.88529 0.0877,1.972 v 1.80811 l -0.23258,0.21805 c -0.24591,0.23052 -2.63081,1.9101 -2.96803,2.09024 -0.11317,0.0605 -0.29457,0.0817 -0.42288,0.0496 -0.12359,-0.031 -0.82944,-0.47683 -1.56855,-0.99081 -0.73911,-0.51398 -1.41276,-0.95254 -1.49701,-0.97457 -0.0877,-0.023 -0.47502,0.14412 -0.90677,0.39119 -0.41447,0.23719 -1.12997,0.59799 -1.59,0.80178 -0.83256,0.36883 -2.37372,0.8989 -2.61351,0.8989 -0.0692,0 -0.20197,0.0761 -0.29501,0.16915 -0.15172,0.15173 -0.16915,0.28192 -0.16915,1.26392 0,1.01639 -0.0136,1.10988 -0.19029,1.30584 -0.26319,0.29192 -2.96896,2.15076 -3.20897,2.20453 -0.10737,0.0241 -0.30103,-0.0145 -0.43037,-0.0858 z m -3.10915,-6.15773 c 0.57109,-0.5436 3.13897,-2.2521 3.38492,-2.2521 0.12749,0 0.37984,0.10018 0.56077,0.22263 1.2564,0.85029 2.72524,1.8997 2.82176,2.01599 0.26308,0.317 0.38407,0.31332 1.45344,-0.0442 1.10741,-0.37019 2.61233,-1.07877 3.36956,-1.58653 l 0.46517,-0.31192 0.045,-1.48007 c 0.0247,-0.81405 0.0733,-1.5255 0.10776,-1.58102 0.12131,-0.19516 3.12704,-2.23385 3.36305,-2.28105 0.16139,-0.0323 0.33263,0.0102 0.52816,0.13106 0.49434,0.30552 0.58374,0.25668 0.97483,-0.53258 0.48569,-0.98015 0.90017,-2.07879 1.15658,-3.06565 0.25078,-0.96523 0.23015,-1.05006 -0.34376,-1.41314 -0.71865,-0.45465 -0.71495,-0.44237 -0.71364,-2.3696 6.3e-4,-0.93569 0.024,-1.78667 0.052,-1.89108 0.028,-0.1044 0.28904,-0.35977 0.58013,-0.56748 0.29108,-0.20772 0.54822,-0.45024 0.57142,-0.53894 0.14631,-0.55948 -1.3438,-4.47817 -1.76419,-4.63949 -0.072,-0.0276 -0.28216,0.0347 -0.46697,0.13861 -0.23194,0.13036 -0.40472,0.17162 -0.55778,0.1332 -0.24878,-0.0624 -3.02585,-1.9643 -3.28279,-2.2482 -0.1464,-0.16176 -0.17008,-0.348 -0.20755,-1.63175 l -0.0423,-1.44915 -0.42288,-0.28405 c -0.69389,-0.46609 -2.55781,-1.34149 -3.53633,-1.66085 -0.95361,-0.31124 -1.05936,-0.30969 -1.33495,0.0196 -0.2769,0.33083 -3.10427,2.21952 -3.32263,2.21952 -0.21036,0 -0.86492,-0.4149 -2.69522,-1.7084 -0.45354,-0.32052 -0.82462,-0.61504 -0.82462,-0.65448 0,-0.18354 -0.34787,-0.15828 -1.11889,0.0813 -1.6672,0.51796 -3.82199,1.62499 -4.0234,2.06703 -0.0646,0.14187 -0.1014,0.68955 -0.1014,1.51068 0,1.02263 -0.0268,1.32643 -0.13017,1.47396 -0.16763,0.23933 -3.152339,2.3045 -3.330604,2.3045 -0.07427,0 -0.318954,-0.0979 -0.543733,-0.21756 -0.224778,-0.11966 -0.454264,-0.20008 -0.509968,-0.1787 -0.132561,0.0509 -0.858283,1.52514 -1.16848,2.37371 -0.332429,0.90939 -0.666137,2.22211 -0.605233,2.38082 0.02749,0.0716 0.288935,0.30077 0.580986,0.50917 0.292051,0.20841 0.553874,0.43852 0.581828,0.51137 0.08805,0.22945 0.05668,3.67097 -0.03502,3.84232 -0.04721,0.0882 -0.253686,0.27588 -0.458827,0.41702 -0.627699,0.43186 -0.665222,0.49116 -0.614522,0.97116 0.09534,0.90266 1.228235,3.82553 1.643847,4.24114 0.110453,0.11045 0.169767,0.099 0.505757,-0.0979 0.270651,-0.15862 0.450346,-0.20912 0.621918,-0.17481 0.289857,0.058 3.255991,2.11013 3.377161,2.33653 0.0468,0.0874 0.0851,0.73054 0.0851,1.42916 0,0.8072 0.037,1.35134 0.1014,1.49277 0.11773,0.2584 1.26333,0.96136 2.3335,1.43188 0.64939,0.28552 2.32368,0.87714 2.50921,0.88665 0.0446,0.002 0.21583,-0.12418 0.38059,-0.28102 z m -0.45491,-7.75182 c -2.0295,-1.35929 -3.76516,-2.56698 -3.85702,-2.68377 -0.16084,-0.20448 -0.16701,-0.35706 -0.16701,-4.12819 0,-2.18282 0.0345,-4.00656 0.0779,-4.1208 0.0528,-0.13896 0.94461,-0.78562 2.76986,-2.00854 1.48057,-0.99198 3.15851,-2.12013 3.72877,-2.50699 0.71583,-0.48562 1.11357,-0.70339 1.28471,-0.70339 0.18404,0 1.15855,0.60999 3.78398,2.36858 1.94486,1.30271 3.65981,2.47722 3.81099,2.61001 l 0.27487,0.24143 v 4.09902 4.09902 l -0.1903,0.17739 c -0.10466,0.0976 -1.78878,1.25308 -3.74248,2.56783 -2.29741,1.54604 -3.64616,2.4027 -3.81823,2.42514 -0.23266,0.0303 -0.72919,-0.2755 -3.95605,-2.43674 z"
        id="path14"
      />
      <path
        style="fill: #45848f; stroke-width: 1.31604"
        d="m 109.56825,152.11395 c -0.39901,-0.21975 -2.98071,-2.04306 -3.10511,-2.19295 -0.0858,-0.10338 -0.13708,-0.61026 -0.1906,-1.8839 -0.0689,-1.63907 -0.0638,-1.75534 0.0862,-1.95939 0.19353,-0.26327 3.02323,-2.26624 3.31155,-2.34404 0.11287,-0.0305 0.30316,-0.0176 0.42288,0.0286 0.28523,0.11004 2.75901,1.83342 3.11848,2.17251 l 0.27896,0.26315 -0.056,1.77668 c -0.0376,1.19371 -0.091,1.83283 -0.16263,1.9478 -0.13495,0.21655 -3.01485,2.21951 -3.27496,2.27773 -0.10651,0.0238 -0.29948,-0.0149 -0.42882,-0.0862 z m -12.799966,-5.39593 c -1.945628,-1.32513 -2.534033,-1.76865 -2.628716,-1.98143 -0.110012,-0.24722 -0.153434,-3.07538 -0.05479,-3.5686 0.04264,-0.21317 0.176588,-0.3605 0.605546,-0.66603 0.302941,-0.21577 0.759586,-0.56878 1.014766,-0.78446 0.693093,-0.58581 1.680379,-1.11459 1.972117,-1.05625 0.277035,0.0554 3.252573,2.10946 3.360723,2.31995 0.0405,0.0788 0.0954,0.96817 0.12202,1.97628 l 0.0484,1.83293 -0.20207,0.21803 c -0.11114,0.11992 -0.24334,0.21804 -0.29377,0.21804 -0.0504,0 -0.51848,0.29804 -1.040095,0.6623 -1.69826,1.18598 -1.852944,1.28294 -2.046678,1.28294 -0.105197,0 -0.491032,-0.20416 -0.857412,-0.4537 z m 25.054806,0.32551 c -0.13409,-0.0699 -0.78769,-0.50721 -1.45244,-0.97172 -0.66474,-0.46452 -1.30854,-0.88257 -1.43065,-0.92899 -0.40797,-0.15511 -0.45592,-0.44921 -0.38742,-2.37632 0.034,-0.95759 0.0879,-1.78323 0.11977,-1.83474 0.11374,-0.18404 3.12381,-2.2269 3.34702,-2.27154 0.32451,-0.0649 1.36605,0.50328 2.03506,1.11017 0.16281,0.14769 0.55241,0.44776 0.86579,0.66682 0.31337,0.21906 0.60833,0.47034 0.65546,0.5584 0.0502,0.0938 0.0857,0.90888 0.0857,1.96823 v 1.80811 L 125.4288,144.99 c -0.24046,0.22542 -2.62754,1.90836 -2.9546,2.08305 -0.24176,0.12913 -0.3569,0.12391 -0.6511,-0.0295 z m -15.8189,-8.83913 c -2.0295,-1.35929 -3.76516,-2.56698 -3.85702,-2.68377 -0.16084,-0.20448 -0.16701,-0.35706 -0.16701,-4.12819 0,-2.18282 0.0345,-4.00656 0.0779,-4.1208 0.0528,-0.13896 0.94461,-0.78562 2.76986,-2.00854 1.48057,-0.99198 3.15851,-2.12013 3.72877,-2.50699 0.71583,-0.48562 1.11357,-0.70339 1.28471,-0.70339 0.18404,0 1.15855,0.60999 3.78398,2.36858 1.94486,1.30271 3.65981,2.47722 3.81099,2.61001 l 0.27487,0.24143 v 4.09902 4.09902 l -0.1903,0.17739 c -0.10466,0.0976 -1.78878,1.25308 -3.74248,2.56783 -2.29741,1.54604 -3.64616,2.4027 -3.81823,2.42514 -0.23266,0.0303 -0.72919,-0.2755 -3.95605,-2.43674 z m -15.230324,-3.68119 c -0.8373,-0.58045 -1.569937,-1.11913 -1.628083,-1.19709 -0.07716,-0.10344 -0.10572,-0.64993 -0.10572,-2.02286 v -1.88112 l 0.359447,-0.28678 c 0.197696,-0.15773 0.918139,-0.67408 1.600984,-1.14744 1.41274,-0.97934 1.587258,-1.02932 2.155785,-0.61748 0.184628,0.13374 0.411546,0.26724 0.504264,0.29667 0.09272,0.0294 0.381088,0.21496 0.640824,0.41229 0.259736,0.19734 0.714077,0.54188 1.009646,0.76565 0.29557,0.22378 0.584973,0.46892 0.643119,0.54477 0.133232,0.17378 0.150981,3.66887 0.01988,3.91385 -0.04721,0.0882 -0.247025,0.27176 -0.444023,0.40786 -0.196999,0.13611 -0.464453,0.34655 -0.594344,0.46764 -0.277712,0.25891 -1.20431,0.89806 -1.302702,0.89858 -0.03744,2e-4 -0.239338,0.11421 -0.448663,0.25337 -0.610651,0.40593 -0.70505,0.37429 -2.41041,-0.80791 z m 35.690974,0.74786 c -1.11497,-0.67702 -1.57727,-0.98634 -1.67435,-1.1203 -0.056,-0.0772 -0.28083,-0.26253 -0.49971,-0.41182 -0.66736,-0.45519 -0.65938,-0.42683 -0.65807,-2.33828 6.3e-4,-0.93161 0.0236,-1.7777 0.0511,-1.88019 0.0275,-0.10249 0.31671,-0.38794 0.64274,-0.63432 0.32602,-0.24638 0.75021,-0.5742 0.94264,-0.72848 0.19243,-0.15428 0.50211,-0.35204 0.68817,-0.43946 0.18607,-0.0874 0.46939,-0.25616 0.62961,-0.37496 0.527,-0.39076 0.69474,-0.33245 2.34225,0.81424 0.81411,0.56662 1.55366,1.12361 1.64344,1.23775 0.14952,0.19009 0.16298,0.35402 0.16024,1.95107 -0.002,1.21609 -0.0344,1.80011 -0.10695,1.93056 -0.0572,0.10287 -0.78846,0.66392 -1.62508,1.24679 -1.1354,0.79101 -1.58548,1.05922 -1.77487,1.05764 -0.13955,-0.001 -0.48208,-0.14077 -0.76118,-0.31024 z M 97.074761,123.84484 c -0.534905,-0.26723 -1.521976,-0.92366 -1.52317,-1.01295 -4.43e-4,-0.0332 -0.305506,-0.2696 -0.677917,-0.52544 -0.534659,-0.36731 -0.696078,-0.52745 -0.767262,-0.76118 -0.05529,-0.18156 -0.07931,-0.94104 -0.06212,-1.96421 0.02581,-1.53631 0.0414,-1.68122 0.197182,-1.83292 0.09303,-0.0906 0.832016,-0.62441 1.642183,-1.18624 0.957298,-0.66386 1.549527,-1.02137 1.691515,-1.0211 0.211813,3.9e-4 2.894668,1.74963 3.404758,2.21991 l 0.22613,0.20848 -0.0455,1.80918 c -0.0331,1.31599 -0.077,1.85953 -0.16096,1.99387 -0.14436,0.23088 -3.142173,2.31126 -3.3253,2.30764 -0.0739,-0.001 -0.343697,-0.10723 -0.599538,-0.23504 z m 24.865279,0.17653 c -0.21327,-0.0804 -2.99951,-2.03222 -3.17018,-2.22082 -0.14115,-0.15596 -0.16673,-0.37703 -0.21751,-1.87971 -0.0317,-0.93663 -0.0317,-1.80111 -5e-5,-1.92108 0.0316,-0.11996 0.17697,-0.29423 0.323,-0.38727 0.14603,-0.093 0.88437,-0.59731 1.64076,-1.12063 0.89874,-0.62179 1.45225,-0.95147 1.59745,-0.95147 0.23859,0 3.01047,1.85521 3.35756,2.24721 0.18493,0.20885 0.1903,0.26683 0.1903,2.05504 v 1.84013 l -0.23258,0.21268 c -0.12792,0.11698 -0.44191,0.35909 -0.69775,0.53804 -0.25585,0.17894 -0.52226,0.38804 -0.59203,0.46465 -0.31457,0.34541 -1.72776,1.19248 -1.96483,1.17772 -0.059,-0.004 -0.16437,-0.0282 -0.23414,-0.0545 z m -13.08567,-5.5762 c -1.74605,-1.18821 -2.44064,-1.70754 -2.54528,-1.90307 -0.15437,-0.28844 -0.0114,-3.66579 0.16228,-3.83379 0.25701,-0.2486 3.08438,-2.16681 3.25803,-2.21039 0.10181,-0.0255 0.2743,5.1e-4 0.3833,0.0579 0.43107,0.22706 3.12988,2.14629 3.19421,2.27153 0.0377,0.0734 0.0939,0.9327 0.12498,1.90955 l 0.0564,1.77609 -0.21046,0.22467 c -0.38903,0.41532 -3.15065,2.27031 -3.37992,2.27031 -0.12775,0 -0.55556,-0.23073 -1.04356,-0.56282 z"
        id="path13"
      />
      <path
        style="fill: #337483; stroke-width: 1.31604"
        d="m 109.82241,152.11021 c -0.0337,-0.0337 -0.0613,-0.85146 -0.0613,-1.81724 0,-1.35841 -0.0257,-1.78126 -0.11367,-1.86771 -0.0625,-0.0615 -0.8043,-0.5875 -1.64842,-1.16896 -0.84411,-0.58146 -1.53511,-1.08302 -1.53556,-1.11459 -0.002,-0.11388 0.28227,-0.33313 1.72823,-1.33481 0.80841,-0.56001 1.55452,-1.01821 1.65802,-1.01821 0.164,0 2.31924,1.42484 3.23684,2.13989 l 0.32301,0.25171 -0.0591,1.7855 c -0.0325,0.98202 -0.0894,1.84439 -0.12652,1.91637 -0.0766,0.14856 -2.98686,2.1969 -3.20088,2.25287 -0.0767,0.02 -0.16701,0.009 -0.20071,-0.0248 z m -12.344265,-6.8623 -0.02279,-1.83923 -1.5916,-1.11263 c -0.87538,-0.61194 -1.613441,-1.13446 -1.640135,-1.16116 -0.08048,-0.0805 0.13822,-0.28952 0.813481,-0.77756 0.35319,-0.25527 0.813429,-0.59622 1.022754,-0.75768 0.475377,-0.36668 1.381849,-0.8855 1.547129,-0.8855 0.147539,0 2.879346,1.86743 3.200686,2.18796 l 0.22302,0.22245 0.045,1.79454 c 0.0427,1.70105 0.0362,1.8057 -0.12344,2.00868 -0.0926,0.11777 -0.20512,0.21412 -0.24996,0.21412 -0.0448,0 -0.5083,0.29804 -1.029913,0.66231 -1.675376,1.16999 -1.852627,1.28294 -2.013424,1.28294 -0.148756,0 -0.159347,-0.10774 -0.180805,-1.83924 z m 24.602855,1.78285 c -0.031,-0.031 -0.0564,-0.84608 -0.0564,-1.81127 v -1.75489 l -0.31716,-0.24594 c -0.17444,-0.13527 -0.91659,-0.65878 -1.64923,-1.16336 -0.73263,-0.50457 -1.33206,-0.94232 -1.33206,-0.97277 0,-0.10744 0.39556,-0.40988 1.81011,-1.38398 0.78624,-0.54142 1.4857,-0.9844 1.55436,-0.9844 0.17062,0 0.97823,0.46555 1.5313,0.88273 0.25055,0.18899 0.70487,0.52445 1.00959,0.74548 1.03627,0.75162 0.94527,0.50041 0.94527,2.60965 v 1.84027 l -0.35944,0.28832 c -0.65651,0.5266 -2.84059,2.00655 -2.96124,2.00655 -0.0653,0 -0.1441,-0.0254 -0.17511,-0.0564 z m -12.31987,-10.48851 v -4.05176 l -3.80591,-2.55817 c -2.09325,-1.407 -3.80591,-2.5888 -3.80591,-2.62622 0,-0.12265 0.25764,-0.30406 3.90452,-2.7493 1.98468,-1.33073 3.69102,-2.4195 3.79187,-2.4195 0.18484,0 7.21863,4.65884 7.61182,5.0417 l 0.21144,0.20588 v 4.00243 c 0,3.32417 -0.0203,4.02683 -0.11952,4.14642 -0.2222,0.26769 -7.32121,4.98852 -7.55573,5.02455 l -0.23258,0.0357 z m -1.28578,-9.49096 c 0.69474,-0.46044 1.34437,-0.92432 1.44362,-1.03086 0.38278,-0.41086 0.0961,-1.09213 -0.45966,-1.09213 -0.20611,0 -0.59847,0.21985 -1.61334,0.90401 -0.73756,0.49721 -1.38737,0.96343 -1.44404,1.03605 -0.15719,0.20145 -0.12799,0.54951 0.0669,0.79724 0.31949,0.40616 0.59324,0.32235 2.00654,-0.61431 z m -15.946537,8.47187 c -0.08012,-0.028 -0.105719,-0.47464 -0.105719,-1.84469 v -1.80769 l -1.650356,-1.1509 c -1.223481,-0.85322 -1.63321,-1.18154 -1.584069,-1.26935 0.132582,-0.23691 3.103359,-2.23732 3.319,-2.23489 0.342665,0.004 2.141431,1.18123 3.245935,2.12461 l 0.26396,0.22545 0.02721,1.50835 c 0.03926,2.17678 0.05219,2.12808 -0.720329,2.71412 -1.00639,0.76347 -2.214729,1.57394 -2.563043,1.71911 -0.06978,0.0291 -0.174438,0.0362 -0.232584,0.0159 z m 34.676067,9.2e-4 c -0.08,-0.0287 -0.10572,-0.46711 -0.10572,-1.80091 0,-1.3538 -0.0261,-1.78894 -0.1124,-1.87476 -0.0618,-0.0615 -0.80247,-0.5875 -1.64589,-1.16896 -0.84343,-0.58146 -1.535,-1.10556 -1.53684,-1.16466 -0.002,-0.0591 0.1738,-0.23037 0.3903,-0.38059 0.21649,-0.15022 0.57504,-0.42537 0.79677,-0.61143 0.56937,-0.47779 1.97359,-1.31093 2.2095,-1.31093 0.20034,0 3.14256,1.98649 3.34502,2.25845 0.0768,0.1031 0.10572,0.6314 0.10572,1.92839 v 1.78639 l -0.23258,0.21805 c -0.24155,0.22644 -2.64191,1.91839 -2.93901,2.07162 -0.093,0.048 -0.21673,0.0702 -0.27487,0.0493 z m -29.650857,-11.5825 c -0.03101,-0.031 -0.05638,-0.84608 -0.05638,-1.81127 v -1.75489 l -0.31716,-0.24595 c -0.174437,-0.13527 -0.916589,-0.65878 -1.649227,-1.16335 -0.732638,-0.50458 -1.331485,-0.93944 -1.330773,-0.96637 0.0033,-0.12611 0.221114,-0.29828 1.545872,-1.22212 1.653667,-1.15322 1.764012,-1.21273 2.026159,-1.09267 0.189387,0.0867 2.692126,1.79646 3.122496,2.13311 l 0.22578,0.17661 -0.0434,1.79644 c -0.0361,1.49086 -0.0673,1.82909 -0.18349,1.9884 -0.16011,0.21945 -3.027045,2.21844 -3.181677,2.21844 -0.05598,0 -0.127145,-0.0254 -0.158157,-0.0564 z m 24.526977,0 c -0.031,-0.031 -0.0564,-0.84265 -0.0564,-1.80364 0,-1.70494 -0.005,-1.75139 -0.19029,-1.91815 -0.10467,-0.094 -0.84682,-0.62203 -1.64923,-1.1734 -0.80241,-0.55138 -1.45893,-1.05152 -1.45893,-1.11142 0,-0.0599 0.14484,-0.20035 0.32187,-0.31211 0.17704,-0.11175 0.85258,-0.57402 1.50122,-1.02725 1.42023,-0.99237 1.49191,-1.02879 1.77289,-0.90077 0.2986,0.13605 3.02033,2.0353 3.14893,2.19736 0.0772,0.0973 0.10572,0.6266 0.10572,1.96297 0,2.09243 0.0965,1.82579 -0.93033,2.56983 -0.30236,0.21908 -0.73235,0.54214 -0.95554,0.71791 -0.40145,0.31617 -1.3332,0.85505 -1.4784,0.85505 -0.0413,0 -0.10051,-0.0254 -0.13152,-0.0564 z m -12.33937,-6.85168 -0.0228,-1.83351 -1.60376,-1.11708 c -0.88206,-0.6144 -1.61637,-1.15493 -1.63178,-1.20118 -0.0601,-0.18037 3.04699,-2.33133 3.36766,-2.33133 0.21295,0 2.84761,1.75364 3.26279,2.17173 0.16933,0.17052 0.1847,0.29706 0.23784,1.95839 l 0.0568,1.77609 -0.28013,0.26325 c -0.47901,0.45016 -2.99611,2.14716 -3.18481,2.14716 -0.17612,0 -0.17941,-0.0298 -0.20183,-1.83352 z"
        id="path12"
      />
      <path
        style="fill: #256576; stroke-width: 1.31604"
        d="m 109.94977,150.24299 0.0228,-1.83413 1.60694,-1.11694 c 0.88382,-0.61432 1.63549,-1.09975 1.67038,-1.07874 0.0975,0.0587 0.0766,3.39769 -0.0224,3.58271 -0.0916,0.17118 -3.06232,2.28123 -3.21172,2.28123 -0.06,0 -0.0814,-0.59519 -0.066,-1.83413 z m -12.282979,-5.04356 v -1.80314 l 1.610888,-1.11728 c 0.885991,-0.6145 1.647171,-1.09485 1.691511,-1.06744 0.0469,0.029 0.0806,0.77488 0.0806,1.78167 0,1.68757 -0.005,1.73632 -0.19029,1.90739 -0.2966,0.27363 -2.990958,2.10194 -3.097603,2.10194 -0.06749,0 -0.09514,-0.524 -0.09514,-1.80314 z m 24.526969,0.0107 v -1.81217 l 1.58308,-1.09441 c 0.87069,-0.60193 1.63188,-1.10672 1.69152,-1.12176 0.17552,-0.0443 0.15454,3.3492 -0.0223,3.60162 -0.14492,0.20691 -2.86986,2.13786 -3.10432,2.19979 -0.13757,0.0363 -0.14801,-0.0887 -0.14801,-1.77307 z m -12.26348,-8.68077 v -4.06356 l 3.72931,-2.50583 c 2.05113,-1.37821 3.78282,-2.52636 3.8482,-2.55145 0.10109,-0.0388 0.11888,0.55003 0.11888,3.93377 v 3.97939 l -0.19029,0.21118 c -0.16881,0.18733 -7.13527,4.91057 -7.40038,5.01743 -0.0837,0.0337 -0.10572,-0.80375 -0.10572,-4.02093 z m -17.338035,-2.84265 v -1.81357 l 1.628084,-1.13716 c 0.895446,-0.62543 1.656627,-1.12012 1.691515,-1.09931 0.03489,0.0208 0.06343,0.81874 0.06343,1.77317 v 1.73532 l -0.238418,0.22607 c -0.463705,0.43971 -2.915239,2.12904 -3.089629,2.12904 -0.03024,0 -0.05498,-0.81611 -0.05498,-1.81356 z m 34.676065,-0.0186 v -1.85024 l 1.62411,-1.1173 c 1.14617,-0.7885 1.64357,-1.08668 1.69022,-1.01324 0.11033,0.17368 0.0746,3.20286 -0.0408,3.46293 -0.0664,0.14966 -0.61705,0.58746 -1.58198,1.25782 -0.81404,0.56554 -1.52765,1.04671 -1.58579,1.06927 -0.0826,0.032 -0.10572,-0.36356 -0.10572,-1.80924 z M 97.666791,122.11007 v -1.80331 l 1.601152,-1.11455 c 0.880637,-0.613 1.641817,-1.11455 1.691517,-1.11455 0.0611,0 0.0904,0.55482 0.0904,1.71498 0,1.38303 -0.0244,1.74984 -0.12611,1.89504 -0.14046,0.20054 -3.020414,2.22571 -3.165129,2.22571 -0.06313,0 -0.09179,-0.56301 -0.09179,-1.80332 z m 24.526969,-0.005 v -1.80833 l 1.56427,-1.08839 c 0.86035,-0.59861 1.62153,-1.10069 1.69151,-1.11573 0.18916,-0.0406 0.18977,3.32577 6.6e-4,3.59577 -0.0696,0.0994 -0.42168,0.39199 -0.78233,0.65018 -0.36065,0.25819 -0.88408,0.63346 -1.16318,0.83393 -0.58912,0.42315 -1.11714,0.74091 -1.23119,0.74091 -0.0474,0 -0.0797,-0.73225 -0.0797,-1.80834 z m -12.26132,-5.01818 0.002,-1.8425 1.61636,-1.11846 c 0.88899,-0.61516 1.6492,-1.09816 1.68934,-1.07335 0.11939,0.0738 0.0859,3.43639 -0.0358,3.59619 -0.10461,0.13735 -2.73288,1.9956 -3.08397,2.18043 l -0.19029,0.10019 z"
        id="path11"
      />
    </g>
  </g>
</svg>
