<svg
  version="1.1"
  xmlns="http://www.w3.org/2000/svg"
  xmlns:xlink="http://www.w3.org/1999/xlink"
  viewBox="0 0 32 32"
>
  <path
    fill="#43b8b0"
    d="M23.2,11.1L23.2,11.1C23.2,11.1,23.2,11.1,23.2,11.1C23.1,11.1,23.1,11,23.2,11.1l0.6-4l3,3l-3.1,1.3 c0,0,0,0,0,0h0c0,0,0,0,0,0C23.5,11.3,23.3,11.2,23.2,11.1z M27.6,10.9l3.2,3.2c0.7,0.7,1,1,1.1,1.4c0,0.1,0,0.1,0,0.2l-7.7-3.3 c0,0,0,0,0,0c0,0-0.1,0-0.1-0.1c0,0,0,0,0.1-0.1l0,0L27.6,10.9z M31.9,16.7c-0.2,0.3-0.5,0.6-1,1.2l-3.7,3.6l-4.7-1l0,0 c0,0-0.1,0-0.1-0.1c0-0.4-0.2-0.8-0.5-1c0,0,0,0,0-0.1c0,0,0,0,0,0l0.9-5.4l0,0c0,0,0-0.1,0.1-0.1c0.4,0,0.7-0.2,1-0.6c0,0,0,0,0,0 c0,0,0.1,0,0.1,0L31.9,16.7C31.9,16.7,31.9,16.7,31.9,16.7z M26.3,22.4l-6,6l1-6.3l0,0c0,0,0,0,0,0c0,0,0,0,0.1,0l0,0 c0.2-0.1,0.4-0.2,0.6-0.4c0,0,0,0,0.1-0.1c0,0,0,0,0,0L26.3,22.4L26.3,22.4L26.3,22.4z M19.1,29.7l-0.7,0.7l-7.5-10.8c0,0,0,0,0,0 c0,0,0,0,0,0c0,0,0,0,0,0l0,0c0,0,0-0.1,0.1-0.1l0,0l0,0c0,0,0,0,0-0.1c0,0,0,0,0.1,0l8.3,1.7c0,0,0,0,0.1,0c0,0,0,0,0,0 c0.1,0.4,0.4,0.8,0.9,1c0,0,0,0,0,0.1c0,0,0,0,0,0C20.2,22.7,19.3,28.2,19.1,29.7z M17.6,31.1c-0.5,0.5-0.8,0.8-1.1,0.9 c-0.3,0.1-0.7,0.1-1,0c-0.4-0.1-0.7-0.5-1.4-1.1l-7.5-7.5l2-3c0,0,0,0,0,0c0,0,0.1,0,0.1,0c0.5,0.1,0.9,0.1,1.4-0.1c0,0,0,0,0.1,0 c0,0,0,0,0,0L17.6,31.1C17.6,31.1,17.6,31.1,17.6,31.1z M5.9,22.6l-1.7-1.7l3.4-1.5c0,0,0,0,0,0c0,0,0,0,0.1,0.1 c0,0.1,0.1,0.1,0.1,0.2l0,0c0,0,0,0,0,0L5.9,22.6C5.9,22.6,5.9,22.6,5.9,22.6z M3.4,20.1l-2.2-2.2c-0.4-0.4-0.6-0.6-0.8-0.9L7,18.4 l0,0c0,0,0.1,0,0.1,0.1c0,0,0,0.1-0.1,0.1l0,0C7,18.5,3.4,20.1,3.4,20.1z M0,15.9c0-0.1,0-0.3,0.1-0.4c0.1-0.4,0.5-0.7,1.1-1.4 L4,11.3c1.3,1.9,2.6,3.7,3.9,5.6c0,0,0,0.1,0,0.1c-0.1,0.1-0.2,0.3-0.3,0.4c0,0,0,0,0,0.1c0,0,0,0,0,0h0L0,15.9L0,15.9L0,15.9z M4.7,10.6l3.8-3.7C8.9,7,10.1,7.5,11.3,8c0.9,0.4,1.7,0.7,1.9,0.8c0,0,0,0,0.1,0c0,0,0,0,0,0.1c-0.1,0.5,0,1.1,0.4,1.5 c0,0,0,0.1,0,0.1l0,0l-3.8,5.9c0,0,0,0,0,0c0,0,0,0-0.1,0c-0.1,0-0.3-0.1-0.5-0.1c-0.1,0-0.3,0-0.4,0.1h0c0,0,0,0,0,0c0,0,0,0,0,0 L4.7,10.6z M9.3,6.1l4.9-4.9c0.7-0.7,1-1,1.4-1.1c0.3-0.1,0.7-0.1,1,0c0.4,0.1,0.7,0.5,1.4,1.1L19,2.3l-3.5,5.3c0,0,0,0,0,0 c0,0-0.1,0-0.1,0c-0.6-0.2-1.2-0.1-1.6,0.3c0,0-0.1,0-0.1,0C13.3,7.8,9.8,6.3,9.3,6.1L9.3,6.1z M19.7,3l3.2,3.2l-0.8,4.8v0 c0,0,0,0,0,0c0,0,0,0,0,0c-0.2,0-0.3,0.1-0.5,0.2c0,0,0,0,0,0c0,0,0,0,0,0c0,0,0,0,0,0l-4.9-2.1l0,0c0,0-0.1,0-0.1-0.1 c0-0.3-0.1-0.5-0.3-0.8c0,0,0-0.1,0-0.1C16.3,8.3,19.7,3,19.7,3z M16.4,10.2l4.6,1.9c0,0,0.1,0,0.1,0c0,0,0,0,0,0c0,0.1,0,0.1,0,0.2 v0.1c0,0,0,0-0.1,0.1l0,0c-0.7,0.3-10.1,4.3-10.1,4.3c0,0,0,0,0,0c0,0,0-0.1,0-0.1l0,0l3.7-5.8l0,0c0,0,0-0.1,0.1-0.1l0,0 c0.1,0,0.2,0,0.2,0c0.6,0,1.1-0.3,1.4-0.7C16.3,10.2,16.3,10.2,16.4,10.2C16.4,10.2,16.4,10.2,16.4,10.2z M11.2,17.8l10.3-4.4 c0,0,0,0,0,0c0.1,0.1,0.1,0.1,0.1,0.1l0,0c0,0,0,0,0,0c0,0,0,0,0,0l-0.9,5.4l0,0c0,0,0,0.1-0.1,0.1c-0.5,0-0.9,0.3-1.1,0.7l0,0 c0,0,0,0,0,0c0,0,0,0-0.1,0l-8.2-1.7C11.3,18.3,11.2,17.8,11.2,17.8z"
  />
</svg>
