<svg
  version="1.1"
  id="svg1"
  xml:space="preserve"
  width="60"
  height="60"
  xmlns="http://www.w3.org/2000/svg"
  xmlns:svg="http://www.w3.org/2000/svg"
>
  <g id="layer1" transform="matrix(3.7795276,0,0,3.7795276,-175.56706,-549.88787)">
    <path
      class="st0"
      d="m 47.533365,157.39542 c 0.07171,0.12484 0.175297,0.22841 0.30013,0.30012 l 6.161959,3.55906 v 0 c 0.252321,0.14874 0.565732,0.14874 0.818053,0 l 6.161954,-3.55906 c 0.254978,-0.14342 0.411682,-0.41699 0.409027,-0.70915 v -7.11547 0 c 0,-0.29216 -0.154049,-0.56572 -0.409027,-0.70915 l -6.159298,-3.55905 v 0 c -0.252322,-0.14874 -0.565732,-0.14874 -0.818053,0 v 0 c 0,0 -6.164615,3.55905 -6.164615,3.55905 -0.254978,0.14343 -0.409027,0.41434 -0.409027,0.70915 v 0 7.11547 c 0,0.14343 0.03718,0.28686 0.108897,0.40903"
      id="path8"
      style="fill: #009639; fill-rule: evenodd; stroke-width: 0.264583"
    />
    <path
      class="st1"
      d="m 52.429746,156.13912 c 0,0.43824 -0.355906,0.7915 -0.791492,0.7915 -0.435586,0 -0.791494,-0.35591 -0.791494,-0.7915 v 0 c 0,0 0,-5.43952 0,-5.43952 0.02922,-0.45417 0.422307,-0.80212 0.876486,-0.77289 0.0079,0 0.01594,0 0.02125,0 0.414339,-0.005 0.807429,0.16998 1.080999,0.48339 l 0.239041,0.28686 3.31205,3.96277 v -3.93887 0 c 0,-0.43824 0.35325,-0.7915 0.791494,-0.79415 0.438242,0 0.791492,0.35325 0.794149,0.79149 v 0 c 0,0 0,0 0,0 v 5.43951 c -0.02921,0.45419 -0.422308,0.80213 -0.879141,0.77291 -0.0079,0 -0.01593,0 -0.02125,0 -0.414338,0.005 -0.807427,-0.16999 -1.080997,-0.48339 l -3.551093,-4.24963 v 3.93886 0 z"
      id="path9"
      style="fill: #ffffff; fill-rule: evenodd; stroke-width: 0.264583"
    />
  </g>
</svg>
