<svg
  version="1.1"
  xmlns="http://www.w3.org/2000/svg"
  xmlns:xlink="http://www.w3.org/1999/xlink"
  x="0px"
  y="0px"
  width="32px"
  height="19.6px"
  viewBox="0 0 32 19.6"
  style="enable-background: new 0 0 32 19.6"
  xml:space="preserve"
>
  <path
    fill="#529e42"
    d="M15.3,10.4L15.3,10.4L15.3,10.4L15.3,10.4z M11.5,3.9L11.5,3.9L11.5,3.9L11.5,3.9z M15,6.3l-3-1.8
c-0.1-0.1-0.3-0.1-0.4,0L8.6,6.3C8.5,6.3,8.4,6.5,8.4,6.6v3.5c0,0.1,0.1,0.3,0.2,0.3l3.1,1.8c0.1,0.1,0.3,0.1,0.4,0l3-1.8
c0.1,0,0.2-0.1,0.2-0.2c0,0,0,0,0-0.1V6.6C15.2,6.5,15.2,6.3,15,6.3z M29.2,7.9l-0.6-0.3c0,0,0,0-0.1,0L28,7.9c0,0,0,0,0,0.1v0.7
c0,0,0,0.1,0,0.1l0.6,0.3c0,0,0,0,0.1,0l0.6-0.3c0,0,0,0,0-0.1L29.2,7.9C29.2,8,29.2,8,29.2,7.9z M31.8,6.3l-3-1.8
c-0.1-0.1-0.3-0.1-0.4,0l-3.1,1.8c-0.1,0.1-0.2,0.2-0.2,0.3v3.5c0,0.1,0.1,0.3,0.2,0.3l3.1,1.7c0.1,0.1,0.3,0.1,0.4,0l1.8-1
c0.1-0.1,0.1-0.3,0-0.3l-3.1-1.8c-0.1,0-0.1-0.1-0.1-0.2V7.8c0-0.1,0-0.1,0.1-0.2l1-0.5c0.1,0,0.1,0,0.2,0l1,0.5
c0.1,0,0.1,0.1,0.1,0.2v0.9c0,0.1,0.1,0.2,0.3,0.2l1.8-1.1C31.9,7.7,32,7.6,32,7.5V6.6C32,6.5,31.9,6.3,31.8,6.3z M23.4,1l-1.8-1
c-0.1-0.1-0.3,0-0.3,0.2v4.7C21.3,5,21.2,5,21.1,5l-0.8-0.4c-0.1-0.1-0.3-0.1-0.4,0l-3.1,1.8c-0.1,0.1-0.2,0.2-0.2,0.3v3.5
c0,0.1,0.1,0.3,0.2,0.3l3.1,1.8c0.1,0.1,0.3,0.1,0.4,0l3.1-1.8c0.1-0.1,0.2-0.2,0.2-0.3V1.4C23.6,1.2,23.5,1.1,23.4,1z M21.3,9
C21.3,9.1,21.3,9.1,21.3,9l-1.1,0.7c0,0-0.1,0-0.1,0l-1.1-0.6c0,0,0,0,0-0.1V7.8c0,0,0-0.1,0-0.1l1.1-0.6c0,0,0.1,0,0.1,0l1,0.6
c0,0,0,0,0,0.1V9z M6.7,6.2L3.6,4.5c0,0-0.1,0-0.2,0h0c-0.1,0-0.1,0-0.2,0L0.2,6.2C0.1,6.3,0,6.4,0,6.5v4.8c0,0.1,0,0.1,0.1,0.2
c0.1,0,0.1,0,0.2,0l1.8-1c0.1-0.1,0.2-0.2,0.2-0.3V7.9c0-0.1,0.1-0.3,0.2-0.3l0.8-0.5c0.1,0,0.1,0,0.2,0c0.1,0,0.1,0,0.2,0l0.8,0.5
c0.1,0.1,0.2,0.2,0.2,0.3v2.2c0,0.1,0.1,0.3,0.2,0.3l1.8,1c0.1,0,0.1,0,0.2,0c0.1,0,0.1-0.1,0.1-0.2l0-4.8C6.9,6.4,6.8,6.3,6.7,6.2z
M16.8,15.4c-0.9-0.1-1-0.2-1-0.4c0-0.2,0.1-0.4,0.7-0.4c0.6,0,0.8,0.1,0.9,0.5c0,0,0,0.1,0.1,0.1H18c0,0,0,0,0.1,0c0,0,0,0,0-0.1
c-0.1-0.7-0.5-1-1.4-1c-0.8,0-1.3,0.3-1.3,0.9c0,0.6,0.5,0.8,1.3,0.9c1,0.1,1,0.2,1,0.4c0,0.3-0.3,0.5-0.9,0.5c-0.8,0-0.9-0.2-1-0.6
c0,0,0-0.1-0.1-0.1h-0.4c0,0-0.1,0-0.1,0.1c0,0.5,0.3,1.1,1.5,1.1c0.9,0,1.4-0.4,1.4-1C18.1,15.7,17.7,15.5,16.8,15.4z M19,13.5
l-2.9-1.7c-0.2-0.1-0.4-0.1-0.6,0l-2.9,1.7c-0.2,0.1-0.3,0.3-0.3,0.5v3.3c0,0.2,0.1,0.4,0.3,0.5l0.8,0.4c0.4,0.2,0.5,0.2,0.7,0.2
c0.5,0,0.9-0.3,0.9-0.9v-3.3c0,0,0-0.1-0.1-0.1h-0.4c-0.1,0-0.1,0-0.1,0.1v3.3c0,0.3-0.3,0.5-0.7,0.3l-0.8-0.5c0,0-0.1,0-0.1-0.1V14
c0,0,0-0.1,0.1-0.1l2.9-1.7c0,0,0.1,0,0.1,0l2.9,1.7c0,0,0,0,0,0.1v3.3c0,0,0,0.1,0,0.1l-2.9,1.7c0,0-0.1,0-0.1,0L15,18.6
c0,0,0,0-0.1,0c-0.2,0.1-0.3,0.1-0.4,0.2c0,0-0.1,0,0,0.1l1,0.6c0.1,0,0.2,0.1,0.3,0.1c0.1,0,0.2,0,0.3-0.1l2.9-1.7
c0.2-0.1,0.3-0.3,0.3-0.5V14C19.3,13.8,19.2,13.6,19,13.5z"
  />
</svg>
