<svg width="28" height="32" viewBox="0 0 28 32" fill="none" xmlns="http://www.w3.org/2000/svg">
  <path
    d="M13.7246 1.39429L26.2617 8.8L26.248 23.2L13.7291 30.6057L1.20114 23.3234L1.19657 8.71772L13.7246 1.39429Z"
    fill="white"
  />
  <path
    d="M13.7291 0L0 8.02286V24.0229L13.7291 32L27.4434 23.8857L27.4583 8.11429L13.7291 0ZM26.248 23.2L13.7291 30.6057L1.20114 23.3234V8.71771L13.7291 1.39429L26.2617 8.8L26.248 23.2Z"
    fill="#171C1E"
  />
  <path d="M24.6651 13.3188L18.2389 17.1017L18.2354 26.16L24.6891 22.36L24.6651 13.3188Z" fill="#1EA8FF" />
  <path
    d="M22.0514 11.7749L24.6651 13.3189L18.2389 17.1017L18.2354 26.16L15.2457 24.4229L15.2697 15.8572L22.0514 11.7749Z"
    fill="#50BFFF"
  />
  <path
    d="M21.1714 9.54286L21.1737 11.2183L14.1989 15.4263L14.2069 24.6823L12.584 25.6354L12.5794 14.6926L21.1714 9.54286Z"
    fill="#97FF27"
  />
  <path
    d="M18.3097 7.85257L21.1714 9.54286L12.5794 14.6926L12.584 25.6354L9.37943 23.7726L9.37371 13.0434L18.3097 7.85257Z"
    fill="#C2FF72"
  />
  <path
    d="M17.416 5.26401V7.28458L8.25485 12.656V24.1966L6.65257 25.1292L6.68343 11.7452L17.416 5.26401Z"
    fill="#FF274B"
  />
  <path
    d="M13.912 3.18172L2.90629 9.59315L2.90514 22.9383L6.67429 25.1291L6.68343 11.7451L17.4263 5.264L13.912 3.18172Z"
    fill="#FF5C77"
  />
</svg>
