<svg
  version="1.1"
  xmlns="http://www.w3.org/2000/svg"
  xmlns:xlink="http://www.w3.org/1999/xlink"
  x="0px"
  y="0px"
  width="32px"
  height="19.7px"
  viewBox="0 0 32 19.7"
  style="enable-background: new 0 0 32 19.7"
  xml:space="preserve"
>
  <defs>
    <symbol id="A" viewBox="-32 -19.7 64 39.4">
      <g>
        <path
          fill="#efcca3"
          d="M21.6-7.4c-0.1-2.2,0.2-4.1-0.8-5.8c-2.4-4.1-8.4-6.5-20.4-6.5v0.4H0.1h0.3v-0.4c-12,0-18.3,2.4-20.7,6.5
    c-0.9,1.7-0.8,3.6-1,5.8c-0.1,1.7-0.9,3.6-0.5,5.6c0.4,2.6,0.5,5.2,0.9,7.6c0.3,1.9,3,3.6,3.2,5.4c0.7,5.1,6,7.4,18,7.4v0.4H0.1
    h0.3v-0.4c12,0,17.1-2.3,17.7-7.4c0.3-1.9,2.7-3.5,3-5.4c0.4-2.4,0.5-5,0.9-7.6C22.5-3.8,21.7-5.6,21.6-7.4z"
        />
        <g>
          <path
            fill="#cdad8e"
            d="M0.2-5.6c2.1,0.1,3.6,1.4,5,2.6c1.6,1.4,4.4,2.4,5.6,3.7s2.6,2.5,3.2,4.4s0.7,4.4,0.7,5.1s0.3,0.5,1.3,0
      C18.4,9.1,21,6,21,6c-0.3,1.9-2.8,3.7-3.1,5.5c-0.6,5.1-5.5,7.5-17.8,7.5h0h0.3"
          />
          <path
            fill="#cdad8e"
            d="M8.1-9.5c0.5,1.5,2,6.8-1,5c0,0,1.3,0.7,2.1,3.6C10,2,12,2.3,12,2.3s3.3,0.6,5.8-1.5c2.1-1.8,2.4-5,1.5-7.4
      c-0.9-2.4-2.5-3.1-4.8-3.6C12.2-10.8,7.5-11.2,8.1-9.5L8.1-9.5z"
          />
        </g>
        <g>
          <path
            id="C_3_"
            fill="#020203"
            d="M9.6-3.8c0-2.4,2-4.4,4.4-4.4s4.4,2,4.4,4.4s-2,4.4-4.4,4.4S9.6-1.4,9.6-3.8z"
          />
        </g>
        <g>
          <path
            id="D_3_"
            fill="#ffffff"
            d="M11.7-5.7c0-0.6,0.5-1.1,1.1-1.1S14-6.4,14-5.7s-0.5,1.1-1.1,1.1S11.7-5.1,11.7-5.7z"
          />
        </g>
        <path
          fill="#efcca3"
          d="M7.3-4c0,0,3.9,2.7,6.1,5.3s2.1,3.1,2.1,3.1L14,5.2c0,0-2.2-4.1-4.9-5.7C6.3-2.1,6-3.4,6-3.4L7.3-4z"
        />
        <path
          fill="#cdad8e"
          d="M0.3-5.6C-1.8-5.6-3.4-4.2-4.9-3c-1.6,1.4-4.5,2.4-5.7,3.7s-2.7,2.5-3.2,4.4s-0.7,4.4-0.7,5.1s0.1,0.7-1.3,0
    C-18.3,9.2-20.9,6-20.9,6c0.3,1.9,2.8,3.7,3.1,5.5c0.7,5.1,5.6,7.5,17.9,7.5h0.3"
        />
        <path
          fill="#54342b"
          d="M11.9,2.8C9.5-0.1,5.7-2.9,0.3-2.9h0c-5.3,0-9.2,2.7-11.6,5.7c-2.5,3-2.3,4.2-2.3,7.1
    c0,10.5,3.7,7.5,6.1,8.8c2.5,1.2,5.1,0.8,7.7,0.8h0c2.7,0,5.2,0.3,7.7-0.9c2.4-1.2,6.1,1.8,6.1-8.6C14.3,7.2,14.4,5.9,11.9,2.8
    L11.9,2.8z"
        />
        <g>
          <path
            fill="#45294"
            d="M0.1-0.3c0,0-0.4,4.8-1,5.8l1.3-0.3L0.1-0.3z"
          />
          <path
            fill="#45294"
            d="M0.4-0.3c0,0,0.3,4.8,1,5.8L0.2,5.2L0.4-0.3z"
          />
        </g>
        <path
          fill="#54342b"
          d="M-3.8-1.4c-0.5-1.1,1.3-3,4.1-3c2.8,0,4.6,1.8,4.1,3S2.2,0.1,0.4,0.2C-1.4,0.1-3.3-0.2-3.8-1.4z"
        />
        <path
          fill="#020203"
          d="M0.4-0.3c0-0.2,1.7-0.2,2.6-0.8c0,0-1.8,0.6-2.2,0.4C0.3-1,0.2-1.6,0.2-1.6S0.1-1-0.2-0.8
    c-0.4,0.2-2.4-0.4-2.4-0.4l2.8,0.8c0,0.1,0,0.6,0,1l0.2,4.6C0.6,5.8,0.5,2,0.5,0.7L0.4-0.3L0.4-0.3z"
        />
      </g>
      <path
        fill="#804b42"
        stroke="#4e4d4d"
        stroke-width="2.078"
        stroke-linecap="round"
        stroke-linejoin="round"
        d="M0.5,6.4C1.3,6.4,2.8,7,4.2,8C2.9,6.5,1.3,5.5,0.5,5.5c-0.9,0-2.8,1.1-4.1,2.7C-2.3,7.1-0.5,6.4,0.5,6.4z"
      />
      <g>
        <g>
          <path
            fill="#45294"
            d="M0.1,15.3c-1.9,0-3.7-0.6-5.4-1c-0.4-0.1-0.7,0.2-1,0c-3.1-1-5.7-2.7-7.2-4.8v0.5c0,10.5,3.7,7.5,6.1,8.8
      c2.5,1.2,5.1,0.8,7.7,0.8h0c2.7,0,5.2,0.3,7.7-0.9c2.4-1.2,6.1,1.8,6.1-8.7c0-0.4,0-0.8,0-1.1c-1.4,2.3-4.1,4.2-7.4,5.3
      c-0.3,0.1-1-0.2-1.3-0.1C3.8,14.6,2.2,15.3,0.1,15.3L0.1,15.3z"
          />
          <path
            fill="#45294"
            d="M-4.6,9.6c0,0-1.2,3.7-0.4,5.4l-1.1-0.5C-6.2,14.5-5.3,10.7-4.6,9.6L-4.6,9.6z M5.3,9.6
      c0,0,1.2,3.7,0.4,5.4l1.1-0.5C6.8,14.5,5.9,10.7,5.3,9.6L5.3,9.6z"
          />
        </g>
        <path
          fill="#cdad8e"
          d="M-7.8-9.5c-0.5,1.5-2,6.8,1,5c0,0-1.3,0.7-2.1,3.6s-2.9,3.2-2.9,3.2s-3.3,0.6-5.8-1.5
    c-2.1-1.8-2.4-5-1.5-7.4s2.5-3.1,4.8-3.6C-12-10.8-7.3-11.2-7.8-9.5L-7.8-9.5z"
        />
        <path
          fill="#020203"
          d="M0.3,5.5c1.3,0,5.5,2.9,5.6,6.4v-0.2c0-3.7-3.4-6.6-5.6-6.6s-5.6,3-5.6,6.6V12C-5.2,8.4-1,5.5,0.3,5.5z"
        />
        <path
          fill="#331712"
          d="M0.8-2C0.7-2.4,0.8-2.8,1-2.8s0.5,0.2,0.6,0.6s0,0.8-0.2,0.8S0.9-1.6,0.8-2z M-1.3-2.2
    c0.1-0.4,0.4-0.7,0.6-0.6S-0.4-2.4-0.5-2s-0.4,0.7-0.6,0.6S-1.4-1.8-1.3-2.2z"
        />
        <g>
          <path
            id="C_2_"
            fill="#020203"
            d="M-17.9-3.8c0-2.4,2-4.4,4.4-4.4s4.4,2,4.4,4.4s-2,4.4-4.4,4.4S-17.9-1.4-17.9-3.8z"
          />
        </g>
        <g>
          <path
            id="D_2_"
            fill="#ffffff"
            d="M-13.5-5.7c0-0.6,0.5-1.1,1.1-1.1s1.1,0.5,1.1,1.1s-0.5,1.1-1.1,1.1S-13.5-5.1-13.5-5.7z"
          />
        </g>
      </g>
      <path
        fill="#804b42"
        stroke="#4e4d4d"
        stroke-width="2.078"
        stroke-linecap="round"
        stroke-linejoin="round"
        d="M1.6-3.8c0-0.1-1.1,0.5-1.4,0.5c-0.3,0-1.4-0.6-1.4-0.6L1.6-3.8L1.6-3.8z"
      />
      <g>
        <path
          fill="#efcca3"
          d="M-7.1-4c0,0-3.9,2.7-6.1,5.3s-2.1,3.1-2.1,3.1l1.5,0.7c0,0,2.2-4.1,4.9-5.7s3-2.8,3-2.8L-7.1-4z"
        />
        <g>
          <path
            fill="#cdad8e"
            d="M-15.8-12c0,0-1.3,3.7-4.3,5.2C-20.1-6.7-15.4-7.3-15.8-12z M15.8-12c0,0,1.3,3.7,4.3,5.2
      C20.1-6.7,15.4-7.3,15.8-12z M7.2-5.1c0,0-2.9-3.1-6.9-3.2c0,0,0.1,0,0,0s0,0,0,0c-4,0.1-6.9,3.2-6.9,3.2
      C-3-7.5-0.1-7.4,0.4-7.4C0.4-7.4,3.8-7.5,7.2-5.1z M3.8-11.6c0,0-1.5-2.1-3.5-2.1h0.1c-1.5,0.1-3.4,2.1-3.4,2.1
      c1.7-1.6,3.4-1.6,3.4-1.6S2-13.2,3.8-11.6z M-13.5,3.7c0,0-2.3,1.1-4,0.5h0c-1.5-0.8-2.2-3.4-2.2-3.4S-18.4,5.3-13.5,3.7z
        M13.9,3.7c0,0,2.3,1.1,4,0.5c2-0.8,2.3-3.4,2.3-3.4S18.7,5.3,13.9,3.7z M-10.8-12.2c1.3-0.3,3.4-0.3,5.1,0.3
      c2.1,0.7,0.4,3.5,0.8,3.6s1-1.9,5-1.7c4,0.2,4.5,2,5,1.7s-0.5-5,5.5-3.9c0,0-6.3-1.7-6,2.9c0,0-3.6-2.8-8.7-0.3
      C-4-9.6-2.7-13.9-10.8-12.2z M11.3-12.2c0.1,0,0.2,0.1,0.2,0.1S11.5-12.2,11.3-12.2z"
          />
          <path
            fill="#cdad8e"
            d="M-12.6-18.4c0,0-5.4,6.8-6.2,9.4c-0.8,2.6-1.4,13.5-2.1,15l-2.5-10.7l4.6-11.1L-12.6-18.4z M12.8-18.4
      c0,0,5.4,6.8,6.2,9.4c0.8,2.6,1.4,13.5,2.1,15l2.5-10.7L19-15.8L12.8-18.4z"
          />
        </g>
        <path
          fill="#54342b"
          d="M12.6-18.4c0,0,5.8,4.8,7.5,10.4s1,12.4,2.3,13.2c1.8,1.2,3.9-5.9,4.6-6.7c1.1-1.2,4.7-4.2,5-4.8
    c0.2-0.5-7.4-8.9-10.7-10.5C17.2-18.6,12.2-18.8,12.6-18.4z"
        />
        <path
          fill="#45294"
          d="M17.5-15.4c0,0,6.8,8.7,6.7,19.6L27-1.4C26.9-1.4,24.6-8.5,17.5-15.4L17.5-15.4z"
        />
        <path
          fill="#54342b"
          d="M-12.6-18.4c0,0-5.8,4.8-7.5,10.4s-1,12.4-2.3,13.2c-1.8,1.2-3.9-5.9-4.6-6.7c-1.1-1.2-4.7-4.2-5-4.8
    s7.4-8.9,10.7-10.5C-17.2-18.6-12.2-18.8-12.6-18.4z"
        />
        <path
          fill="#45294"
          d="M-17.5-15.4c0,0-6.8,8.7-6.7,19.6l-2.7-5.6C-26.9-1.4-24.5-8.5-17.5-15.4L-17.5-15.4z"
        />
        <path
          fill="#cdad8e"
          d="M-21.2,4.4c0,0,0.5,2.7,1.3,3.5c0.8,0.8,0.3-0.6,0.3-0.6s-0.8-0.5-0.7-3.9S-21.2,4.4-21.2,4.4L-21.2,4.4z
      M21.4,4.4c0,0-0.5,2.7-1.3,3.5s-0.3-0.6-0.3-0.6s0.8-0.5,0.7-3.9S21.4,4.4,21.4,4.4L21.4,4.4z"
        />
        <g>
          <g>
            <path
              id="E_11_"
              fill="#45294"
              d="M-5.3,2.4C-5.3,2.2-5.1,2-4.9,2s0.4,0.2,0.4,0.4s-0.2,0.4-0.4,0.4S-5.3,2.6-5.3,2.4z"
            />
          </g>
          <g>
            <path
              id="E_10_"
              fill="#45294"
              d="M-7.6,4.8c0-0.2,0.2-0.4,0.4-0.4s0.4,0.2,0.4,0.4s-0.2,0.4-0.4,0.4S-7.6,5-7.6,4.8z"
            />
          </g>
          <g>
            <path
              id="E_9_"
              fill="#45294"
              d="M-8.3,2.4C-8.3,2.2-8.1,2-7.9,2c0.2,0,0.4,0.2,0.4,0.4s-0.2,0.4-0.4,0.4
        C-8.1,2.8-8.3,2.6-8.3,2.4z"
            />
          </g>
          <g>
            <path
              id="E_8_"
              fill="#45294"
              d="M4.5,2.4C4.5,2.2,4.7,2,4.9,2s0.4,0.2,0.4,0.4S5.1,2.8,4.9,2.8S4.5,2.6,4.5,2.4z"
            />
          </g>
          <g>
            <path
              id="E_7_"
              fill="#45294"
              d="M6.8,4.8c0-0.2,0.2-0.4,0.4-0.4s0.4,0.2,0.4,0.4S7.4,5.2,7.2,5.2S6.8,5,6.8,4.8z"
            />
          </g>
          <g>
            <path
              id="E_6_"
              fill="#45294"
              d="M7.5,2.4C7.5,2.2,7.7,2,7.9,2c0.2,0,0.4,0.2,0.4,0.4S8.1,2.8,7.9,2.8C7.7,2.8,7.5,2.6,7.5,2.4z"
            />
          </g>
        </g>
      </g>
    </symbol>
  </defs>
  <use
    xlink:href="#A"
    width="64"
    height="39.4"
    x="-32"
    y="-19.7"
    transform="matrix(0.5 0 0 0.5 16 9.8434)"
    style="overflow: visible"
  />
</svg>
