<svg
  version="1.1"
  xmlns="http://www.w3.org/2000/svg"
  xmlns:xlink="http://www.w3.org/1999/xlink"
  x="0px"
  y="0px"
  width="32px"
  height="12px"
  viewBox="0 0 32 12"
  style="enable-background: new 0 0 32 12"
  xml:space="preserve"
>
  <path fill="#3d3d3d" d="M23.6,9.9l0.9-2.3h2.7L25.9,4l1.6-4L32,12h-3.3l-0.8-2.2H23.6z" />
  <path
    fill="#4c3d90"
    d="M20.7,12l4.9-12h-3.2L19,7.8L16.6,0h-2.5l-2.5,7.8L9.8,4.2l-1.6,5L9.9,12H13l2.3-7l2.2,7L20.7,12z"
  />
  <path
    fill="#3d3d3d"
    d="M3.1,7.9h2c0.6,0,1.1-0.1,1.6-0.2l0.5-1.6l1.4-4.4C8.5,1.5,8.4,1.4,8.2,1.2C7.5,0.4,6.4,0,5,0H0v12h3.1V7.9z M5.7,2.8C6,3.1,6.1,3.4,6.1,3.9c0,0.5-0.1,0.9-0.4,1.2C5.5,5.4,4.9,5.6,4.2,5.6H3.1V2.3h1.2C4.9,2.3,5.4,2.5,5.7,2.8L5.7,2.8z"
  />
</svg>
