<svg
  version="1.1"
  xmlns="http://www.w3.org/2000/svg"
  xmlns:xlink="http://www.w3.org/1999/xlink"
  x="0px"
  y="0px"
  width="32px"
  height="28.6px"
  viewBox="0 0 32 28.6"
  style="enable-background: new 0 0 32 28.6"
  xml:space="preserve"
>
  <g transform="matrix(1.25305,0,0,1.25305,-16.3076,4.57191)">
    <circle fill="#75cbed" clip-rule="evenodd" full-rule="evenodd" cx="25.8" cy="7.7" r="2.3" />
    <path
      fill="#75cbed"
      d="M25.8,16.3c1.8,1.8,3.6,2.8,5.1,2.8c0.5,0,0.9-0.1,1.3-0.3c1.3-0.8,1.8-2.6,1.3-5.3c-0.1-0.5-0.2-1-0.3-1.5
c0.5-0.2,1-0.3,1.4-0.5c2.5-1,3.9-2.3,3.9-3.8c0-1.5-1.4-2.9-3.9-3.8c-0.5-0.2-0.9-0.3-1.4-0.5c0.1-0.5,0.2-1,0.3-1.5
c0.4-2.7-0.1-4.6-1.4-5.4c-0.4-0.2-0.8-0.3-1.3-0.3c-1.4,0-3.3,1.1-5.1,2.8c-1.8-1.8-3.6-2.8-5.1-2.8c-0.5,0-0.9,0.1-1.3,0.3
c-1.3,0.8-1.8,2.6-1.3,5.3c0.1,0.5,0.2,1,0.3,1.5c-0.5,0.2-1,0.3-1.4,0.5c-2.5,1-3.9,2.3-3.9,3.8c0,1.5,1.4,2.9,3.9,3.8
c0.5,0.2,0.9,0.3,1.4,0.5c-0.1,0.5-0.2,1-0.3,1.5c-0.4,2.7,0.1,4.6,1.3,5.3c0.4,0.2,0.8,0.3,1.3,0.3C22.1,19.1,24,18.1,25.8,16.3z
  M24.4,12.9c0.5,0,0.9,0,1.4,0s1,0,1.4,0c-0.5,0.6-0.9,1.2-1.4,1.7C25.3,14.1,24.8,13.5,24.4,12.9z M21.3,10.3
c0.3,0.4,0.5,0.8,0.8,1.2c-0.8-0.1-1.5-0.2-2.2-0.4c0.2-0.7,0.5-1.4,0.8-2.1C20.8,9.5,21,9.9,21.3,10.3z M19.8,4.3
C20.5,4.2,21.2,4,22,3.9c-0.3,0.4-0.5,0.8-0.8,1.2S20.8,6,20.6,6.4C20.3,5.7,20,5,19.8,4.3z M21.2,7.7c0.3-0.7,0.7-1.4,1.1-2
c0.4-0.7,0.8-1.3,1.2-2c0.8-0.1,1.5-0.1,2.3-0.1c0.8,0,1.6,0,2.3,0.1c0.5,0.7,0.9,1.3,1.2,2c0.4,0.7,0.8,1.4,1.1,2
c-0.3,0.7-0.7,1.4-1.1,2c-0.4,0.7-0.8,1.3-1.2,2c-0.8,0.1-1.5,0.1-2.3,0.1c-0.8,0-1.6,0-2.3-0.1c-0.5-0.7-0.9-1.3-1.2-2
C21.9,9.1,21.5,8.4,21.2,7.7z M31,6.4l-0.7-1.3c-0.3-0.4-0.5-0.8-0.8-1.2c0.8,0.1,1.5,0.2,2.2,0.4C31.6,5,31.3,5.7,31,6.4z M31,9.1
c0.3,0.7,0.6,1.4,0.8,2.1c-0.7,0.2-1.4,0.3-2.2,0.4c0.3-0.4,0.5-0.8,0.8-1.2C30.5,9.9,30.8,9.5,31,9.1z M31.6,17.8
c-0.2,0.1-0.5,0.2-0.7,0.2c-1.2,0-2.8-1-4.3-2.5c0.7-0.8,1.4-1.7,2.1-2.6c1.2-0.1,2.3-0.3,3.4-0.5c0.1,0.5,0.2,0.9,0.3,1.4
C32.7,15.8,32.4,17.3,31.6,17.8z M32.9,4.6c2.8,0.8,4.5,2,4.5,3.2c0,1-1.2,2-3.2,2.7c-0.4,0.2-0.9,0.3-1.3,0.4
c-0.3-1-0.7-2.1-1.2-3.2C32.2,6.7,32.6,5.6,32.9,4.6z M30.9-2.5c0.3,0,0.5,0.1,0.7,0.2c0.8,0.5,1.1,2,0.8,4.1
c-0.1,0.4-0.2,0.9-0.3,1.4c-1.1-0.2-2.2-0.4-3.4-0.5c-0.7-1-1.4-1.9-2.1-2.6C28.1-1.5,29.6-2.5,30.9-2.5z M27.2,2.5
c-0.5,0-0.9,0-1.4,0s-1,0-1.4,0c0.5-0.6,0.9-1.2,1.4-1.7C26.3,1.4,26.7,2,27.2,2.5z M20-2.3c0.2-0.1,0.5-0.2,0.7-0.2
c1.2,0,2.8,1,4.3,2.5c-0.7,0.8-1.4,1.7-2.1,2.6c-1.2,0.1-2.3,0.3-3.4,0.5c-0.1-0.5-0.2-0.9-0.3-1.4C18.9-0.3,19.1-1.8,20-2.3z
  M18.7,10.9c-2.8-0.8-4.5-2-4.5-3.2c0-1,1.2-2,3.2-2.7c0.4-0.2,0.9-0.3,1.3-0.4c0.3,1,0.7,2.1,1.2,3.2C19.4,8.8,19,9.9,18.7,10.9z
  M19.2,13.7c0.1-0.4,0.2-0.9,0.3-1.4c1.1,0.2,2.2,0.4,3.4,0.5c0.7,1,1.4,1.9,2.1,2.6c-1.5,1.5-3,2.5-4.3,2.5
c-0.3,0-0.5-0.1-0.7-0.2C19.1,17.3,18.9,15.8,19.2,13.7z"
    />
  </g>
</svg>
