<?xml version="1.0" encoding="UTF-8" standalone="no"?>
<svg version="1.1" id="svg1" xml:space="preserve" width="968" height="967" xmlns="http://www.w3.org/2000/svg">
  <g transform="matrix(3.7795276,0,0,3.7795276,-9154.9671,-1013.3759)">
    <path
      style="fill: #000000; stroke-width: 1"
      d="m 2596.3058,437.04261 c -0.6812,-0.0338 -2.8676,-0.153 -4.8588,-0.26488 -1.9912,-0.11187 -5.8496,-0.37421 -8.5744,-0.58297 -2.7247,-0.20876 -5.5972,-0.4669 -6.3832,-0.57365 -0.7859,-0.10674 -2.4579,-0.31499 -3.7155,-0.46277 -1.2576,-0.14777 -2.9725,-0.35455 -3.8108,-0.45951 -0.8384,-0.10495 -2.1246,-0.27471 -2.8582,-0.37722 -0.7335,-0.10251 -2.3627,-0.36657 -3.6203,-0.5868 -1.2575,-0.22022 -3.2725,-0.5722 -4.4777,-0.78217 -1.2052,-0.20998 -2.7057,-0.46742 -3.3345,-0.5721 -0.6288,-0.10468 -2.2151,-0.41107 -3.525,-0.68088 -1.31,-0.26981 -2.6819,-0.55543 -3.0487,-0.63473 -0.3668,-0.0793 -1.5243,-0.33321 -2.5723,-0.56425 -1.048,-0.23104 -2.8915,-0.62863 -4.0966,-0.88352 -1.2052,-0.2549 -2.8759,-0.63971 -3.7126,-0.85513 -0.8367,-0.21542 -1.5515,-0.42181 -1.5883,-0.45864 -0.037,-0.0368 0.1062,-0.15963 0.3179,-0.27291 0.2921,-0.15635 1.0189,-0.0885 3.0173,0.28165 1.4479,0.26818 3.3185,0.60571 4.1569,0.75007 0.8383,0.14436 2.1674,0.35346 2.9534,0.46468 0.7859,0.11122 1.9864,0.2919 2.6676,0.40152 0.6812,0.10961 1.7958,0.28174 2.477,0.38251 0.6812,0.10078 1.8387,0.26539 2.5723,0.3658 0.7336,0.10042 1.934,0.27172 2.6676,0.38068 0.7336,0.10895 2.0198,0.28661 2.8582,0.39481 0.8383,0.1082 2.2531,0.27664 3.1439,0.37431 0.8908,0.0977 2.8485,0.30712 4.3505,0.46544 1.5021,0.15831 6.1751,0.5878 10.3846,0.95441 5.5247,0.48116 9.6411,0.72142 14.7989,0.86376 4.8526,0.13391 9.0558,0.13564 13.0995,0.005 3.2749,-0.1055 7.1518,-0.32389 8.6153,-0.48533 1.4635,-0.16143 4.3146,-0.5891 6.3357,-0.95037 2.0211,-0.36128 4.0177,-0.73729 4.4369,-0.83559 0.4191,-0.0983 1.4052,-0.34631 2.1912,-0.55113 0.786,-0.20481 2.458,-0.71921 3.7155,-1.1431 1.2576,-0.4239 2.6295,-0.91252 3.0487,-1.08584 0.4193,-0.1733 1.3723,-0.60855 2.1179,-0.9672 0.7456,-0.35865 2.2032,-1.13199 3.2389,-1.71855 1.0357,-0.58655 3.0408,-1.83982 4.4558,-2.78505 1.4149,-0.94522 3.1399,-2.18084 3.8333,-2.74583 0.6933,-0.56499 1.8937,-1.69701 2.6675,-2.51562 0.7739,-0.8186 1.7929,-1.94362 2.2645,-2.50005 0.4716,-0.55641 1.4841,-1.92273 2.2501,-3.03625 0.766,-1.11353 1.9548,-3.03209 2.6419,-4.26346 l 1.2491,-2.23888 h 1.9916 c 1.9768,0 1.9907,0.003 1.8619,0.42873 -0.071,0.23579 -0.3927,0.94318 -0.7143,1.57197 -0.3215,0.62878 -1.1643,2.1293 -1.8728,3.33448 -0.7084,1.20518 -1.9147,3.0631 -2.6806,4.12872 -0.7658,1.06563 -1.8596,2.4804 -2.4305,3.14394 -0.5709,0.66355 -1.773,1.93528 -2.6712,2.82606 -0.8983,0.89078 -2.287,2.15359 -3.0861,2.80625 -0.7991,0.65265 -2.4265,1.83665 -3.6167,2.63112 -1.19,0.79445 -3.407,2.06888 -4.9266,2.83205 -1.5196,0.76317 -3.461,1.65596 -4.3143,1.98399 -0.8533,0.32802 -2.1824,0.80632 -2.9534,1.06287 -0.771,0.25655 -2.3022,0.72018 -3.4026,1.03028 -1.1004,0.3101 -2.3866,0.65718 -2.8581,0.77129 -0.4717,0.11411 -1.9722,0.41741 -3.3345,0.67402 -1.3624,0.25661 -3.2488,0.56063 -4.192,0.67561 -0.9431,0.11497 -3.3011,0.34856 -5.2399,0.51908 -2.2329,0.1964 -5.9346,0.32476 -10.0987,0.3502 -3.6155,0.0221 -7.131,0.0125 -7.8122,-0.0213 z m -102.0229,-11.67524 c -0.067,-0.10811 0.2064,-0.52124 0.6071,-0.91805 0.4006,-0.39682 1.5644,-1.17958 2.5863,-1.73947 1.0218,-0.55988 3.5455,-1.86848 5.6081,-2.908 2.0628,-1.03951 4.4819,-2.155 5.3758,-2.47886 0.894,-0.32386 3.0401,-1.05475 4.7693,-1.6242 1.7292,-0.56944 3.8728,-1.23937 4.7636,-1.48874 0.8907,-0.24936 2.5199,-0.62876 3.6203,-0.84311 1.1004,-0.21434 3.2439,-0.60279 4.7635,-0.86321 1.5196,-0.26041 4.0491,-0.64999 5.621,-0.86572 1.5833,-0.21729 4.9405,-0.47204 7.5264,-0.57114 2.85,-0.10922 6.5238,-0.11162 9.4318,-0.006 2.62,0.095 5.7925,0.26352 7.0501,0.37447 1.2575,0.11096 3.787,0.36936 5.621,0.57422 1.8339,0.20486 4.7921,0.54445 6.5737,0.75464 1.7816,0.21019 4.311,0.55455 5.6209,0.76524 1.31,0.21069 3.668,0.5589 5.24,0.7738 1.5719,0.21491 3.9299,0.56111 5.2399,0.76934 1.3099,0.20823 4.7397,0.84702 7.6217,1.41953 2.8819,0.5725 5.6257,1.12019 6.0973,1.21706 0.4716,0.0969 1.4147,0.27539 2.0959,0.39669 0.6812,0.12129 1.6244,0.29452 2.096,0.38496 0.4716,0.0904 1.4576,0.25878 2.1913,0.37409 0.7335,0.11531 1.8053,0.29031 2.3817,0.38887 0.5764,0.0986 1.8197,0.26587 2.7629,0.37181 0.9432,0.10593 2.4732,0.28345 3.4,0.39449 0.927,0.11103 3.6107,0.20585 5.964,0.2107 2.3534,0.005 5.0248,-0.0942 5.9365,-0.22007 0.9117,-0.12589 2.215,-0.34179 2.8962,-0.47977 0.6812,-0.13799 1.753,-0.38794 2.3818,-0.55545 0.6288,-0.16753 1.6149,-0.48879 2.1912,-0.71392 0.5764,-0.22513 1.6503,-0.68317 2.3865,-1.01788 0.7363,-0.3347 1.9367,-0.99243 2.6677,-1.46161 0.7309,-0.46919 1.9873,-1.38326 2.7919,-2.03128 0.8046,-0.64802 2.0051,-1.76387 2.6678,-2.47966 0.6628,-0.7158 1.8051,-2.12476 2.5385,-3.13102 l 1.3336,-1.82956 2.1484,-0.009 2.1485,-0.009 -0.3173,0.61926 c -0.1745,0.34059 -0.788,1.30521 -1.3632,2.1436 -0.5753,0.83838 -1.4963,2.08167 -2.0468,2.76286 -0.5505,0.68119 -1.5898,1.83199 -2.3096,2.55736 -0.7198,0.72536 -1.8087,1.73492 -2.4197,2.24346 -0.6111,0.50854 -1.7258,1.33851 -2.4771,1.84439 -0.7513,0.50587 -1.9233,1.21728 -2.6045,1.5809 -0.6812,0.36362 -1.8388,0.90163 -2.5724,1.19556 -0.7336,0.29393 -1.9339,0.7268 -2.6676,0.96193 -0.7335,0.23512 -1.7196,0.5235 -2.1912,0.64084 -0.4716,0.11734 -1.5862,0.34074 -2.477,0.49646 -0.8908,0.15571 -2.6486,0.37013 -3.9061,0.47648 -1.2576,0.10635 -3.2726,0.1939 -4.4777,0.19456 -1.2052,6.5e-4 -3.3917,-0.088 -4.8589,-0.19698 -1.4672,-0.109 -3.9966,-0.36526 -5.621,-0.56948 -1.6243,-0.20421 -3.4678,-0.45338 -4.0967,-0.5537 -0.6287,-0.10032 -1.6148,-0.26734 -2.1912,-0.37116 -0.5763,-0.10383 -1.348,-0.24005 -1.7148,-0.30273 -0.3668,-0.0627 -1.0957,-0.19734 -1.6197,-0.29925 -0.5239,-0.10192 -2.0673,-0.40913 -3.4297,-0.68268 -1.3623,-0.27355 -2.6914,-0.53652 -2.9534,-0.58438 -0.262,-0.0479 -1.2909,-0.2489 -2.2865,-0.44675 -0.9956,-0.19787 -3.0535,-0.62508 -4.573,-0.94937 -1.5196,-0.32429 -3.1916,-0.66466 -3.7156,-0.75638 -0.524,-0.0917 -1.853,-0.3482 -2.9533,-0.56996 -1.1004,-0.22176 -3.6299,-0.69181 -5.621,-1.04456 -1.9912,-0.35275 -4.7779,-0.82034 -6.1927,-1.03908 -1.4147,-0.21875 -3.8584,-0.56479 -5.4304,-0.76898 -1.5719,-0.20419 -4.5301,-0.52138 -6.5737,-0.70486 -2.7176,-0.244 -5.6602,-0.33584 -10.9562,-0.34196 -4.4889,-0.005 -8.2905,0.0862 -10.0034,0.24038 -1.5196,0.1368 -4.0062,0.42047 -5.5257,0.63037 -1.5196,0.20989 -3.8775,0.59635 -5.2399,0.85878 -1.3624,0.26243 -3.849,0.81798 -5.5257,1.23455 -1.6768,0.41658 -3.3059,0.83822 -3.6204,0.937 -0.3143,0.0988 -1.6434,0.52775 -2.9533,0.95327 -1.31,0.42552 -3.1964,1.07921 -4.1919,1.45266 -0.9956,0.37344 -2.0675,0.79187 -2.3818,0.92983 -0.3144,0.13796 -1.0004,0.41964 -1.5244,0.62595 -0.5239,0.2063 -1.4243,0.59179 -2.0006,0.85663 -0.5764,0.26484 -2.2913,1.00948 -3.8109,1.65475 -1.5196,0.64527 -2.8613,1.2155 -2.9817,1.26718 -0.1204,0.0517 -0.2736,0.006 -0.3405,-0.10262 z m 71.822,-1.10383 c -1.048,-0.0283 -4.7778,-0.18351 -8.2886,-0.34497 -3.5107,-0.16144 -8.441,-0.41945 -10.9561,-0.57334 -2.5152,-0.15389 -5.8163,-0.36823 -7.3359,-0.47633 -1.5195,-0.1081 -3.7918,-0.27891 -5.0493,-0.37959 -1.2576,-0.10068 -3.5727,-0.27352 -5.1447,-0.38408 -1.5719,-0.11057 -3.8441,-0.28017 -5.0493,-0.37692 -1.2052,-0.0967 -3.5631,-0.26712 -5.2399,-0.37862 -1.6768,-0.11151 -3.9061,-0.28704 -4.9541,-0.39008 -1.048,-0.10304 -2.5128,-0.18685 -3.2551,-0.18626 -0.7423,5.9e-4 -1.4087,-0.058 -1.4809,-0.13015 -0.072,-0.0722 0.6638,-0.40304 1.6354,-0.73525 0.9717,-0.33221 2.4397,-0.83544 3.2623,-1.1183 0.9077,-0.31219 1.6939,-0.47194 2.0007,-0.40652 0.2778,0.0593 2.1343,0.19531 4.1255,0.30228 1.9911,0.10698 5.035,0.27621 6.7642,0.37606 1.7292,0.0999 4.6444,0.27096 6.4785,0.38025 1.8339,0.10928 4.792,0.27876 6.5736,0.3766 1.7816,0.0979 4.997,0.26759 7.1454,0.37719 2.1483,0.1096 6.3069,0.34356 9.2412,0.51991 3.5349,0.21243 8.2607,0.32471 14.0048,0.33272 5.2011,0.007 10.423,-0.0917 13.0522,-0.24748 l 4.3824,-0.25957 4.7636,0.9798 c 2.6199,0.5389 5.0636,1.05047 5.4304,1.13683 0.6286,0.14799 0.6395,0.16344 0.1906,0.26863 -0.262,0.0614 -1.8054,0.24414 -3.4298,0.40614 -1.6244,0.16201 -4.1109,0.38306 -5.5257,0.49122 -1.4148,0.10817 -4.5444,0.27944 -6.9548,0.38059 -2.4103,0.10116 -6.6547,0.16745 -9.4318,0.1473 -2.7772,-0.0202 -5.9068,-0.0598 -6.9548,-0.0881 z m -143.7643,-0.72565 c 0.1302,-0.15686 0.8052,-0.46324 1.5,-0.68084 0.6948,-0.21761 2.7638,-0.78237 4.5978,-1.25504 1.834,-0.47267 4.0633,-1.02458 4.9541,-1.22646 0.8907,-0.20189 2.477,-0.54632 3.525,-0.76538 1.048,-0.21907 2.6771,-0.56373 3.6203,-0.76594 0.9432,-0.2022 2.3151,-0.4541 3.0487,-0.55979 0.7336,-0.10568 2.0197,-0.27989 2.8581,-0.38715 0.8384,-0.10724 2.1246,-0.27203 2.8581,-0.36618 0.7336,-0.0942 2.0198,-0.25726 2.8582,-0.36246 0.8383,-0.1052 3.3678,-0.27807 5.621,-0.38415 2.2531,-0.10609 6.0687,-0.24954 8.479,-0.3188 2.4104,-0.0693 8.1553,-0.0268 12.7664,0.0944 4.6111,0.1212 10.0987,0.30618 12.1947,0.41108 2.0959,0.10489 5.2684,0.27734 7.05,0.38321 1.7816,0.10587 4.0324,0.24073 5.0018,0.2997 0.9693,0.059 1.7606,0.16351 1.7583,0.23233 0,0.0688 -0.9435,0.61704 -2.0916,1.21828 l -2.0876,1.09315 -3.4816,-0.19165 c -1.915,-0.1054 -6.4828,-0.3248 -10.1507,-0.48755 -3.6679,-0.16276 -10.8705,-0.34418 -16.0056,-0.40317 -6.0244,-0.0692 -10.9249,-0.0278 -13.8142,0.11677 -2.4628,0.12322 -5.4638,0.30623 -6.669,0.40669 -1.2052,0.10046 -3.3059,0.31563 -4.6683,0.47815 -1.3624,0.16253 -4.0633,0.54804 -6.0021,0.85671 -1.9387,0.30867 -3.9108,0.64029 -4.3824,0.73695 -0.4716,0.0967 -1.4148,0.27423 -2.096,0.3946 -0.6812,0.12037 -1.5814,0.29314 -2.0006,0.38393 -0.4192,0.0908 -1.2767,0.25605 -1.9055,0.36725 -0.6288,0.1112 -2.1263,0.37417 -3.3277,0.58436 -1.2015,0.2102 -2.6482,0.38218 -3.2149,0.38218 -0.8934,0 -0.999,-0.038 -0.7937,-0.28521 z m 190.5423,-4.40702 c -0.262,-0.037 -1.2051,-0.15796 -2.0959,-0.26874 -0.8908,-0.11077 -2.2198,-0.28611 -2.9534,-0.38963 -0.7336,-0.10352 -1.6339,-0.2387 -2.0007,-0.30039 -0.5607,-0.0943 -0.1512,-0.24024 2.5723,-0.91656 1.7816,-0.44241 3.7965,-0.98164 4.4777,-1.19831 0.6812,-0.21666 2.3532,-0.79082 3.7156,-1.27591 1.3624,-0.48509 3.849,-1.56037 5.5257,-2.38951 1.6768,-0.82914 3.4248,-1.73121 3.8844,-2.0046 0.4597,-0.27339 1.4887,-0.9348 2.2865,-1.4698 0.798,-0.535 1.9277,-1.34429 2.5106,-1.79845 l 1.0599,-0.82572 h 2.739 2.739 l -0.5596,0.59297 c -0.3078,0.32614 -1.4171,1.29507 -2.4651,2.15318 -1.048,0.85811 -2.4627,1.95067 -3.1439,2.42791 -0.6812,0.47724 -1.8816,1.2555 -2.6676,1.72947 -0.786,0.47397 -2.4151,1.38127 -3.6203,2.01622 -1.2052,0.63495 -3.1344,1.53874 -4.2872,2.00841 -1.1528,0.46968 -2.8599,1.11827 -3.7937,1.44133 -1.052,0.36393 -2.0304,0.57748 -2.5723,0.56141 -0.481,-0.0143 -1.089,-0.0563 -1.351,-0.0933 z M 2423.2938,404.7932 c 0,-0.0914 0.3787,-1.22755 0.8415,-2.52468 0.4629,-1.29714 1.7569,-4.97361 2.8756,-8.16995 1.1187,-3.19635 2.1976,-6.26169 2.3976,-6.81187 0.2001,-0.5502 0.5289,-1.4505 0.731,-2.0007 0.202,-0.55018 0.6349,-1.77203 0.9622,-2.71522 0.3271,-0.94318 0.8139,-2.29739 1.0818,-3.00936 0.2679,-0.71196 0.8161,-1.71076 1.2183,-2.21955 0.4643,-0.58744 1.1002,-1.105 1.7424,-1.41808 0.5561,-0.27114 1.473,-0.57994 2.0375,-0.68621 0.6331,-0.11917 6.2285,-0.1932 14.6018,-0.1932 h 13.5754 l -0.2505,0.71453 c -0.1378,0.39299 -0.6852,1.94687 -1.2163,3.45305 -0.5311,1.50618 -0.9656,2.77091 -0.9656,2.8105 0,0.0396 -4.7703,0.0719 -10.6006,0.0719 -7.3917,0 -10.8203,0.0658 -11.3265,0.21749 -0.3993,0.11962 -1.0208,0.4605 -1.3811,0.7575 -0.5266,0.43403 -0.8075,0.96162 -1.4314,2.68827 -0.427,1.18155 -1.5147,4.24899 -2.417,6.81654 -0.9024,2.56755 -1.803,5.097 -2.0013,5.62099 -0.1984,0.52399 -0.8143,2.25903 -1.3687,3.85563 l -1.0081,2.90293 -4.049,0.003 c -2.227,0.001 -4.049,-0.072 -4.049,-0.16342 z m 38.0237,-0.28443 c 0.062,-0.24789 0.6103,-1.81272 1.2181,-3.4774 l 1.105,-3.02669 9.6326,-0.0953 c 9.4036,-0.093 9.6454,-0.10476 10.1704,-0.49443 0.2957,-0.21953 0.7781,-0.8965 1.0718,-1.50437 0.2936,-0.60787 0.508,-1.32857 0.4763,-1.60154 -0.043,-0.37453 -0.2213,-0.55212 -0.7245,-0.72374 -0.4708,-0.16055 -2.9117,-0.23059 -8.3016,-0.23818 -6.2928,-0.009 -7.8083,-0.0623 -8.6217,-0.30383 -0.6033,-0.17918 -1.2756,-0.56797 -1.7297,-1.00034 -0.4839,-0.46088 -0.8234,-1.00598 -0.9743,-1.56471 -0.1344,-0.4981 -0.1832,-1.29663 -0.1163,-1.90542 0.063,-0.57639 0.2534,-1.43383 0.4226,-1.90542 0.1693,-0.47158 0.9784,-2.80794 1.7983,-5.19188 0.8199,-2.38394 1.6753,-4.59379 1.901,-4.91076 0.2257,-0.31698 0.7676,-0.76731 1.2042,-1.00074 l 0.7938,-0.4244 13.3694,-0.0537 13.3695,-0.0537 -0.3785,1.10173 c -0.2082,0.60596 -0.452,1.27322 -0.542,1.48281 -0.09,0.2096 -0.3917,1.02417 -0.6707,1.81015 -0.2789,0.78599 -0.5891,1.70773 -0.6894,2.04832 l -0.1822,0.61927 -9.1846,7.2e-4 c -5.7491,6.6e-4 -9.4507,0.0749 -9.8957,0.19849 -0.4308,0.11967 -0.8997,0.44504 -1.1903,0.82606 -0.2707,0.35488 -0.5327,1.01672 -0.6017,1.51986 -0.097,0.70782 -0.052,0.96896 0.2196,1.26885 0.3297,0.36426 0.6068,0.37759 7.8486,0.37759 6.2213,0 7.7383,0.0527 8.8583,0.30738 1.0803,0.24569 1.516,0.45906 2.1715,1.06328 0.451,0.41575 0.9197,1.05761 1.0414,1.42635 0.1216,0.36874 0.1845,1.19786 0.1397,1.84248 -0.052,0.7422 -0.3697,1.94071 -0.8674,3.268 -0.4323,1.15278 -1.3105,3.50529 -1.9515,5.22781 -0.6411,1.72252 -1.3969,3.48027 -1.6795,3.90611 -0.3019,0.45469 -0.8644,0.95121 -1.3629,1.20298 l -0.8489,0.42872 h -13.206 -13.2059 z m 32.2881,0.31294 c 0,-0.0814 0.482,-1.51997 1.0688,-3.19674 0.5868,-1.67677 1.1104,-3.19872 1.1636,-3.38211 0.09,-0.31171 0.7042,-0.33345 9.4131,-0.33345 9.0167,0 9.3433,-0.0127 10.1534,-0.39345 0.4604,-0.21639 0.9759,-0.54688 1.1456,-0.73444 0.1697,-0.18754 0.4716,-0.80362 0.6709,-1.36906 l 0.3622,-1.02808 -8.2265,-0.11088 c -7.6393,-0.10296 -8.312,-0.13908 -9.4233,-0.50582 -0.6582,-0.21723 -1.4865,-0.61601 -1.8407,-0.88619 -0.375,-0.28593 -0.7816,-0.85135 -0.9731,-1.35284 -0.2491,-0.65193 -0.2992,-1.15118 -0.2063,-2.05161 0.071,-0.69139 0.6469,-2.70689 1.3737,-4.8103 0.688,-1.99116 1.7066,-4.94932 2.2636,-6.57369 l 1.0125,-2.9534 4.1153,-0.0514 4.1152,-0.0513 -0.8729,2.43312 c -0.4802,1.33821 -1.2929,3.63353 -1.8062,5.1007 -0.5132,1.46717 -0.9336,2.97862 -0.9341,3.35879 -5e-4,0.41099 0.1267,0.7972 0.3138,0.9527 0.2461,0.20447 1.4826,0.27515 5.6686,0.32405 2.9447,0.0344 5.8105,0.006 6.3686,-0.0632 0.72,-0.0892 1.1736,-0.27335 1.5618,-0.63416 0.4253,-0.39534 0.85,-1.37774 1.9082,-4.4146 0.7486,-2.14836 1.6032,-4.59206 1.8991,-5.43045 l 0.5381,-1.52433 4.0394,-0.0515 4.0395,-0.0515 -0.1311,0.52784 c -0.072,0.29032 -0.8581,2.58569 -1.7465,5.10084 -0.8884,2.51516 -1.8317,5.17322 -2.0961,5.90681 -0.2645,0.73358 -0.6383,1.80538 -0.8309,2.38177 -0.1925,0.57639 -0.8373,2.41988 -1.4328,4.09665 -0.5955,1.67677 -1.4475,4.12047 -1.8932,5.43045 -0.4458,1.30997 -0.9866,2.72474 -1.2018,3.14393 -0.2151,0.41919 -0.7211,1.09547 -1.1244,1.50285 -0.4032,0.40737 -1.2047,0.96471 -1.7811,1.23852 l -1.048,0.49785 -12.8139,0.0528 c -7.0477,0.029 -12.8131,-0.0138 -12.8121,-0.0953 z m 35.0578,0.0225 c 0,-0.0634 0.3773,-1.19952 0.8384,-2.52468 0.461,-1.32516 0.9996,-2.8381 1.1968,-3.3621 l 0.3585,-0.9527 9.4697,-0.0494 c 8.7082,-0.0455 9.5199,-0.077 10.0928,-0.39261 0.3945,-0.21725 0.85,-0.75847 1.2417,-1.47492 0.3855,-0.70514 0.6009,-1.3472 0.5716,-1.70336 -0.038,-0.46567 -0.1707,-0.61378 -0.7139,-0.79905 -0.4708,-0.16055 -2.9117,-0.23059 -8.3016,-0.23818 -6.431,-0.009 -7.7971,-0.059 -8.6644,-0.31654 -0.6676,-0.19823 -1.2764,-0.55248 -1.7312,-1.00725 -0.4271,-0.42708 -0.7913,-1.03416 -0.9313,-1.552 -0.1264,-0.46779 -0.1856,-1.27925 -0.1317,-1.80324 0.054,-0.52399 0.3577,-1.7244 0.675,-2.66758 0.3173,-0.94319 1.1312,-3.33259 1.8088,-5.30978 0.6777,-1.9772 1.4144,-3.84143 1.6371,-4.14275 0.2228,-0.3013 0.7674,-0.74145 1.2103,-0.97809 l 0.8053,-0.43027 13.2902,-0.0538 c 7.3097,-0.0296 13.2926,0.0133 13.2955,0.0953 0,0.082 -0.5264,1.67104 -1.1762,3.53121 l -1.1812,3.38211 -9.1607,7.2e-4 c -5.6316,6.5e-4 -9.4301,0.0758 -9.8597,0.19517 -0.3921,0.10889 -0.9567,0.48777 -1.2861,0.863 -0.5019,0.57154 -0.5873,0.81951 -0.5873,1.70355 0,0.82791 0.074,1.07406 0.3685,1.23189 0.2359,0.12623 3.0658,0.19826 7.8598,0.20006 5.9837,0.002 7.7352,0.0604 8.7032,0.28848 0.6664,0.15711 1.539,0.52026 1.9391,0.80699 0.4,0.28672 0.8709,0.76368 1.0464,1.05991 0.1756,0.29621 0.3625,1.02503 0.4153,1.6196 0.059,0.6657 -0.014,1.48365 -0.1903,2.12901 -0.1576,0.57638 -0.7728,2.33413 -1.367,3.9061 -0.5942,1.57198 -1.1502,3.02962 -1.2355,3.23922 -0.085,0.20959 -0.3924,1.02416 -0.6824,1.81014 -0.29,0.78599 -0.7527,1.77062 -1.0281,2.18807 -0.2754,0.41744 -0.8414,0.95194 -1.2578,1.18775 l -0.7569,0.42875 -13.2903,0.003 c -7.3097,10e-4 -13.2904,-0.0487 -13.2904,-0.11216 z m 35.252,-0.0276 c 0,-0.0786 0.9505,-2.92959 2.1101,-6.33552 1.1597,-3.40593 2.2677,-6.6642 2.4623,-7.24059 0.1946,-0.57639 1.4403,-4.2205 2.7681,-8.09803 1.3279,-3.87753 2.476,-7.26441 2.5514,-7.5264 l 0.137,-0.47636 4.0354,-0.0514 c 2.2195,-0.0283 4.0355,0.001 4.0355,0.0665 0,0.0649 -0.3387,1.11693 -0.7526,2.33793 -0.414,1.221 -1.579,4.62083 -2.5891,7.55517 -1.01,2.93434 -2.3863,6.96184 -3.0583,8.94998 -0.6719,1.98814 -1.2217,3.68235 -1.2217,3.76491 0,0.0826 4.4319,0.12791 9.8488,0.10077 l 9.8488,-0.0493 0.4641,-1.14326 c 0.2552,-0.62878 1.0619,-2.85812 1.7926,-4.95408 0.7308,-2.09596 1.3983,-4.0252 1.4834,-4.2872 0.085,-0.26199 0.7251,-2.10548 1.4223,-4.09665 0.6972,-1.99115 1.3942,-4.00614 1.5489,-4.47773 0.1546,-0.47159 0.419,-1.11467 0.5874,-1.42906 0.1684,-0.31439 0.4867,-0.7729 0.7074,-1.01889 0.2207,-0.246 0.7442,-0.63184 1.1634,-0.85744 0.758,-0.40794 0.8301,-0.41017 13.2426,-0.41017 h 12.4805 l 0.9054,0.53221 c 0.5838,0.34312 1.0407,0.79739 1.2862,1.27856 0.266,0.52156 0.3808,1.12273 0.3808,1.99598 0,0.68729 -0.1766,1.91255 -0.3924,2.72281 -0.2158,0.81025 -0.7819,2.54499 -1.2579,3.85497 -0.4761,1.30997 -1.4055,3.92516 -2.0654,5.81152 -0.6599,1.88637 -1.6874,4.80166 -2.2833,6.47843 -0.596,1.67677 -1.2178,3.4556 -1.3819,3.95297 -0.164,0.49737 -0.602,1.25927 -0.9734,1.69312 -0.3714,0.43386 -1.023,0.94678 -1.448,1.13984 -0.725,0.3293 -1.5333,0.35117 -13.0628,0.35334 l -12.2899,0.002 -0.9607,-0.44733 c -0.5283,-0.24603 -1.1091,-0.67393 -1.2905,-0.9509 -0.1815,-0.27697 -0.443,-0.99658 -0.581,-1.59914 -0.2163,-0.9435 -0.2704,-1.02944 -0.3897,-0.6192 -0.076,0.26199 -0.3128,0.94795 -0.5258,1.52433 -0.2129,0.57639 -0.4747,1.28378 -0.5817,1.57198 l -0.1946,0.52398 h -13.9817 c -7.6899,0 -13.9809,-0.0643 -13.98,-0.1429 z m 52.9901,-7.30325 c 0.3059,-0.21786 0.6913,-0.65737 0.8564,-0.97669 0.1652,-0.31932 0.8394,-2.13462 1.4983,-4.03399 0.6589,-1.89938 1.3858,-3.96787 1.6153,-4.59666 0.2296,-0.62879 0.6259,-1.78529 0.8807,-2.57001 0.2548,-0.78472 0.4633,-1.60915 0.4633,-1.83209 0,-0.22293 -0.1777,-0.63125 -0.3949,-0.90738 l -0.3949,-0.50205 h -5.9844 c -4.9004,0 -6.1145,0.0522 -6.7028,0.28845 -0.3951,0.15865 -0.9151,0.57688 -1.1557,0.92939 -0.2405,0.35251 -0.8711,1.87328 -1.4013,3.37948 -0.5303,1.5062 -1.4696,4.21756 -2.0874,6.02526 -0.6178,1.80769 -1.1233,3.52492 -1.1233,3.81607 0,0.29115 0.1334,0.71993 0.2966,0.95285 0.2965,0.42329 0.2993,0.42348 6.6872,0.42348 6.1659,0 6.4101,-0.0139 6.9469,-0.39611 z m 19.1875,6.97845 c -0.4914,-0.13699 -1.1919,-0.43354 -1.5568,-0.659 -0.3648,-0.22546 -0.8606,-0.7287 -1.1017,-1.11832 -0.3586,-0.57947 -0.4367,-0.96841 -0.4295,-2.13744 0.01,-1.08627 0.1508,-1.84042 0.6002,-3.14394 0.3252,-0.94318 1.2303,-3.55837 2.0112,-5.81152 0.7809,-2.25316 1.9925,-5.72579 2.6924,-7.71695 0.6999,-1.99116 1.4468,-4.09189 1.6597,-4.66828 0.213,-0.57639 0.5295,-1.39017 0.7033,-1.80841 0.1739,-0.41824 0.5643,-1.04393 0.8677,-1.39042 0.3034,-0.34649 0.8498,-0.75455 1.2142,-0.90681 0.5583,-0.2333 2.8009,-0.27683 14.263,-0.27683 7.4802,0 13.6005,0.038 13.6005,0.0845 0,0.0464 -0.507,1.48265 -1.1266,3.19158 -0.6195,1.70892 -1.1861,3.25718 -1.2589,3.44058 -0.1236,0.31147 -0.7719,0.33345 -9.8358,0.33345 -7.761,0 -9.826,0.0519 -10.3164,0.25951 -0.3373,0.14273 -0.7708,0.43657 -0.9635,0.65295 -0.1928,0.21639 -0.6948,1.32146 -1.1157,2.45571 -0.4209,1.13424 -1.2762,3.51991 -1.9007,5.30148 -0.6244,1.78157 -1.2543,3.58219 -1.3997,4.00138 -0.1454,0.41919 -0.3201,1.11186 -0.3881,1.53924 -0.093,0.58383 -0.048,0.85348 0.1835,1.08429 0.1691,0.16896 0.6725,0.36197 1.1188,0.4289 0.4464,0.0669 2.9533,0.0935 5.5711,0.059 4.3516,-0.0573 4.8149,-0.0954 5.4058,-0.44381 0.4061,-0.23943 0.8472,-0.77061 1.1868,-1.42906 0.2972,-0.57639 0.5424,-1.15516 0.5446,-1.28616 0,-0.18404 -1.0353,-0.23818 -4.5689,-0.23818 -2.5152,0 -4.5697,-0.0643 -4.5656,-0.1429 0.01,-0.0786 0.547,-1.64343 1.2066,-3.47739 l 1.1992,-3.33449 8.7016,-0.0495 c 4.7858,-0.0273 8.7016,-0.008 8.7016,0.0418 0,0.0503 -0.5202,1.57308 -1.156,3.38404 -0.6358,1.81096 -1.4137,4.02148 -1.7287,4.91227 -0.315,0.89078 -0.7333,2.04832 -0.9296,2.57231 -0.1962,0.52399 -0.5923,1.63207 -0.88,2.46241 -0.2878,0.83033 -0.7855,1.90212 -1.106,2.38177 -0.3425,0.51242 -0.8972,1.02924 -1.3451,1.25316 -0.7334,0.3667 -1.1794,0.38236 -11.8136,0.41467 -8.6002,0.0261 -11.2496,-0.0217 -11.9449,-0.21548 z m -2.7064,-30.54299 c 0.069,-0.70738 0.2811,-1.9014 0.4702,-2.65338 0.1892,-0.75197 0.6081,-2.0017 0.931,-2.77718 0.3228,-0.77548 1.0302,-2.13234 1.5722,-3.01524 0.6313,-1.02879 1.6735,-2.29667 2.9018,-3.53049 1.0541,-1.05887 2.5536,-2.33663 3.3323,-2.83946 0.7786,-0.50284 2.0647,-1.23954 2.8581,-1.63713 0.7934,-0.39759 2.1284,-0.94048 2.9668,-1.20641 0.8384,-0.26593 2.2532,-0.62672 3.1439,-0.80174 1.0427,-0.20485 2.5701,-0.31832 4.2873,-0.31851 1.4672,-1.6e-4 3.2248,0.10265 3.906,0.22848 0.6812,0.12582 2.0103,0.45154 2.9535,0.72381 0.9431,0.27227 2.3391,0.77916 3.1022,1.12643 0.7631,0.34727 2.135,1.11814 3.0487,1.71302 0.9137,0.5949 2.3767,1.77753 3.251,2.62809 0.8744,0.85055 2.0541,2.20359 2.6216,3.00676 0.5674,0.80315 1.2993,1.99957 1.6263,2.65871 0.327,0.65913 0.7969,1.79318 1.0441,2.52011 0.2473,0.72692 0.5792,2.00511 0.7376,2.84041 0.1585,0.8353 0.2882,1.76649 0.2882,2.06931 v 0.55057 h -1.7149 c -0.9432,0 -1.7166,-0.0643 -1.7187,-0.14291 0,-0.0786 -0.09,-0.73911 -0.1952,-1.4678 -0.1053,-0.72869 -0.4547,-2.09164 -0.7765,-3.02877 -0.3218,-0.93713 -0.9327,-2.28423 -1.3575,-2.99355 -0.4249,-0.70933 -1.0807,-1.66147 -1.4575,-2.11587 -0.3768,-0.4544 -1.1143,-1.23986 -1.6388,-1.74547 -0.5247,-0.50561 -1.4683,-1.29097 -2.0971,-1.74523 -0.6288,-0.45427 -1.8292,-1.16529 -2.6676,-1.58005 -0.8384,-0.41476 -1.953,-0.8923 -2.477,-1.06119 -0.524,-0.16891 -1.5896,-0.43955 -2.3679,-0.60144 -0.7783,-0.16189 -2.1502,-0.34632 -3.0487,-0.40984 -0.8995,-0.0636 -2.3745,-0.0166 -3.2829,0.10446 -0.9071,0.12097 -2.3219,0.39277 -3.1439,0.60398 -0.822,0.21122 -2.2097,0.72334 -3.0839,1.13805 -0.874,0.41472 -2.1722,1.14516 -2.8847,1.6232 -0.7125,0.47804 -1.9266,1.5074 -2.6979,2.28748 -0.7713,0.78008 -1.807,2.03102 -2.3015,2.77987 -0.4945,0.74885 -1.1587,1.98514 -1.476,2.74732 -0.3173,0.76218 -0.6977,1.92844 -0.8454,2.59169 -0.1477,0.66326 -0.3248,1.61321 -0.3935,2.111 l -0.125,0.90507 h -1.7085 -1.7085 z"
    />
  </g>
</svg>
