<svg
  version="1.1"
  id="svg1"
  xml:space="preserve"
  width="55"
  height="58"
  xmlns="http://www.w3.org/2000/svg"
  xmlns:svg="http://www.w3.org/2000/svg"
>
  <path
    fill="#24a1c1"
    fill-rule="nonzero"
    d="m 27.75,7 c 2.517,0 4.754,1.777 4.754,3.965 0,2.189 -2.13,3.966 -4.754,3.966 q -0.45,0 -1.176,-0.148 a 1.58,1.58 0 0 0 -1.099,0.176 L 8.43,24.66 a 0.795,0.795 0 0 0 0.004,1.381 l 18.478,10.381 c 0.48,0.27 1.065,0.271 1.546,0.004 L 47.037,26.091 a 0.793,0.793 0 0 0 0.006,-1.383 l -5.797,-3.293 a 1.58,1.58 0 0 0 -1.55,-0.007 l -6.12,3.396 a 0.54,0.54 0 0 0 -0.275,0.414 l -0.003,0.059 c 0,2.188 -2.13,3.965 -4.755,3.965 -2.625,0 -4.754,-1.777 -4.754,-3.965 0,-2.189 2.13,-3.966 4.754,-3.966 q 0.147,0 0.336,0.016 l 0.2,0.02 0.223,0.028 c 0.338,0.046 0.683,-0.019 0.982,-0.185 l 9.05,-5.023 a 2.38,2.38 0 0 1 2.231,-0.04 l 0.095,0.052 12.637,7.18 c 1.585,0.9 1.603,3.163 0.067,4.098 l -0.085,0.05 -8.454,4.702 a 0.793,0.793 0 0 0 0.016,1.395 l 8.373,4.408 c 1.662,0.874 1.702,3.242 0.07,4.172 L 28.856,56.688 a 2.38,2.38 0 0 1 -2.356,0 L 1.215,42.244 c -1.634,-0.933 -1.589,-3.306 0.079,-4.176 l 8.464,-4.42 A 0.793,0.793 0 0 0 9.78,32.254 L 1.214,27.442 c -1.585,-0.89 -1.62,-3.146 -0.096,-4.093 l 0.084,-0.05 21.039,-11.973 a 1.6,1.6 0 0 0 0.712,-0.853 L 22.98,10.389 C 23.718,8.188 25.399,7 27.75,7 M 39.49,36.21 29.1,42.188 29.005,42.24 A 2.37,2.37 0 0 1 26.757,42.198 L 16.401,36.355 a 1.58,1.58 0 0 0 -1.506,-0.023 l -5.97,3.124 A 0.794,0.794 0 0 0 8.899,40.848 L 27.138,51.29 c 0.485,0.278 1.08,0.279 1.566,0 L 47.101,40.773 a 0.794,0.794 0 0 0 -0.024,-1.392 l -6.065,-3.2 a 1.58,1.58 0 0 0 -1.523,0.028 z"
  />
</svg>
