<svg width="32" height="30" viewBox="0 0 32 30" fill="none" xmlns="http://www.w3.org/2000/svg">
<path fill-rule="evenodd" clip-rule="evenodd" d="M15.5357 0C24.1101 0 31.0714 6.72129 31.0714 15C31.0714 23.2787 24.1101 30 15.5357 30C6.96134 30 0 23.2787 0 15C0 6.72129 6.96134 0 15.5357 0ZM10.6786 23.4299V11.7158H6.6451V23.4299H10.6786ZM25.2202 23.4299V16.7124C25.2202 13.1142 23.2305 11.4404 20.5772 11.4404C18.4377 11.4404 17.4793 12.5764 16.9427 13.3744V11.7158H12.9103C12.9638 12.8149 12.9103 23.4299 12.9103 23.4299H16.9427V16.8879C16.9427 16.5378 16.9688 16.1878 17.0756 15.9375C17.3666 15.2382 18.0307 14.5137 19.1447 14.5137C20.6033 14.5137 21.1876 15.5883 21.1876 17.1624V23.4299H25.2202ZM8.68908 6.06738C7.30907 6.06738 6.40745 6.94336 6.40745 8.0915C6.40745 9.21545 7.28164 10.1156 8.63567 10.1156H8.66171C10.0681 10.1156 10.9435 9.21545 10.9435 8.0915C10.9174 6.94336 10.0682 6.06738 8.68908 6.06738Z" fill="#0077b5"/>
</svg>
