<svg width="31" height="30" viewBox="0 0 31 30" fill="none" xmlns="http://www.w3.org/2000/svg">
<path d="M15.7144 0C7.43008 0 0.714355 6.71572 0.714355 15C0.714355 23.2843 7.43008 30 15.7144 30C23.9986 30 30.7144 23.2843 30.7144 15C30.7144 6.71572 23.9986 0 15.7144 0ZM23.5108 9.48844L20.8466 22.207C20.8144 22.3609 20.744 22.5041 20.642 22.6237C20.5399 22.7432 20.4095 22.8352 20.2626 22.8911C20.1157 22.9471 19.9572 22.9653 19.8014 22.9439C19.6457 22.9226 19.4979 22.8625 19.3714 22.7691L15.4963 19.9062L13.1485 22.121C13.1178 22.15 13.0816 22.1726 13.0421 22.1874C13.0025 22.2023 12.9604 22.2091 12.9182 22.2075C12.8759 22.2059 12.8345 22.1959 12.7962 22.1781C12.7578 22.1603 12.7235 22.135 12.695 22.1038L12.6446 22.0484L13.0525 18.1006L20.4051 11.3828C20.4414 11.3496 20.4641 11.304 20.4684 11.255C20.4728 11.206 20.4587 11.1571 20.4288 11.118C20.399 11.0789 20.3555 11.0524 20.3071 11.0437C20.2586 11.0351 20.2087 11.0449 20.1671 11.0712L10.7641 17.0226L6.71436 15.6625C6.60668 15.6263 6.51283 15.5577 6.44568 15.4661C6.37854 15.3745 6.3414 15.2643 6.33934 15.1508C6.33729 15.0372 6.37043 14.9257 6.43421 14.8318C6.498 14.7378 6.5893 14.6658 6.69561 14.6258L22.5405 8.65688C22.6628 8.61088 22.7951 8.59856 22.9237 8.62121C23.0523 8.64387 23.1725 8.70065 23.2716 8.78564C23.3708 8.87062 23.4453 8.98068 23.4874 9.10431C23.5294 9.22795 23.5375 9.36061 23.5108 9.48844Z" fill="#0088cc"/>
</svg>
