<svg width="107" height="107" viewBox="0 0 107 107" fill="none" xmlns="http://www.w3.org/2000/svg">
<rect width="107" height="107" fill="url(#paint0_linear_306_8)"/>
<path d="M37.7862 56.9839H46.1949C46.9125 61.2643 48.9436 65.1846 52.0173 68.2321C48.9842 70.6009 45.1929 72 41.0766 72C31.0972 72 23 63.7162 23 53.4931C23 43.2699 31.0972 35 41.0766 35C45.1929 35 48.9707 36.3991 52.0173 38.7679C48.9301 41.8154 46.9125 45.7357 46.1949 50.0161H37.7862V56.9839Z" fill="#FBFBFB"/>
<path d="M58.8417 56.9839C58.4355 59.1726 57.6502 61.2089 56.5669 63.0513C54.9556 61.4028 53.764 59.325 53.1547 56.9839H58.8417Z" fill="#FBFBFB"/>
<path d="M58.8417 50.0161H53.1547C53.764 47.675 54.9556 45.5972 56.5669 43.9487C57.6502 45.7772 58.4355 47.8274 58.8417 50.0161Z" fill="#FBFBFB"/>
<path d="M84 53.4931C84 43.2838 75.9028 35 65.9234 35C56.4315 35 48.6457 42.4803 47.901 51.9832H39.7225V55.003H47.901C48.6457 64.5197 56.4315 71.9861 65.9234 71.9861C74.3862 71.9861 81.4815 66.0434 83.4584 58.0228H80.3847C78.489 64.3534 72.7343 68.9663 65.9099 68.9663C58.0564 68.9663 51.5976 62.8435 50.8528 55.003H83.9323C83.9729 54.5182 84 54.0056 84 53.4931ZM50.8528 51.9832C51.5976 44.1426 58.0564 38.0198 65.9234 38.0198C73.7905 38.0198 80.2357 44.1426 80.9805 51.9832H50.8528Z" fill="#FBFBFB"/>
<defs>
<linearGradient id="paint0_linear_306_8" x1="113.47" y1="-4.66128" x2="-33.394" y2="131.002" gradientUnits="userSpaceOnUse">
<stop stop-color="#5216D1"/>
<stop offset="1" stop-color="#9D11F4"/>
</linearGradient>
</defs>
</svg>
