<svg width="769" height="769" viewBox="0 0 769 769" fill="none" xmlns="http://www.w3.org/2000/svg">
<rect width="769" height="769" rx="190" fill="url(#paint0_linear_306_8)"/>
<path d="M240.258 416.449H317.176C323.741 455.089 342.32 490.477 370.437 517.987C342.692 539.37 308.01 552 270.356 552C179.07 552 105 477.222 105 384.937C105 292.653 179.07 218 270.356 218C308.01 218 342.568 230.63 370.437 252.013C342.196 279.523 323.741 314.911 317.176 353.551H240.258V416.449Z" fill="#FBFBFB"/>
<path d="M432.864 416.449C429.148 436.207 421.964 454.589 412.055 471.22C397.315 456.339 386.415 437.582 380.842 416.449H432.864Z" fill="#FBFBFB"/>
<path d="M432.864 353.551H380.842C386.415 332.418 397.315 313.661 412.055 298.78C421.964 315.286 429.148 333.793 432.864 353.551Z" fill="#FBFBFB"/>
<path d="M663 384.937C663 292.778 588.93 218 497.644 218C410.816 218 339.595 285.525 332.783 371.307H257.97V398.568H332.783C339.595 484.475 410.816 551.875 497.644 551.875C575.058 551.875 639.962 498.23 658.045 425.828H629.929C612.588 482.974 559.947 524.615 497.52 524.615C425.68 524.615 366.597 469.344 359.785 398.568H662.381C662.752 394.191 663 389.564 663 384.937ZM359.785 371.307C366.597 300.531 425.68 245.26 497.644 245.26C569.608 245.26 628.566 300.531 635.379 371.307H359.785Z" fill="#FBFBFB"/>
<defs>
<linearGradient id="paint0_linear_306_8" x1="815.5" y1="-33.5002" x2="-240" y2="941.5" gradientUnits="userSpaceOnUse">
<stop stop-color="#5216D1"/>
<stop offset="1" stop-color="#9D11F4"/>
</linearGradient>
</defs>
</svg>
