<svg width="107" height="107" viewBox="0 0 107 107" fill="none" xmlns="http://www.w3.org/2000/svg">
<rect width="107" height="107" rx="25" fill="url(#paint0_linear_312_4)"/>
<path d="M33.4299 57.9455H44.1324C45.0459 63.3218 47.631 68.2458 51.5432 72.0736C47.6827 75.0489 42.8571 76.8062 37.6178 76.8062C24.9161 76.8062 14.6099 66.4015 14.6099 53.5609C14.6099 40.7202 24.9161 30.3329 37.6178 30.3329C42.8571 30.3329 47.6655 32.0902 51.5432 35.0655C47.6138 38.8933 45.0459 43.8173 44.1324 49.1936H33.4299V57.9455Z" fill="#FBFBFB"/>
<path d="M60.2294 57.9455C59.7124 60.6945 58.7128 63.2522 57.334 65.5663C55.2831 63.4958 53.7665 60.8859 52.9909 57.9455H60.2294Z" fill="#FBFBFB"/>
<path d="M60.2294 49.1937H52.9909C53.7665 46.2532 55.2831 43.6433 57.334 41.5728C58.7128 43.8695 59.7124 46.4446 60.2294 49.1937Z" fill="#FBFBFB"/>
<path d="M92.251 53.5609C92.251 40.7376 81.9448 30.3329 69.243 30.3329C57.1617 30.3329 47.2519 39.7285 46.304 51.6643H35.8944V55.4574H46.304C47.2519 67.4106 57.1617 76.7888 69.243 76.7888C80.0145 76.7888 89.0453 69.3246 91.5616 59.2504H87.6494C85.2365 67.2019 77.9119 72.9958 69.2258 72.9958C59.2298 72.9958 51.009 65.3053 50.0611 55.4574H92.1648C92.2165 54.8484 92.251 54.2046 92.251 53.5609ZM50.0611 51.6643C51.009 41.8164 59.2298 34.1259 69.243 34.1259C79.2562 34.1259 87.4598 41.8164 88.4077 51.6643H50.0611Z" fill="#FBFBFB"/>
<defs>
<linearGradient id="paint0_linear_312_4" x1="113.47" y1="-4.66128" x2="-33.394" y2="131.002" gradientUnits="userSpaceOnUse">
<stop stop-color="#5216D1"/>
<stop offset="1" stop-color="#9D11F4"/>
</linearGradient>
</defs>
</svg>
