<svg width="78" height="45" viewBox="0 0 78 45" fill="none" xmlns="http://www.w3.org/2000/svg">
<path d="M18.907 26.7372H29.659C30.5767 31.9431 33.1738 36.711 37.1041 40.4174C33.2257 43.2984 28.3778 45 23.1143 45C10.3538 45 0 34.9251 0 22.4916C0 10.058 10.3538 0 23.1143 0C28.3778 0 33.2084 1.70161 37.1041 4.58255C33.1565 8.28903 30.5767 13.0569 29.659 18.2628H18.907V26.7372Z" fill="#131313"/>
<path d="M45.8304 26.7372C45.311 29.3991 44.3068 31.8757 42.9216 34.1164C40.8613 32.1116 39.3376 29.5844 38.5585 26.7372H45.8304Z" fill="#131313"/>
<path d="M45.8304 18.2628H38.5585C39.3376 15.4156 40.8613 12.8884 42.9216 10.8836C44.3068 13.1075 45.311 15.6009 45.8304 18.2628Z" fill="#131313"/>
<path d="M78 22.4916C78 10.0749 67.6462 0 54.8857 0C42.7485 0 32.7929 9.09772 31.8406 20.6552H21.3829V24.328H31.8406C32.7929 35.9023 42.7485 44.9832 54.8857 44.9832C65.707 44.9832 74.7796 37.7555 77.3074 28.0007H73.3771C70.9532 35.7001 63.5947 41.3104 54.8684 41.3104C44.8262 41.3104 36.5674 33.8637 35.6151 24.328H77.9134C77.9654 23.7383 78 23.1149 78 22.4916ZM35.6151 20.6552C36.5674 11.1194 44.8262 3.67278 54.8857 3.67278C64.9452 3.67278 73.1867 11.1194 74.139 20.6552H35.6151Z" fill="#131313"/>
</svg>
