<svg width="12" height="12" viewBox="0 0 12 12" fill="none" xmlns="http://www.w3.org/2000/svg">
<path fill-rule="evenodd" clip-rule="evenodd" d="M5.93 0C6.12659 0 6.31513 0.0780957 6.45414 0.217107C6.59315 0.356118 6.67125 0.544658 6.67125 0.74125V1.4825C6.67125 1.67909 6.59315 1.86763 6.45414 2.00664C6.31513 2.14565 6.12659 2.22375 5.93 2.22375C5.73341 2.22375 5.54487 2.14565 5.40586 2.00664C5.26685 1.86763 5.18875 1.67909 5.18875 1.4825V0.74125C5.18875 0.544658 5.26685 0.356118 5.40586 0.217107C5.54487 0.0780957 5.73341 0 5.93 0ZM8.895 5.93C8.895 6.71637 8.58262 7.47053 8.02657 8.02657C7.47053 8.58262 6.71637 8.895 5.93 8.895C5.14363 8.895 4.38947 8.58262 3.83343 8.02657C3.27738 7.47053 2.965 6.71637 2.965 5.93C2.965 5.14363 3.27738 4.38947 3.83343 3.83343C4.38947 3.27738 5.14363 2.965 5.93 2.965C6.71637 2.965 7.47053 3.27738 8.02657 3.83343C8.58262 4.38947 8.895 5.14363 8.895 5.93ZM8.55106 9.59919L9.07512 10.1233C9.21492 10.2583 9.40217 10.333 9.59652 10.3313C9.79087 10.3296 9.97679 10.2517 10.1142 10.1142C10.2517 9.97679 10.3296 9.79087 10.3313 9.59652C10.333 9.40217 10.2583 9.21492 10.1233 9.07512L9.59919 8.55106C9.45939 8.41604 9.27214 8.34132 9.07779 8.34301C8.88344 8.3447 8.69752 8.42266 8.56009 8.56009C8.42266 8.69752 8.3447 8.88344 8.34301 9.07779C8.34132 9.27214 8.41604 9.45939 8.55106 9.59919ZM10.1225 1.73675C10.2615 1.87575 10.3395 2.06426 10.3395 2.26081C10.3395 2.45737 10.2615 2.64587 10.1225 2.78488L9.59919 3.30894C9.53081 3.37974 9.44902 3.43621 9.35858 3.47505C9.26815 3.5139 9.17088 3.53435 9.07246 3.53521C8.97403 3.53606 8.87643 3.51731 8.78533 3.48004C8.69423 3.44277 8.61147 3.38773 8.54187 3.31813C8.47227 3.24853 8.41723 3.16577 8.37996 3.07467C8.34269 2.98357 8.32394 2.88597 8.32479 2.78754C8.32565 2.68912 8.3461 2.59185 8.38494 2.50142C8.42379 2.41098 8.48026 2.32919 8.55106 2.26081L9.07512 1.73675C9.21413 1.59779 9.40263 1.51972 9.59919 1.51972C9.79574 1.51972 9.98425 1.59779 10.1233 1.73675H10.1225ZM11.1187 6.67125C11.3153 6.67125 11.5039 6.59315 11.6429 6.45414C11.7819 6.31513 11.86 6.12659 11.86 5.93C11.86 5.73341 11.7819 5.54487 11.6429 5.40586C11.5039 5.26685 11.3153 5.18875 11.1187 5.18875H10.3775C10.1809 5.18875 9.99237 5.26685 9.85336 5.40586C9.71435 5.54487 9.63625 5.73341 9.63625 5.93C9.63625 6.12659 9.71435 6.31513 9.85336 6.45414C9.99237 6.59315 10.1809 6.67125 10.3775 6.67125H11.1187ZM5.93 9.63625C6.12659 9.63625 6.31513 9.71435 6.45414 9.85336C6.59315 9.99237 6.67125 10.1809 6.67125 10.3775V11.1187C6.67125 11.3153 6.59315 11.5039 6.45414 11.6429C6.31513 11.7819 6.12659 11.86 5.93 11.86C5.73341 11.86 5.54487 11.7819 5.40586 11.6429C5.26685 11.5039 5.18875 11.3153 5.18875 11.1187V10.3775C5.18875 10.1809 5.26685 9.99237 5.40586 9.85336C5.54487 9.71435 5.73341 9.63625 5.93 9.63625ZM2.26081 3.30894C2.32963 3.37781 2.41135 3.43245 2.50128 3.46974C2.59122 3.50703 2.68762 3.52624 2.78498 3.52628C2.88235 3.52631 2.97876 3.50717 3.06873 3.46994C3.15869 3.43271 3.24044 3.37813 3.30931 3.30931C3.37818 3.24049 3.43282 3.15878 3.47011 3.06884C3.5074 2.9789 3.52661 2.8825 3.52665 2.78514C3.52668 2.68778 3.50754 2.59136 3.47031 2.5014C3.43308 2.41143 3.3785 2.32968 3.30968 2.26081L2.78488 1.73675C2.64507 1.60172 2.45783 1.52701 2.26348 1.5287C2.06913 1.53039 1.88321 1.60834 1.74578 1.74578C1.60834 1.88321 1.53039 2.06913 1.5287 2.26348C1.52701 2.45783 1.60172 2.64507 1.73675 2.78488L2.26081 3.30894ZM3.30894 9.59919L2.78488 10.1233C2.64507 10.2583 2.45783 10.333 2.26348 10.3313C2.06913 10.3296 1.88321 10.2517 1.74578 10.1142C1.60834 9.97679 1.53039 9.79087 1.5287 9.59652C1.52701 9.40217 1.60172 9.21492 1.73675 9.07512L2.26081 8.55106C2.40061 8.41604 2.58786 8.34132 2.78221 8.34301C2.97656 8.3447 3.16248 8.42266 3.29991 8.56009C3.43734 8.69752 3.5153 8.88344 3.51699 9.07779C3.51868 9.27214 3.44396 9.45939 3.30894 9.59919ZM1.4825 6.67125C1.67909 6.67125 1.86763 6.59315 2.00664 6.45414C2.14565 6.31513 2.22375 6.12659 2.22375 5.93C2.22375 5.73341 2.14565 5.54487 2.00664 5.40586C1.86763 5.26685 1.67909 5.18875 1.4825 5.18875H0.74125C0.544658 5.18875 0.356118 5.26685 0.217107 5.40586C0.0780957 5.54487 0 5.73341 0 5.93C0 6.12659 0.0780957 6.31513 0.217107 6.45414C0.356118 6.59315 0.544658 6.67125 0.74125 6.67125H1.4825Z" fill="black"/>
</svg>
