<svg width="13" height="12" viewBox="0 0 13 12" fill="none" xmlns="http://www.w3.org/2000/svg">
  <path
    fill-rule="evenodd"
    clip-rule="evenodd"
    d="M8.67841 0.688496L8.24989 0L7.82137 0.688496L7.01264 0.880834L7.55303 1.50625L7.48907 2.31767L8.24989 2.00756L9.01071 2.31767L8.94675 1.50625L9.48714 0.880834L8.67841 0.688496ZM5.42865 0.970248C5.51943 0.806598 5.49943 0.603839 5.37843 0.461078C5.25742 0.318318 5.06068 0.265369 4.88437 0.328114C2.54136 1.16192 0.859985 3.37762 0.859985 5.98679C0.859985 9.31349 3.59172 12 6.94868 12C9.25126 12 11.2573 10.7371 12.2919 8.87216C12.3826 8.70851 12.3626 8.50575 12.2416 8.36299C12.1206 8.22023 11.9239 8.16728 11.7476 8.23003C11.1979 8.42563 10.6046 8.53249 9.98495 8.53249C7.11349 8.53249 4.79609 6.23745 4.79609 3.41911C4.79609 2.53124 5.02534 1.69727 5.42865 0.970248ZM10.4134 2.40028L9.9849 1.71178L9.55638 2.40028L8.74765 2.59262L9.28804 3.21803L9.22407 4.02945L9.9849 3.71934L10.7457 4.02945L10.6818 3.21803L11.2222 2.59262L10.4134 2.40028ZM7.55121 2.79878L6.94362 2.65428L6.62336 2.13973L6.3031 2.65428L5.6955 2.79878L6.10167 3.26886L6.05375 3.87678L6.62336 3.6446L7.19296 3.87678L7.14504 3.26886L7.55121 2.79878ZM9.06403 4.15655L8.38939 3.9961L8.03304 3.42356L7.67669 3.9961L7.00204 4.15655L7.45296 4.6784L7.39969 5.35416L8.03304 5.096L8.66639 5.35416L8.61312 4.6784L9.06403 4.15655Z"
    fill="#131313"
  />
</svg>
