<svg
  version="1.1"
  xmlns="http://www.w3.org/2000/svg"
  xmlns:xlink="http://www.w3.org/1999/xlink"
  x="0px"
  y="0px"
  width="25.6px"
  height="32px"
  viewBox="0 0 25.6 32"
  style="enable-background: new 0 0 25.6 32"
  xml:space="preserve"
>
  <path
    fill="#63c5e2"
    d="M6.4,19.2L9,14.7l3.8-1.9l6.4,6.4l1.1,6.2L19.2,32l-6.4-6.4L9,23L6.4,19.2z"
  />
  <path
    fill="#28378d"
    d="M12.8,25.6V12.8l6.4-6.4v12.8L12.8,25.6z M0,25.6L6.4,32l0.9-6.1l-0.9-6.7l-3.8,2.4L0,25.6z"
  />
  <path
    fill="#3c57a3"
    d="M6.4,19.2V6.4L12.8,0v12.8L6.4,19.2z M19.2,32V19.2l6.4-6.4v12.8L19.2,32z M0,25.6V12.8l6.4,6.4L0,25.6z"
  />
  <path fill="#6ec6d9" d="M6.4,32V19.2l6.4,6.4L6.4,32z" />
</svg>
