<svg
  version="1.1"
  xmlns="http://www.w3.org/2000/svg"
  xmlns:xlink="http://www.w3.org/1999/xlink"
  x="0px"
  y="0px"
  width="32px"
  height="32px"
  viewBox="0 0 32 32"
  style="enable-background: new 0 0 32 32"
  xml:space="preserve"
>
  <path
    fill="#111111"
    d="M16,32L16,32C7.2,32,0,24.8,0,16v0C0,7.2,7.2,0,16,0h0c8.8,0,16,7.2,16,16v0C32,24.8,24.8,32,16,32z"
  />
  <path
    fill="#fcfcfc"
    d="M20.2,12.8c-0.4,0-0.8,0-1.2,0.1c-0.2,0-0.3,0-0.3-0.2c-0.4-1.4-1.1-1.9-2.5-2c-0.7,0-1.4,0-2.1,0.4
c-0.5,0.2-0.8,0.6-0.8,1.1c0,0.6,0.3,0.9,0.8,1.2c0.9,0.5,1.9,0.7,2.8,0.9c0.9,0.2,1.7,0.4,2.5,0.8c2,0.8,2.9,2.3,2.9,4.5
c-0.1,1.8-1.3,3.5-3.2,4c-1.8,0.6-3.7,0.6-5.6,0.1c-2.1-0.6-3.2-2.2-3.6-4.3c-0.1-0.5-0.1-0.6,0.5-0.6c0.7-0.1,1.5-0.1,2.2-0.2
c0.2,0,0.3,0,0.3,0.2c0.1,0.3,0.2,0.6,0.3,0.9c0.4,0.9,1.1,1.5,2.1,1.7c0.8,0.2,1.6,0.1,2.4-0.1c0.5-0.2,1-0.5,1.3-0.9
c0.6-0.8,0.3-1.8-0.6-2.3c-0.7-0.4-1.6-0.5-2.4-0.7c-1.1-0.3-2.2-0.5-3.2-1c-2.6-1.3-3.2-4.4-1.4-6.4c0.8-0.9,1.8-1.3,3-1.4
C15.9,8,17.4,8,18.9,8.6c1.7,0.7,2.7,2,2.8,3.8c0,0.3,0,0.3-0.3,0.3C21,12.7,20.6,12.8,20.2,12.8C20.2,12.8,20.2,12.8,20.2,12.8z"
  />
</svg>
