<svg
  version="1.1"
  xmlns="http://www.w3.org/2000/svg"
  xmlns:xlink="http://www.w3.org/1999/xlink"
  x="0px"
  y="0px"
  width="31.7px"
  height="32px"
  viewBox="0 0 31.7 32"
  style="enable-background: new 0 0 31.7 32"
  xml:space="preserve"
>
  <path
    fill="#0d0d0f"
    d="M8,32c-0.1-0.3-0.2-0.7-0.2-1c-0.6-2.5-1.2-5-1.9-7.5c-0.5-2-1-4-1.5-6.1c-0.5-2.1-1.1-4.3-1.6-6.4 C2.2,8.7,1.6,6.5,1,4.2C0.7,2.8,0.4,1.5,0,0.1C0,0.1,0,0,0,0c0,0,0.1,0,0.1,0c1.3,0.4,2.7,0.8,4,1.1c2.4,0.7,4.8,1.4,7.2,2 c2.2,0.6,4.4,1.3,6.6,1.9c2.3,0.6,4.5,1.3,6.8,1.9c2.3,0.7,4.6,1.3,6.9,2c0,0,0.1,0,0.1,0c0,0,0,0,0,0c-0.2,0.1-0.3,0.3-0.5,0.4 c-2.4,2.3-4.7,4.6-7.1,6.9c-1.9,1.8-3.8,3.7-5.7,5.5c-2.1,2-4.1,4-6.2,6C10.9,29.2,9.5,30.5,8,32C8.1,31.9,8.1,31.9,8,32 C8.1,32,8,32,8,32z M17.5,12.2c-0.6-2.4-1.2-4.8-1.8-7.2c-0.1,0.1-5.3,5.1-5.3,5.2C12.8,10.9,15.1,11.6,17.5,12.2z M17.7,12.9 c-1.8,1.7-3.6,3.5-5.3,5.2c2.4,0.7,4.8,1.3,7.2,2C18.9,17.7,18.3,15.3,17.7,12.9z M17.4,12.6c-2.4-0.7-4.8-1.3-7.2-2 c0.6,2.4,1.2,4.8,1.8,7.2C13.9,16.1,15.6,14.3,17.4,12.6z M9.9,10.7c-1.8,1.7-3.6,3.5-5.3,5.2c2.4,0.7,4.8,1.3,7.2,2 C11.1,15.5,10.5,13.1,9.9,10.7z M6.5,23.7c2.4,0.7,4.8,1.3,7.2,2c-0.6-2.4-1.2-4.8-1.8-7.2C10.1,20.2,8.3,22,6.5,23.7z M23.5,7.2 c-1.8,1.7-3.6,3.5-5.3,5.2c2.4,0.7,4.8,1.3,7.2,2C24.7,12,24.1,9.6,23.5,7.2z M13.6,26.1c-0.3-0.1-7-2-7.1-2c0,0.2,1.8,7.1,1.8,7.2 C10,29.5,11.8,27.8,13.6,26.1z M17.9,12.1C18,12,23.2,7,23.2,7c-2.4-0.7-4.7-1.3-7.1-2C16.7,7.3,17.3,9.7,17.9,12.1z M18,12.8 c0.6,2.4,1.2,4.8,1.8,7.2c1.8-1.7,3.6-3.5,5.3-5.2C22.8,14.1,20.4,13.5,18,12.8z M2.6,8C5,8.7,7.4,9.4,9.7,10c0,0,0-0.1,0-0.1 C9.1,7.6,8.5,5.2,7.9,2.9c0,0,0,0,0,0c0,0,0,0,0,0C6.1,4.6,4.4,6.3,2.6,8z M2.5,8.4c0.6,2.4,1.2,4.8,1.8,7.2c0,0,0,0,0.1,0 c1.8-1.7,3.5-3.4,5.3-5.1c0,0,0,0,0,0c0,0,0,0,0,0C7.2,9.7,4.9,9,2.5,8.4z M0.5,0.5c0.6,2.4,1.2,4.8,1.8,7.2C4.1,6,5.9,4.3,7.7,2.6 C5.3,1.9,2.9,1.2,0.5,0.5z M6.3,23.4c1.8-1.7,3.6-3.5,5.3-5.2c-2.4-0.7-4.8-1.4-7.2-2C5.1,18.6,5.7,21,6.3,23.4z M23.9,7.1 c0.6,2.4,1.2,4.8,1.8,7.2c1.8-1.7,3.6-3.5,5.3-5.2C28.6,8.5,26.3,7.8,23.9,7.1z M14,25.6c0.2-0.1,5.3-5.1,5.3-5.2c-1-0.3-7-2-7.1-2 C12.8,20.8,13.4,23.2,14,25.6z M8.3,2.7c0.6,2.4,1.2,4.8,1.8,7.2c1.8-1.7,3.6-3.5,5.3-5.2C13.1,4.1,10.7,3.4,8.3,2.7z"
  />
</svg>
