<svg
  version="1.1"
  xmlns="http://www.w3.org/2000/svg"
  xmlns:xlink="http://www.w3.org/1999/xlink"
  x="0px"
  y="0px"
  width="32px"
  height="31.8px"
  viewBox="0 0 32 31.8"
  style="enable-background: new 0 0 32 31.8"
  xml:space="preserve"
>
  <g>
    <path
      fill="#0265aa"
      d="M30.9,3.4l-6.6-3.2C23.5-0.2,22.6,0,22,0.6L0.4,20.2c-0.5,0.5-0.6,1.3-0.1,1.9c0,0,0.1,0.1,0.1,0.1l1.8,1.6 c0.5,0.4,1.2,0.5,1.7,0.1l26-19.7c0.6-0.4,1.4-0.3,1.9,0.3C31.9,4.7,32,5,32,5.2V5.2C32,4.4,31.6,3.7,30.9,3.4z"
    />
    <path
      fill="#1d78bd"
      d="M30.9,28.4l-6.6,3.2c-0.8,0.4-1.7,0.2-2.3-0.4L0.4,11.6c-0.5-0.5-0.6-1.3-0.1-1.9c0,0,0.1-0.1,0.1-0.1L2.2,8 c0.5-0.4,1.2-0.5,1.7-0.1l26,19.7c0.6,0.4,1.4,0.3,1.9-0.3c0.2-0.2,0.3-0.5,0.3-0.8v0.1C32,27.4,31.6,28.1,30.9,28.4z"
    />
    <path
      fill="#3f96d2"
      d="M24.3,31.6c-0.8,0.4-1.7,0.2-2.3-0.4c0.5,0.5,1.2,0.4,1.7,0c0.2-0.2,0.3-0.5,0.3-0.8v-29 c0-0.6-0.5-1.2-1.2-1.2c-0.3,0-0.6,0.1-0.8,0.3c0.6-0.6,1.5-0.8,2.3-0.4l6.6,3.2c0.7,0.3,1.1,1,1.1,1.8v21.5c0,0.8-0.4,1.5-1.1,1.8 L24.3,31.6z"
    />
  </g>
</svg>
