

    <svg
      version="1.1"
      xmlns="http://www.w3.org/2000/svg"
      xmlns:xlink="http://www.w3.org/1999/xlink"
      x="0px"
      y="0px"
      width="28.5px"
      height="32px"
      viewBox="0 0 28.5 32"
      style="enable-background: new 0 0 28.5 32"
      xml:space="preserve"
    >
      <path
        fill="#9A425B"
        d="M27.7,15.7c0-1.7-1.4-3.1-3.1-3.1c-0.1,0-0.2,0-0.3,0L28.5,0H10.3l4.3,12.6c-0.1,0-0.1,0-0.2,0 c-1.7,0-3.1,1.4-3.1,3.1c0,1.4,0.9,2.6,2.2,3c-0.7,1.2-1.5,2.2-2.5,3.1c-1.3,1.2-2.8,2.1-4.4,2.7c-1.9-1-2.8-3.2-2-5.1 c0.1-0.2,0.2-0.4,0.3-0.7c1.4-0.3,2.4-1.6,2.4-3c0-1.7-1.4-3.1-3.1-3.1S1.1,14,1.1,15.8c0,1.1,0.5,2,1.3,2.6 c-0.8,1.8-1.9,3.6-2.3,5.7c-0.4,2.6,0,5.3,2.2,6.8c5.1,3.6,10.7-2.2,16.6-3.7c2.1-0.5,4.5-0.4,6.4-1.5c1.4-0.8,2.3-2.2,2.6-3.7 c0.3-1.5-0.1-3-1-4.2C27.4,17.2,27.7,16.5,27.7,15.7"
      />
    </svg>
