

    <svg
      version="1.1"
      xmlns="http://www.w3.org/2000/svg"
      xmlns:xlink="http://www.w3.org/1999/xlink"
      x="0px"
      y="0px"
      width="26.5px"
      height="32px"
      viewBox="0 0 26.5 32"
      style="enable-background: new 0 0 26.5 32"
      xml:space="preserve"
    >
      <path
        fill="#f1a801"
        d="M26.1,27L26.1,27c0,0.4-0.3,0.6-0.7,0.9c-1.2,0.5-2.3,1.2-3.3,2.1c-0.7,0.9-1.6,1.4-2.7,1.6
		c-0.9,0.1-1.8-0.4-2.2-1.2c-0.1-0.3-0.2-0.7-0.2-1c0-0.4,0.1-0.8,0.2-1.2c0.3-0.8,0.5-1.7,0.6-2.5c0-0.8,0.1-1.6,0.3-2.4
		c0.1-0.5,0.4-1,0.8-1.3h0.1c0,0.8,0.4,1.5,1.2,1.8c0.9,0,1.8-0.3,2.4-1H23c0.4,0,0.8,0.1,1.1,0.3c0.3,0.3,0.5,0.7,0.5,1.2
		c0.1,0.5,0.3,1,0.6,1.4C25.9,26.2,26.1,26.7,26.1,27z"
      />
      <path
        d="M25.5,25.2L25.5,25.2c-0.2-0.4-0.4-0.8-0.5-1.2c-0.1-0.5-0.3-1-0.7-1.3l0,0c-0.1-0.1-0.2-0.1-0.3-0.2
		c-0.1-0.1-0.2-0.1-0.3-0.1c0.5-1.6,0.4-3.4-0.2-5C23,15.6,22,14,20.8,12.7c-1.2-1.2-2-2.8-2.1-4.5C18.7,5.3,19,0,14,0h-0.7
		C7.6,0.5,9.1,6.4,9.1,8.4c-0.1,1.4-0.6,2.8-1.4,4c-1.6,1.8-2.8,3.8-3.6,6c-0.4,1.1-0.5,2.2-0.4,3.3c-0.1,0-0.1,0.1-0.1,0.1
		c-0.3,0.4-0.6,0.8-0.9,1.1c-0.3,0.2-0.7,0.4-1.1,0.5c-0.5,0.1-0.9,0.5-1.2,0.9l0,0c-0.1,0.2-0.2,0.5-0.2,0.8c0,0.2,0,0.5,0,0.7
		c0.1,0.4,0.1,0.9,0,1.3c-0.3,0.6-0.3,1.4,0,2C0.5,29.8,1,30,1.5,30.1c1.3,0.1,2.5,0.3,3.7,0.8l0.1-0.2l-0.1,0.2
		c1.1,0.6,2.3,0.8,3.5,0.6c0.7-0.1,1.3-0.6,1.6-1.3c0.8,0,1.6-0.3,3-0.4c0.9-0.1,2.1,0.3,3.4,0.3c0,0.1,0.1,0.3,0.2,0.4l0,0
		c0.4,1,1.4,1.6,2.5,1.5c1.2-0.2,2.3-0.8,3-1.7l-0.2-0.1l0.2,0.1c0.9-0.8,2-1.5,3.2-2c0.5-0.2,0.8-0.6,0.9-1.1
		C26.4,26.4,26.1,25.7,25.5,25.2z M13.1,6.5c0-0.4,0.1-0.7,0.2-1c0.1-0.3,0.3-0.6,0.6-0.8c0.2-0.2,0.5-0.3,0.8-0.3l0,0
		c0.3,0,0.6,0.1,0.8,0.3c0.3,0.2,0.5,0.4,0.6,0.7c0.1,0.3,0.2,0.6,0.2,1l0,0c0,0.4-0.1,0.7-0.2,1c-0.1,0.2-0.2,0.3-0.3,0.5h-0.1
		l-0.4-0.2L15,7.7c0.1-0.1,0.2-0.2,0.3-0.3c0.1-0.2,0.1-0.4,0.1-0.6l0,0c0-0.2,0-0.4-0.1-0.5c0-0.2-0.1-0.3-0.2-0.4
		c-0.1-0.1-0.2-0.2-0.4-0.2l0,0c-0.1,0-0.3,0-0.3,0.1c-0.1,0.1-0.2,0.2-0.3,0.4c-0.1,0.2-0.1,0.4-0.1,0.6l0,0c0,0.1,0,0.2,0,0.3
		c-0.3-0.1-0.5-0.2-0.8-0.3C13.1,6.7,13.1,6.6,13.1,6.5L13.1,6.5z M9.6,6.6c0-0.3,0-0.6,0.1-0.9C9.8,5.4,9.9,5.2,10.1,5
		c0.1-0.2,0.3-0.3,0.6-0.3l0,0c0.2,0,0.4,0.1,0.5,0.2c0.2,0.2,0.4,0.4,0.5,0.6c0.1,0.3,0.2,0.6,0.2,0.9l0,0c0,0.1,0,0.3,0,0.4h-0.1
		c-0.2,0.1-0.4,0.1-0.5,0.3c0-0.1,0-0.2,0-0.3l0,0c0-0.2,0-0.3-0.1-0.4c0-0.1-0.1-0.2-0.2-0.3c-0.1-0.1-0.2-0.1-0.3-0.1l0,0
		c-0.1,0-0.2,0.1-0.3,0.1c-0.1,0.1-0.1,0.2-0.2,0.4c0,0.2,0,0.3,0,0.5l0,0c0,0.2,0,0.3,0.1,0.4c0,0.1,0.1,0.2,0.2,0.3l0,0l-0.2,0.2
		l-0.2,0.1C10,7.8,9.9,7.6,9.8,7.4C9.7,7.1,9.6,6.8,9.6,6.6L9.6,6.6z M9.9,8.5l0.6-0.5l0.2-0.2l0,0c0.3-0.3,0.7-0.6,1.1-0.8
		C12.1,7,12.3,7,12.5,7c0.6,0,1.1,0.2,1.6,0.6c0.5,0.2,0.9,0.4,1.4,0.6l0,0c0.3,0.1,0.5,0.3,0.6,0.5c0.1,0.2,0.1,0.4,0,0.6
		c-0.3,0.6-0.8,1-1.4,1.1l0,0c-0.4,0.2-0.7,0.4-1,0.6c-0.4,0.3-0.9,0.4-1.3,0.3c-0.2,0-0.4-0.1-0.6-0.1c-0.2-0.1-0.3-0.2-0.4-0.3
		c-0.3-0.2-0.5-0.5-0.8-0.7l0,0c-0.4-0.2-0.8-0.5-0.9-1C9.5,9,9.6,8.7,9.9,8.5z M10.1,29.4L10.1,29.4c0,0.9-0.7,1.6-1.5,1.7
		c-1.1,0.2-2.2,0-3.2-0.6l0,0c-1.2-0.5-2.5-0.7-3.8-0.8c-0.4,0-0.7-0.2-1-0.5c-0.2-0.6-0.1-1.1,0.2-1.7l0,0c0.1-0.5,0.1-1,0-1.5
		c-0.1-0.4-0.1-0.8,0-1.3l0,0C1,24.4,1.3,24.1,1.7,24c0.5-0.1,0.9-0.3,1.2-0.6l0,0c0.3-0.4,0.6-0.8,0.9-1.1C4,22,4.3,21.9,4.7,21.8
		h0.2c0.6,0.1,1,0.5,1.3,1l1.2,2.2l0,0c0.5,0.8,1,1.5,1.6,2.2C9.6,27.8,9.9,28.6,10.1,29.4L10.1,29.4z M10,27.8
		c-0.2-0.3-0.3-0.5-0.5-0.7l-0.4-0.5c0.2,0,0.4,0,0.6-0.1c0.2-0.1,0.3-0.2,0.4-0.4c0.1-0.6-0.1-1.1-0.5-1.6c-0.7-0.8-1.5-1.5-2.4-2
		l0,0C6.6,22,6,21.3,5.7,20.5c-0.2-0.7-0.2-1.5,0-2.2c0.4-1.3,0.9-2.6,1.7-3.7c0.1-0.1,0,0.2-0.5,1.3s-1.5,3.3-0.2,5.1
		c0.1-1.3,0.3-2.6,0.9-3.8c0.8-1.7,2.3-4.7,2.5-7c0.1,0.1,0.3,0.2,0.4,0.3l0,0c0.3,0.2,0.5,0.4,0.8,0.6c0.3,0.3,0.7,0.4,1.2,0.5h0.2
		c0.5,0,0.9-0.1,1.3-0.4c0.3-0.2,0.6-0.4,1-0.6l0,0c0.5-0.2,1-0.5,1.3-0.9c0.6,2.1,1.4,4.1,2.4,5.9c0.7,1.3,1.2,2.6,1.5,4
		c0.2,0,0.5,0,0.7,0.1c0.5-1.9,0-4-1.5-5.3C19,14.1,19,14,19.2,14c1.1,1,1.8,2.3,2.1,3.8c0.2,0.7,0.2,1.5,0,2.2l0.3,0.1
		c1.3,0.7,1.9,1.3,1.6,2.1H23c0.2-0.6-0.3-1.1-1.4-1.6c-1.2-0.5-2.2-0.5-2.4,0.6c0,0.1,0,0.1,0,0.2l-0.3,0.1c-0.6,0.3-1,0.9-1.1,1.6
		c-0.2,0.8-0.3,1.7-0.3,2.5l0,0c-0.1,0.6-0.2,1.2-0.4,1.8C15.1,29,12.2,29.1,10,27.8z M25.4,27.9c-1.2,0.5-2.3,1.2-3.3,2.1
		c-0.7,0.9-1.6,1.4-2.7,1.6c-0.9,0.1-1.8-0.4-2.2-1.2l0,0c-0.2-0.7-0.2-1.5,0.1-2.3c0.3-0.8,0.5-1.7,0.6-2.5l0,0
		c0-0.8,0.1-1.6,0.3-2.4c0.1-0.5,0.4-1,0.9-1.3h0.1c0,0.8,0.4,1.5,1.2,1.8c0.9,0.1,1.8-0.3,2.4-1H23c0.4-0.1,0.8,0.1,1.1,0.3l0,0
		c0.3,0.3,0.5,0.7,0.5,1.2c0.1,0.5,0.3,1,0.6,1.4l0,0c0.7,0.7,0.9,1.2,0.8,1.5C26.1,27.4,25.8,27.6,25.4,27.9z M10.1,9.3
		C9.9,9.2,9.9,8.9,10,8.9s0.2,0.2,0.3,0.3c0.2,0.2,0.3,0.3,0.5,0.4c0.4,0.4,1,0.6,1.6,0.6c0.7-0.1,1.3-0.3,1.9-0.6
		c0.3-0.2,0.6-0.4,0.9-0.6c0.2-0.2,0.2-0.3,0.4-0.3s0,0.2-0.2,0.4c-0.3,0.2-0.6,0.5-0.9,0.6c-0.6,0.4-1.3,0.6-2,0.7
		c-0.6,0-1.2-0.3-1.7-0.7C10.4,9.6,10.3,9.5,10.1,9.3z"
      />
      <path
        fill="#f1a801"
        d="M10.1,29.4c0,0.9-0.6,1.6-1.5,1.7c-1.1,0.2-2.2,0-3.2-0.6c-1.2-0.5-2.5-0.7-3.8-0.8c-0.4,0-0.7-0.2-1-0.5
		c-0.2-0.6-0.1-1.1,0.2-1.7c0.1-0.2,0.1-0.5,0.1-0.8s0-0.5-0.1-0.8c-0.1-0.4-0.1-0.9,0-1.3C1,24.4,1.3,24.1,1.7,24
		c0.5-0.1,0.9-0.3,1.2-0.6c0.4-0.4,0.6-0.8,0.9-1.1C4,22,4.3,21.9,4.7,21.8h0.2c0.6,0.2,1,0.5,1.3,1l1.2,2.2c0.5,0.8,1,1.5,1.6,2.2
		C9.6,27.8,9.9,28.6,10.1,29.4L10.1,29.4z"
      />
      <path
        fill="#f1a801"
        d="M16.2,8.6c-0.2-0.2-0.4-0.4-0.6-0.5c-0.5-0.2-1-0.4-1.4-0.6c-0.5-0.3-1-0.5-1.6-0.6c-0.2,0-0.4,0-0.6,0.1
		c-0.4,0.2-0.8,0.5-1.1,0.8L10.5,8L9.9,8.5C9.6,8.7,9.5,9,9.6,9.3c0.2,0.4,0.5,0.8,0.9,1c0.3,0.2,0.6,0.4,0.8,0.7
		c0.1,0.1,0.3,0.2,0.4,0.3c0.2,0.1,0.4,0.1,0.6,0.1c0.5,0,0.9-0.1,1.3-0.4c0.3-0.2,0.7-0.4,1-0.6c0.6-0.2,1.1-0.6,1.4-1.1
		C16.3,9.1,16.3,8.8,16.2,8.6z M15.2,9.1c-0.3,0.3-0.6,0.5-0.9,0.6c-0.6,0.4-1.3,0.6-2,0.7c-0.6,0-1.2-0.3-1.7-0.7
		c-0.2-0.1-0.3-0.3-0.5-0.4C9.9,9.2,9.9,8.9,10,8.9c0.1,0,0.2,0.2,0.3,0.3c0.2,0.2,0.3,0.3,0.5,0.4c0.4,0.4,1,0.6,1.6,0.6
		c0.7-0.1,1.3-0.3,1.9-0.6c0.3-0.2,0.6-0.4,0.9-0.6c0.2-0.2,0.2-0.3,0.4-0.3C15.6,8.7,15.4,8.9,15.2,9.1z"
      />
    </svg>
