

    <svg
      version="1.1"
      xmlns="http://www.w3.org/2000/svg"
      xmlns:xlink="http://www.w3.org/1999/xlink"
      x="0px"
      y="0px"
      width="32px"
      height="21.8px"
      viewBox="0 0 32 21.8"
      style="enable-background: new 0 0 32 21.8"
      xml:space="preserve"
    >
      <path
        fill="#01768f"
        d="M9.5,14.4l1,3.2c0.2,0.7,0.3,1.2,0.3,1.5c0.5-1.4,0.9-3,1.1-4.7H13c-0.5,2.7-1.2,4.7-2,6 c-0.6,1-1.3,1.4-2.1,1.4c-0.2,0-0.5-0.1-0.8-0.2v-0.7c0.1,0,0.3,0,0.5,0c0.4,0,0.6-0.1,0.9-0.3c0.3-0.2,0.4-0.5,0.4-0.8 c0-0.2-0.1-0.6-0.3-1.3l-1.4-4.2H9.5L9.5,14.4z M2.1,12.5l1.8,5.4h0l1.8-5.4h1.5c0.3,2.7,0.5,5.2,0.6,7.4H6.5c0-2.1-0.2-4.1-0.4-5.9 h0l-1.9,5.9H3.3L1.4,14h0c-0.1,1.8-0.2,3.7-0.3,5.9H0c0.1-2.6,0.3-5.1,0.5-7.4L2.1,12.5L2.1,12.5z"
      />
      <path
        fill="#f29113"
        d="M22,12.3c1.9,0,2.9,1.2,2.9,3.7c0,1.3-0.3,2.3-0.9,3c-0.1,0.1-0.2,0.2-0.3,0.3l1.4,0.7l0,0l-0.5,0.8l-1.8-1 c-0.3,0.1-0.6,0.1-1,0.1c-0.9,0-1.6-0.3-2.1-0.8c-0.5-0.6-0.8-1.6-0.8-2.9c0-1.3,0.3-2.3,0.9-3C20.4,12.7,21.1,12.3,22,12.3L22,12.3 z M16.2,12.4c0.7,0,1.3,0.2,1.9,0.5l-0.3,0.6c-0.5-0.2-1-0.3-1.4-0.3c-0.4,0-0.7,0.1-0.9,0.3c-0.2,0.2-0.3,0.4-0.3,0.7 c0,0.4,0.3,0.8,0.9,1.1c0.2,0.1,0.4,0.2,0.6,0.3l0,0l0,0l0,0l0,0l0,0c0.4,0.2,0.8,0.5,0.8,0.5c0.6,0.4,0.9,0.8,0.9,1.6 c0,0.6-0.2,1.1-0.7,1.5c-0.5,0.4-1.1,0.6-1.8,0.6c-0.7,0-1.4-0.2-2.1-0.7l0.3-0.6c0.6,0.3,1.1,0.4,1.6,0.4c0.4,0,0.8-0.1,1-0.3 c0.3-0.2,0.4-0.5,0.4-0.8c0-0.4-0.3-0.8-0.9-1.1c-0.2-0.1-0.4-0.2-0.5-0.3l0,0c-0.1,0-0.2-0.1-0.2-0.1l0,0c-0.4-0.2-0.7-0.4-0.7-0.4 c-0.6-0.4-0.8-0.8-0.8-1.6c0-0.6,0.2-1.1,0.6-1.5C15,12.5,15.5,12.4,16.2,12.4z M27.2,12.5v6.5h2.3v0.9H26v-7.4 C26,12.5,27.2,12.5,27.2,12.5z M30.8,18.9v0.2h-0.3v0.8h-0.2v-0.8h-0.3v-0.2H30.8L30.8,18.9z M31.3,18.9l0.2,0.6l0.2-0.6H32v0.9 h-0.2v-0.7l-0.3,0.7h-0.1l-0.3-0.7h0v0.7H31v-0.9H31.3L31.3,18.9z M21.9,13.3c-1.1,0-1.7,0.9-1.7,2.8c0,1.1,0.1,1.8,0.4,2.3 c0.3,0.4,0.7,0.7,1.3,0.7c1.1,0,1.7-0.9,1.7-2.8c0-1.1-0.1-1.8-0.4-2.3C22.9,13.5,22.5,13.3,21.9,13.3L21.9,13.3z"
      />
      <path
        fill="#01768f"
        d="M19,0.5c0.4-0.9,1.7-0.2,2.2,0.1c0.1,0.1,0.3,0.3,0.4,0.3c0.2,0,0.4,0,0.7,0C22.6,1,23,1.1,23.4,1.3 c1.5,0.9,2.5,1.8,3.4,3.3c0.2,0.3,0.3,0.7,0.5,1c0.2,0.5,0.5,1.1,0.7,1.6c0.1,0.2,0.2,0.5,0.4,0.7C28.4,8,28.6,8,28.7,8 c0.3,0.2,0.7,0.3,0.9,0.4c0.5,0.3,1,0.7,1.5,1.1c0.2,0.2,0.3,0.4,0.4,0.5v0.1c-0.1,0-0.3,0.1-0.4,0.1c-0.3,0.1-0.6,0.1-0.9,0.1 c-0.2,0.1-0.4,0.1-0.6,0.1l0,0c0.1,0.3,0.7,0.6,1,0.8c0.3,0.3,0.7,0.6,0.9,0.9c0.1,0.1,0.2,0.2,0.3,0.3c0.1,0.1,0.1,0.2,0.1,0.3v0 c-0.1,0-0.1-0.1-0.2-0.1l0,0c0,0-0.1-0.1-0.1-0.1c-0.2-0.1-0.4-0.3-0.6-0.4c-0.3-0.2-0.7-0.3-1.1-0.6c-0.2-0.1-0.4-0.3-0.6-0.4 c-0.2-0.1-0.4-0.4-0.5-0.5c-0.1-0.1-0.1-0.2-0.1-0.3c0-0.1,0.1-0.2,0.2-0.2l0,0c0,0,0.1,0,0.1,0c0.5-0.2,1-0.3,1.7-0.3 c0-0.2-0.5-0.4-0.6-0.5c-0.3-0.2-0.6-0.4-0.9-0.6c-0.2-0.1-0.4-0.2-0.6-0.2c-0.2-0.1-0.8-0.2-0.9-0.4c-0.2-0.3-0.4-0.6-0.5-1l0-0.1 c0,0,0-0.1,0-0.1c-0.2-0.4-0.4-0.9-0.6-1.3c-0.1-0.2-0.1-0.4-0.3-0.6c-0.7-1.3-1.6-2.3-2.8-3.1c-0.4-0.2-0.8-0.5-1.3-0.6 c-0.3-0.1-0.6,0-0.9-0.1h-0.2c-0.2,0-0.3-0.2-0.4-0.3c-0.3-0.2-0.6-0.3-0.9-0.4c-0.1-0.1-0.4-0.2-0.6-0.1c-0.1,0-0.1,0-0.1,0.1 c-0.1,0.1,0,0.3,0,0.4c0.1,0.3,0.3,0.5,0.5,0.7c0.2,0.2,0.3,0.5,0.4,0.7c0.2,0.5,0.3,1.1,0.6,1.6c0.1,0.2,0.2,0.4,0.3,0.6 c0.1,0.1,0.3,0.2,0.3,0.4c0.1,0.2-0.2,0.8-0.2,1c-0.2,0.7-0.2,1.8,0.1,2.4l0,0l0,0c0.1,0.2,0.2,0.5,0.5,0.5c0,0,0,0,0,0 c0.1-0.5,0.1-1,0.3-1.4c0.1-0.2,0.3-0.4,0.4-0.6c0.1,0.1,0.1,0.2,0.1,0.3c0.1,0.3,0.2,0.6,0.4,0.9c0.3,0.6,0.6,1.1,1,1.6 c0.1,0.2,0.3,0.4,0.5,0.5c0.1,0.1,0.2,0.1,0.2,0.2h0v0c-0.3-0.1-0.4-0.4-0.7-0.5c-0.4-0.3-0.9-0.8-1.2-1.2c-0.1-0.3-0.2-0.5-0.4-0.7 v0c-0.1,0.1,0,0.1-0.1,0.3c-0.1,0.4,0,1-0.4,1.1c-0.5,0.2-0.8-0.3-0.9-0.5c-0.5-0.7-0.6-2-0.3-3C21,5.6,21,5.3,21.1,5.1 c0-0.2-0.2-0.2-0.2-0.3c-0.1-0.2-0.2-0.4-0.3-0.6c-0.2-0.4-0.3-0.8-0.5-1.2C20,2.9,20,2.7,20,2.6c-0.1-0.2-0.3-0.5-0.5-0.7 C19.3,1.6,18.7,1,19,0.5z M21.9,2.2C21.9,2.2,21.9,2.3,21.9,2.2L22,2.3c0,0,0.1,0.1,0.1,0.1c0,0.1,0.1,0.1,0.1,0.2 C22.2,2.8,22.2,3,22,3c0,0,0,0,0,0c-0.1-0.1-0.1-0.3-0.2-0.4c-0.1-0.1-0.2-0.2-0.3-0.4h0v0C21.6,2.2,21.7,2.2,21.9,2.2z"
      />
    </svg>
