

    <svg
      version="1.1"
      xmlns="http://www.w3.org/2000/svg"
      xmlns:xlink="http://www.w3.org/1999/xlink"
      x="0px"
      y="0px"
      width="32px"
      height="14.8px"
      viewBox="0 0 32 14.8"
      style="enable-background: new 0 0 32 14.8"
      xml:space="preserve"
    >
      <path
        fill="#e7285e"
        d="M1.8,3.6v1h0c0.1-0.1,0.2-0.3,0.4-0.4C2.4,4,2.6,3.9,2.8,3.8c0.5-0.3,1.1-0.4,1.7-0.4c1,0,1.9,0.4,2.6,1.1 c0.3,0.4,0.6,0.8,0.7,1.2c0.2,0.5,0.3,1,0.3,1.5c0,0.6-0.1,1.1-0.3,1.6c-0.2,0.5-0.4,0.9-0.7,1.3c-0.3,0.4-0.7,0.7-1.2,0.9 c-0.5,0.2-1,0.3-1.5,0.3c-0.5,0-1-0.1-1.5-0.3c-0.4-0.2-0.8-0.5-1-0.9h0v4.7H0V3.6L1.8,3.6z M6.2,7.3c0-0.3,0-0.6-0.1-0.9 C5.9,6.1,5.8,5.9,5.6,5.6C5.5,5.4,5.2,5.2,5,5.1C4.7,4.9,4.3,4.9,4,4.9c-0.3,0-0.6,0.1-0.9,0.2C2.8,5.2,2.6,5.4,2.4,5.6 C2.2,5.9,2.1,6.1,2,6.4C1.8,7,1.8,7.6,2,8.2c0.1,0.3,0.2,0.5,0.4,0.8c0.2,0.2,0.4,0.4,0.7,0.6C3.4,9.6,3.7,9.7,4,9.7 c0.6,0,1.2-0.3,1.6-0.8C5.8,8.7,5.9,8.4,6,8.1C6.1,7.9,6.2,7.6,6.2,7.3L6.2,7.3z M24.4,3.2v8.3c0,0.4,0,0.9-0.1,1.3 c-0.1,0.4-0.2,0.7-0.4,1c-0.2,0.3-0.5,0.5-0.8,0.7c-0.3,0.2-0.8,0.3-1.4,0.3c-0.2,0-0.3,0-0.5,0c-0.1,0-0.3,0-0.4-0.1l0.2-1.6 c0.2,0,0.3,0.1,0.5,0.1c0.2,0,0.4,0,0.5-0.1c0.1-0.1,0.2-0.2,0.3-0.3c0.1-0.1,0.1-0.3,0.1-0.5c0-0.2,0-0.4,0-0.6V3.2H24.4z M30.8,5.6c-0.2-0.2-0.4-0.4-0.7-0.6c-0.3-0.2-0.6-0.2-1-0.2c-0.3,0-0.6,0.1-0.8,0.2c-0.2,0.1-0.4,0.4-0.4,0.6 c0,0.3,0.2,0.5,0.4,0.6c0.3,0.1,0.7,0.2,1.2,0.4c0.3,0.1,0.6,0.1,0.9,0.2C30.7,6.9,31,7,31.2,7.2c0.2,0.2,0.4,0.4,0.6,0.6 C31.9,8.1,32,8.4,32,8.8c0,0.5-0.1,0.8-0.3,1.2c-0.2,0.3-0.4,0.6-0.7,0.8c-0.3,0.2-0.6,0.3-1,0.4c-0.4,0.1-0.8,0.1-1.2,0.1 c-0.6,0-1.2-0.1-1.7-0.3c-0.5-0.2-1-0.5-1.4-0.9L27,8.9c0.5,0.6,1.2,0.9,1.9,0.9c0.1,0,0.3,0,0.4,0c0.1,0,0.3-0.1,0.4-0.1 C29.9,9.6,30,9.5,30,9.3c0.1-0.1,0.1-0.3,0.1-0.4c0-0.3-0.2-0.6-0.4-0.7C29.4,8.1,29,8,28.4,7.8c-0.3-0.1-0.6-0.1-0.8-0.2 c-0.3-0.1-0.5-0.2-0.7-0.4c-0.2-0.2-0.4-0.4-0.5-0.6c-0.1-0.3-0.2-0.6-0.2-0.9c0-0.4,0.1-0.8,0.3-1.1c0.2-0.3,0.4-0.5,0.7-0.7 c0.3-0.2,0.6-0.3,1-0.4c0.4-0.1,0.7-0.1,1.1-0.1c0.5,0,1.1,0.1,1.6,0.3c0.5,0.2,0.9,0.5,1.2,0.9L30.8,5.6z M19.7,9.5l1.1-0.3 l0.2,0.7L20,10.2l0.7,1l-0.6,0.4l-0.7-1l-0.7,0.9l-0.6-0.4l0.7-0.9l-1.1-0.4l0.2-0.7L19,9.5V8.3h0.8L19.7,9.5L19.7,9.5z M15.9,5.9 c-0.2-0.4-0.5-0.8-0.8-1.1c-0.4-0.3-0.8-0.5-1.2-0.7c-0.5-0.2-1-0.2-1.5-0.2c-0.2,0-0.4,0-0.7,0c-0.2,0-0.4,0.1-0.6,0.1l0.1-2.4h4.5 V0H9.4L9.2,6c0.2-0.1,0.4-0.2,0.6-0.2c0.2-0.1,0.4-0.1,0.7-0.2c0.2-0.1,0.5-0.1,0.7-0.1c0.2,0,0.4,0,0.7,0c0.3,0,0.6,0,0.9,0.1 c0.3,0.1,0.6,0.2,0.8,0.4c0.2,0.2,0.4,0.4,0.6,0.7c0.1,0.3,0.2,0.6,0.2,1.1c0,0.3-0.1,0.6-0.2,0.9C14,8.8,13.8,9,13.6,9.2 c-0.2,0.2-0.4,0.3-0.7,0.4c-0.3,0.1-0.5,0.1-0.8,0.1c-0.5,0-0.9-0.1-1.3-0.4c-0.4-0.3-0.6-0.6-0.8-1.1l0,0L8.7,9.6 C9,10,9.4,10.4,9.8,10.7c0.6,0.4,1.4,0.6,2.3,0.6c0.5,0,1.1-0.1,1.6-0.3c1-0.3,1.7-1.1,2.1-2c0.2-0.5,0.3-1,0.3-1.6 C16.2,6.9,16.1,6.4,15.9,5.9L15.9,5.9z"
      />
    </svg>
