

    <svg
      version="1.1"
      xmlns="http://www.w3.org/2000/svg"
      xmlns:xlink="http://www.w3.org/1999/xlink"
      x="0px"
      y="0px"
      width="32px"
      height="31.8px"
      viewBox="0 0 32 31.8"
      style="enable-background: new 0 0 32 31.8"
      xml:space="preserve"
    >
      <path
        fill="#99cc00"
        d="M13.1,31.8H8.5v-7.3l-7.8,1l-0.6-4.6l8.2-1.1v-10h1.4L9.7,9.2l9.2-1.2V0h4.7v7.3l7.8-1l0.6,4.6L23.5,12v8.4
		h-2.3l0.3,2.3l-8.4,1.1V31.8z M13,13.4v5.7l5.9-0.8v-5.7L13,13.4z"
      />
      <path
        fill="#009900"
        d="M23.6,30.4H19v-12l12.4-1.7l0.6,4.6l-8.4,1.1V30.4z M0.6,15.1L0,10.5l8.4-1.1V1.4H13v12L0.6,15.1z"
      />
    </svg>
