<svg
  version="1.1"
  xmlns="http://www.w3.org/2000/svg"
  xmlns:xlink="http://www.w3.org/1999/xlink"
  x="0px"
  y="0px"
  width="32px"
  height="14.4px"
  viewBox="0 0 32 14.4"
  style="enable-background: new 0 0 32 14.4"
  xml:space="preserve"
>
  <path
    fill="#991914"
    d="M22.9,10.9c-7.7,6.7-23,2.8-22.9-3.7C0.1,0.7,15-3.2,22.9,3.5C18.3,0.8,9.8,1.1,5.9,3.9L7,8.7l1.4-5h1.1l1.4,5
l1.1-5h1.1l-1.8,6.5h-1L8.9,5.1l-1.4,5.1h-1L5,4.6C4.2,5.3,3.8,6.2,3.7,7.2C3.5,11.7,15,15.1,22.9,10.9L22.9,10.9z M29.1,9V4.2h-1.3
v5.9H32V9C32,9,29.1,9,29.1,9z M24.5,7.9h1.3c-0.1,0.9-0.6,1.2-1.2,1.3c-1.2,0.1-1.9-0.8-1.9-2c0-0.7,0.2-1.5,0.8-1.8
c0.7-0.4,1.9-0.3,2.1,0.8h1.3c-0.4-3-5.5-2.9-5.5,1c0.1,3.4,3.7,3.7,4.6,2.3l0.1,0.7H27V6.9h-2.5L24.5,7.9L24.5,7.9z M17.8,4.3v2
c0.8-1.1,3-0.7,3,1.6c0,0.9-0.3,1.3-0.5,1.7c-0.4,0.6-1.8,1.1-2.6,0.2v0.4h-0.8V4.3C16.9,4.3,17.8,4.3,17.8,4.3z M17.7,8.2
c0,1,0.6,1.3,1.1,1.3c0.3,0,0.6-0.1,0.8-0.4c0.2-0.3,0.3-0.7,0.3-1.1c0-0.6-0.1-1.1-0.5-1.3c-0.4-0.3-1-0.2-1.3,0.1
C17.9,7,17.7,7.5,17.7,8.2z M16.4,8.3h-3.1c0,1.5,1.6,1.5,2,0.8c0.1-0.1,0.1-0.2,0.2-0.4h0.8c-0.1,0.4-0.2,0.6-0.4,0.8
c-0.4,0.6-1.2,0.8-2,0.7c-0.8-0.1-1.5-0.9-1.5-2.1c-0.1-1.8,1.6-3,3.1-2.1C16.1,6.4,16.4,7.1,16.4,8.3z M15.5,7.6
c0-1.5-2.1-1.5-2.2,0H15.5z"
  />
</svg>
